<?xml version="1.0" encoding="UTF-8" standalone="no"?><!DOCTYPE svg PUBLIC "-//W3C//DTD SVG 1.1//EN" "http://www.w3.org/Graphics/SVG/1.1/DTD/svg11.dtd"><svg width="100%" height="100%" viewBox="0 0 624 279" version="1.1" xmlns="http://www.w3.org/2000/svg" xmlns:xlink="http://www.w3.org/1999/xlink" xml:space="preserve" xmlns:serif="http://www.serif.com/" style="fill-rule:evenodd;clip-rule:evenodd;stroke-linejoin:round;stroke-miterlimit:2;"><g transform="matrix(0.375,0,0,0.375,6.66134e-15,-63.0698)"><g transform="matrix(0.938821,0,0,1.21145,-1.77636e-14,-114.877)"><rect x="0" y="233.656" width="1771.62" height="612.688" style="fill:none;"/></g><g transform="matrix(1,0,0,1,-214.207,-186.687)"><g transform="matrix(1,0,0,1,3.39099,0)"><g transform="matrix(0.827169,-4.48136e-17,4.35061e-17,0.853721,183.916,342.281)"><g id="l3PqdLdxqTgel9UWcH7pKZ4"><g><path id="pwRobM9vD" d="M57.3,647.3c0.4,-13.6 1,-18.7 3,-26.4c8.3,-31.6 27.1,-57.7 58.9,-81.4c18.7,-14 78.2,-48.7 95.3,-55.7c7.5,-3 53.2,-29.1 64.2,-36.7c4.5,-3.1 14.4,-10.8 21.9,-17.1l13.8,-11.5l-92.8,-0.3c-51.1,-0.1 -93.2,-0 -93.5,0.3c-0.9,1 11.2,12.5 20.4,19.5c5,3.7 12.6,8.9 17,11.5c11.6,6.9 11.5,6.8 6.4,9.7c-2.4,1.4 -10.7,6 -18.4,10.3c-7.7,4.3 -14.7,8.3 -15.6,8.8c-3.2,1.9 -25.9,-15.1 -41.9,-31.3c-30.3,-30.8 -43.4,-68 -37.9,-107.6c2.4,-17.7 11.4,-39.5 22.1,-53.9c11,-14.8 30.3,-31.9 47.3,-41.8c3.9,-2.2 16.9,-10 29,-17.2c12.1,-7.3 27.9,-16.3 35,-20c7.2,-3.7 13.5,-7.2 14.1,-7.6c0.6,-0.5 3.6,-1.8 6.6,-2.8c3,-1 11.5,-5.4 18.9,-9.7c7.4,-4.3 18.1,-10.5 23.9,-13.7c19.8,-11.3 52,-34.1 52,-36.9c0,-0.4 -38.9,-0.8 -86.5,-0.8c-47.6,-0 -86.5,0.2 -86.5,0.5c0,1.8 38.5,28.5 41,28.5c1.8,-0 1,1.9 -1.2,3.3c-1.3,0.8 -9.5,5.3 -18.3,10.2c-8.8,4.8 -16.7,9.3 -17.6,9.8c-3.5,2.2 -33.2,-21 -47.3,-36.9c-23.2,-26.1 -33.6,-52.8 -33.6,-86.1l0,-13.3l20.3,0.2l20.2,0.3l0.6,13.5c0.4,7.4 1.3,15.5 2.1,18l1.4,4.5l118.1,0.3l118,0.2l1.7,-8.2c0.8,-4.6 1.9,-13.6 2.2,-20l0.7,-11.8l40,-0l-0.6,17.3c-0.6,20.8 -3.1,31.7 -10.7,47.5c-7.4,15.3 -15.9,27.2 -29,40.2c-13.9,14 -26.9,23.7 -51.8,38.9c-21,12.9 -58.2,33.3 -64,35.2c-4.7,1.5 -57.5,31.6 -66.2,37.7c-8.4,5.9 -13.3,9.8 -25.4,20.2l-9.9,8.5l94.3,0.3c51.9,0.1 94.5,-0 94.7,-0.2c1.4,-1.4 -24.1,-22.3 -38.6,-31.6c-5.5,-3.6 -10,-6.7 -10.1,-7.1c0,-0.3 2.1,-1.5 4.7,-2.8c2.6,-1.3 11.4,-6.1 19.5,-10.7c8.2,-4.6 15.3,-8.4 15.9,-8.4c3.3,-0 27.9,19.1 39.5,30.7c43.4,43.5 52.2,102.7 22.7,153.1c-14.6,25 -36.8,45.1 -75.3,68.2c-8.5,5.1 -16.6,10.1 -18,11c-5.9,4 -40,21.8 -45.8,23.9c-5.9,2.2 -54,29.9 -68.2,39.3c-12.6,8.3 -30.9,22 -31,23.1c0,0.4 39.4,0.7 87.5,0.7c48.1,-0 87.5,-0.2 87.5,-0.4c0,-0.2 -4.8,-4.4 -10.7,-9.3c-11.7,-9.7 -22.2,-17.2 -28.4,-20.4c-2.2,-1.1 -3.7,-2.4 -3.4,-2.9c0.3,-0.4 4.9,-3.2 10.3,-6.1c5.3,-2.8 13.8,-7.6 18.9,-10.5c5,-3 9.7,-5.4 10.3,-5.4c2.7,-0 24.9,17.1 35.8,27.5c24.4,23.4 38.3,48.5 42.1,75.9c0.6,4.3 1.1,13.3 1.1,20.2l0,12.4l-20.2,-0.2l-20.3,-0.3l-0.6,-16.5c-0.3,-9.5 -1.1,-17.9 -1.8,-19.7l-1.3,-3.3l-116.5,-0.2c-76.7,-0.2 -116.7,-0 -117.3,0.7c-1.8,2.3 -4,17.4 -4,28.1l0,11.4l-41.3,-0l0.6,-16.7Zm281.6,-276c1.4,-7.2 1.4,-21.4 0,-28.6l-1.2,-5.7l-54.6,-0c-127.4,-0.1 -182.6,0.1 -183.3,0.8c-1.2,1.2 -2.8,12.3 -2.8,19.2c0,6.1 1.6,17.5 2.7,19.3c0.2,0.4 53.9,0.7 119.2,0.7l118.8,-0l1.2,-5.7Z" style="fill:url(#_Linear1);fill-rule:nonzero;"/></g></g></g><g transform="matrix(1,0,0,1,-44.3783,90.4831)"><g transform="matrix(192,0,0,192,577.674,432.558)"><path d="M0.531,-0.263l0.14,0.044c-0.022,0.078 -0.057,0.136 -0.108,0.175c-0.049,0.037 -0.113,0.056 -0.189,0.056c-0.096,0 -0.174,-0.032 -0.235,-0.097c-0.061,-0.065 -0.092,-0.154 -0.092,-0.267c0,-0.119 0.031,-0.211 0.093,-0.277c0.061,-0.066 0.142,-0.099 0.242,-0.099c0.088,-0 0.159,0.026 0.214,0.078c0.032,0.03 0.057,0.074 0.073,0.131l-0.143,0.035c-0.009,-0.037 -0.026,-0.067 -0.053,-0.088c-0.027,-0.022 -0.06,-0.032 -0.098,-0.032c-0.053,-0 -0.096,0.019 -0.129,0.057c-0.033,0.038 -0.05,0.099 -0.05,0.185c0,0.09 0.017,0.155 0.049,0.193c0.033,0.038 0.075,0.058 0.127,0.058c0.038,-0 0.072,-0.013 0.099,-0.037c0.028,-0.024 0.048,-0.063 0.06,-0.115Z" style="fill:#6d6d6d;fill-rule:nonzero;"/></g><g transform="matrix(192,0,0,192,716.331,432.558)"><path d="M0.421,-0.167l0.091,0.011c-0.015,0.053 -0.041,0.094 -0.08,0.124c-0.039,0.029 -0.088,0.044 -0.148,0.044c-0.076,-0 -0.136,-0.024 -0.181,-0.07c-0.044,-0.047 -0.066,-0.113 -0.066,-0.197c-0,-0.087 0.022,-0.155 0.067,-0.203c0.045,-0.048 0.103,-0.072 0.175,-0.072c0.069,-0 0.126,0.023 0.17,0.071c0.044,0.047 0.066,0.113 0.066,0.199c-0,0.005 -0.001,0.013 -0.001,0.023l-0.387,0c0.004,0.057 0.02,0.101 0.049,0.131c0.029,0.03 0.065,0.045 0.108,0.045c0.032,0 0.06,-0.008 0.083,-0.025c0.022,-0.017 0.041,-0.044 0.054,-0.081Zm-0.289,-0.142l0.29,-0c-0.004,-0.044 -0.015,-0.076 -0.033,-0.098c-0.028,-0.034 -0.065,-0.051 -0.109,-0.051c-0.041,-0 -0.075,0.014 -0.102,0.041c-0.028,0.027 -0.043,0.063 -0.046,0.108Z" style="fill:#6d6d6d;fill-rule:nonzero;"/></g><g transform="matrix(192,0,0,192,823.112,432.558)"><path d="M0.066,-0l-0,-0.519l0.079,0l0,0.074c0.038,-0.057 0.093,-0.085 0.165,-0.085c0.031,-0 0.06,0.005 0.086,0.017c0.026,0.011 0.046,0.026 0.059,0.044c0.013,0.018 0.022,0.04 0.027,0.065c0.004,0.016 0.005,0.044 0.005,0.085l0,0.319l-0.088,-0l0,-0.315c0,-0.036 -0.003,-0.063 -0.01,-0.081c-0.007,-0.017 -0.019,-0.032 -0.036,-0.042c-0.018,-0.011 -0.038,-0.016 -0.061,-0.016c-0.038,-0 -0.07,0.012 -0.098,0.036c-0.027,0.023 -0.04,0.068 -0.04,0.135l-0,0.283l-0.088,-0Z" style="fill:#6d6d6d;fill-rule:nonzero;"/></g><g transform="matrix(192,0,0,192,929.893,432.558)"><path d="M0.258,-0.079l0.013,0.078c-0.025,0.005 -0.047,0.008 -0.067,0.008c-0.032,-0 -0.057,-0.005 -0.074,-0.015c-0.018,-0.01 -0.03,-0.024 -0.037,-0.04c-0.007,-0.016 -0.011,-0.051 -0.011,-0.104l0,-0.298l-0.064,-0l-0,-0.069l0.064,0l0,-0.128l0.087,-0.053l0,0.181l0.089,0l-0,0.069l-0.089,-0l0,0.303c0,0.025 0.002,0.041 0.005,0.048c0.003,0.008 0.008,0.013 0.015,0.017c0.007,0.005 0.017,0.007 0.03,0.007c0.01,-0 0.023,-0.001 0.039,-0.004Z" style="fill:#6d6d6d;fill-rule:nonzero;"/></g><g transform="matrix(192,0,0,192,983.237,432.558)"><path d="M0.065,-0l-0,-0.519l0.079,0l0,0.079c0.02,-0.037 0.039,-0.061 0.056,-0.073c0.017,-0.011 0.036,-0.017 0.056,-0.017c0.03,-0 0.06,0.009 0.091,0.028l-0.031,0.082c-0.021,-0.013 -0.043,-0.019 -0.064,-0.019c-0.019,-0 -0.037,0.005 -0.052,0.017c-0.015,0.012 -0.026,0.027 -0.033,0.048c-0.009,0.031 -0.014,0.065 -0.014,0.103l-0,0.271l-0.088,-0Z" style="fill:#6d6d6d;fill-rule:nonzero;"/></g><g transform="matrix(192,0,0,192,1047.17,432.558)"><path d="M0.406,-0l-0,-0.076c-0.041,0.058 -0.095,0.088 -0.165,0.088c-0.03,-0 -0.059,-0.006 -0.086,-0.018c-0.026,-0.012 -0.046,-0.026 -0.059,-0.044c-0.013,-0.018 -0.021,-0.04 -0.027,-0.065c-0.003,-0.017 -0.005,-0.045 -0.005,-0.082l-0,-0.322l0.088,0l-0,0.288c-0,0.046 0.002,0.077 0.005,0.093c0.006,0.023 0.017,0.041 0.035,0.055c0.018,0.013 0.04,0.019 0.067,0.019c0.026,0 0.051,-0.007 0.074,-0.02c0.023,-0.014 0.039,-0.032 0.049,-0.055c0.01,-0.024 0.014,-0.057 0.014,-0.102l0,-0.278l0.088,0l0,0.519l-0.078,-0Z" style="fill:#6d6d6d;fill-rule:nonzero;"/></g><g transform="matrix(192,0,0,192,1153.96,432.558)"><path d="M0.066,-0l-0,-0.519l0.079,0l-0,0.073c0.016,-0.025 0.037,-0.046 0.064,-0.061c0.027,-0.015 0.058,-0.023 0.093,-0.023c0.038,-0 0.07,0.008 0.094,0.024c0.025,0.016 0.042,0.038 0.052,0.067c0.041,-0.061 0.095,-0.091 0.16,-0.091c0.052,-0 0.091,0.014 0.119,0.043c0.028,0.028 0.042,0.072 0.042,0.131l-0,0.356l-0.088,0l0,-0.327c0,-0.035 -0.003,-0.06 -0.009,-0.075c-0.005,-0.016 -0.015,-0.029 -0.03,-0.038c-0.015,-0.009 -0.033,-0.014 -0.053,-0.014c-0.037,-0 -0.067,0.012 -0.091,0.037c-0.024,0.024 -0.036,0.062 -0.036,0.116l-0,0.301l-0.088,0l0,-0.337c0,-0.039 -0.007,-0.068 -0.021,-0.088c-0.015,-0.019 -0.038,-0.029 -0.071,-0.029c-0.025,-0 -0.047,0.006 -0.069,0.019c-0.02,0.013 -0.036,0.032 -0.045,0.058c-0.009,0.025 -0.014,0.061 -0.014,0.108l-0,0.269l-0.088,0Z" style="fill:#6d6d6d;fill-rule:nonzero;"/></g><g transform="matrix(192,0,0,192,577.674,619.225)"><path d="M0.071,-0l-0,-0.716l0.216,0l0.13,0.488l0.128,-0.488l0.217,0l0,0.716l-0.134,-0l-0,-0.563l-0.142,0.563l-0.139,-0l-0.142,-0.563l0,0.563l-0.134,-0Z" style="fill:#6d6d6d;fill-rule:nonzero;"/></g><g transform="matrix(192,0,0,192,737.612,619.225)"><path d="M0.421,-0.167l0.091,0.011c-0.015,0.053 -0.041,0.094 -0.08,0.124c-0.039,0.029 -0.088,0.044 -0.148,0.044c-0.076,-0 -0.136,-0.024 -0.181,-0.07c-0.044,-0.047 -0.066,-0.113 -0.066,-0.197c-0,-0.087 0.022,-0.155 0.067,-0.203c0.045,-0.048 0.103,-0.072 0.175,-0.072c0.069,-0 0.126,0.023 0.17,0.071c0.044,0.047 0.066,0.113 0.066,0.199c-0,0.005 -0.001,0.013 -0.001,0.023l-0.387,0c0.004,0.057 0.02,0.101 0.049,0.131c0.029,0.03 0.065,0.045 0.108,0.045c0.032,0 0.06,-0.008 0.083,-0.025c0.022,-0.017 0.041,-0.044 0.054,-0.081Zm-0.289,-0.142l0.29,-0c-0.004,-0.044 -0.015,-0.076 -0.033,-0.098c-0.028,-0.034 -0.065,-0.051 -0.109,-0.051c-0.041,-0 -0.075,0.014 -0.102,0.041c-0.028,0.027 -0.043,0.063 -0.046,0.108Z" style="fill:#6d6d6d;fill-rule:nonzero;"/></g><g transform="matrix(192,0,0,192,844.393,619.225)"><path d="M0.402,-0l0,-0.065c-0.033,0.051 -0.081,0.077 -0.145,0.077c-0.041,-0 -0.079,-0.012 -0.114,-0.034c-0.034,-0.023 -0.061,-0.055 -0.081,-0.096c-0.018,-0.041 -0.028,-0.088 -0.028,-0.141c0,-0.052 0.009,-0.098 0.026,-0.14c0.017,-0.043 0.043,-0.075 0.078,-0.098c0.034,-0.022 0.073,-0.033 0.115,-0.033c0.032,-0 0.059,0.006 0.084,0.02c0.024,0.013 0.044,0.03 0.059,0.051l0,-0.257l0.088,0l-0,0.716l-0.082,-0Zm-0.277,-0.259c-0,0.067 0.014,0.116 0.042,0.149c0.027,0.033 0.061,0.049 0.099,0.049c0.038,0 0.071,-0.015 0.097,-0.046c0.027,-0.032 0.041,-0.08 0.041,-0.144c-0,-0.071 -0.014,-0.124 -0.041,-0.157c-0.028,-0.033 -0.061,-0.05 -0.101,-0.05c-0.039,0 -0.072,0.016 -0.098,0.048c-0.026,0.032 -0.039,0.083 -0.039,0.151Z" style="fill:#6d6d6d;fill-rule:nonzero;"/></g><g transform="matrix(192,0,0,192,951.174,619.225)"><path d="M0.062,0.2l-0.01,-0.083c0.019,0.005 0.036,0.008 0.051,0.008c0.019,0 0.035,-0.003 0.046,-0.01c0.012,-0.006 0.022,-0.015 0.029,-0.027c0.006,-0.009 0.015,-0.031 0.027,-0.066c0.002,-0.004 0.004,-0.012 0.008,-0.021l-0.197,-0.52l0.095,0l0.108,0.301c0.014,0.038 0.026,0.078 0.037,0.12c0.01,-0.041 0.022,-0.08 0.036,-0.118l0.111,-0.303l0.088,0l-0.197,0.528c-0.021,0.057 -0.038,0.096 -0.049,0.117c-0.016,0.029 -0.034,0.051 -0.054,0.064c-0.02,0.014 -0.044,0.02 -0.072,0.02c-0.017,0 -0.036,-0.003 -0.057,-0.01Z" style="fill:#6d6d6d;fill-rule:nonzero;"/></g><g transform="matrix(192,0,0,192,1047.17,619.225)"><path d="M0.404,-0.19l0.087,0.011c-0.01,0.06 -0.034,0.107 -0.073,0.14c-0.039,0.034 -0.086,0.051 -0.143,0.051c-0.071,-0 -0.128,-0.023 -0.171,-0.07c-0.043,-0.046 -0.065,-0.113 -0.065,-0.199c0,-0.056 0.009,-0.105 0.028,-0.147c0.018,-0.042 0.047,-0.074 0.084,-0.095c0.038,-0.021 0.08,-0.031 0.124,-0.031c0.057,-0 0.103,0.014 0.139,0.043c0.035,0.028 0.058,0.068 0.068,0.121l-0.085,0.013c-0.008,-0.035 -0.023,-0.061 -0.043,-0.079c-0.021,-0.017 -0.046,-0.026 -0.075,-0.026c-0.044,-0 -0.08,0.016 -0.108,0.048c-0.028,0.031 -0.042,0.082 -0.042,0.15c0,0.07 0.014,0.121 0.04,0.152c0.027,0.032 0.062,0.047 0.105,0.047c0.034,0 0.063,-0.01 0.086,-0.031c0.023,-0.021 0.038,-0.054 0.044,-0.098Z" style="fill:#6d6d6d;fill-rule:nonzero;"/></g><g transform="matrix(192,0,0,192,1143.17,619.225)"><path d="M0.062,0.2l-0.01,-0.083c0.019,0.005 0.036,0.008 0.051,0.008c0.019,0 0.035,-0.003 0.046,-0.01c0.012,-0.006 0.022,-0.015 0.029,-0.027c0.006,-0.009 0.015,-0.031 0.027,-0.066c0.002,-0.004 0.004,-0.012 0.008,-0.021l-0.197,-0.52l0.095,0l0.108,0.301c0.014,0.038 0.026,0.078 0.037,0.12c0.01,-0.041 0.022,-0.08 0.036,-0.118l0.111,-0.303l0.088,0l-0.197,0.528c-0.021,0.057 -0.038,0.096 -0.049,0.117c-0.016,0.029 -0.034,0.051 -0.054,0.064c-0.02,0.014 -0.044,0.02 -0.072,0.02c-0.017,0 -0.036,-0.003 -0.057,-0.01Z" style="fill:#6d6d6d;fill-rule:nonzero;"/></g><g transform="matrix(192,0,0,192,1239.17,619.225)"><path d="M0.066,-0l-0,-0.519l0.079,0l0,0.074c0.038,-0.057 0.093,-0.085 0.165,-0.085c0.031,-0 0.06,0.005 0.086,0.017c0.026,0.011 0.046,0.026 0.059,0.044c0.013,0.018 0.022,0.04 0.027,0.065c0.004,0.016 0.005,0.044 0.005,0.085l0,0.319l-0.088,-0l0,-0.315c0,-0.036 -0.003,-0.063 -0.01,-0.081c-0.007,-0.017 -0.019,-0.032 -0.036,-0.042c-0.018,-0.011 -0.038,-0.016 -0.061,-0.016c-0.038,-0 -0.07,0.012 -0.098,0.036c-0.027,0.023 -0.04,0.068 -0.04,0.135l-0,0.283l-0.088,-0Z" style="fill:#6d6d6d;fill-rule:nonzero;"/></g><g transform="matrix(192,0,0,192,1345.96,619.225)"><path d="M0.062,0.2l-0.01,-0.083c0.019,0.005 0.036,0.008 0.051,0.008c0.019,0 0.035,-0.003 0.046,-0.01c0.012,-0.006 0.022,-0.015 0.029,-0.027c0.006,-0.009 0.015,-0.031 0.027,-0.066c0.002,-0.004 0.004,-0.012 0.008,-0.021l-0.197,-0.52l0.095,0l0.108,0.301c0.014,0.038 0.026,0.078 0.037,0.12c0.01,-0.041 0.022,-0.08 0.036,-0.118l0.111,-0.303l0.088,0l-0.197,0.528c-0.021,0.057 -0.038,0.096 -0.049,0.117c-0.016,0.029 -0.034,0.051 -0.054,0.064c-0.02,0.014 -0.044,0.02 -0.072,0.02c-0.017,0 -0.036,-0.003 -0.057,-0.01Z" style="fill:#6d6d6d;fill-rule:nonzero;"/></g><g transform="matrix(192,0,0,192,577.674,805.891)"><path d="M0.072,-0.716l0.264,0c0.06,0 0.105,0.005 0.137,0.014c0.042,0.012 0.078,0.034 0.108,0.066c0.03,0.031 0.052,0.07 0.068,0.116c0.016,0.046 0.023,0.102 0.023,0.169c0,0.059 -0.007,0.11 -0.022,0.152c-0.018,0.052 -0.043,0.095 -0.076,0.127c-0.025,0.024 -0.059,0.043 -0.102,0.057c-0.032,0.01 -0.074,0.015 -0.128,0.015l-0.272,-0l0,-0.716Zm0.145,0.121l-0,0.474l0.108,0c0.04,0 0.069,-0.002 0.087,-0.006c0.024,-0.006 0.043,-0.016 0.058,-0.03c0.016,-0.014 0.029,-0.037 0.038,-0.069c0.01,-0.032 0.015,-0.076 0.015,-0.131c-0,-0.056 -0.005,-0.098 -0.015,-0.128c-0.009,-0.029 -0.023,-0.053 -0.041,-0.069c-0.017,-0.017 -0.04,-0.028 -0.067,-0.034c-0.02,-0.004 -0.059,-0.007 -0.118,-0.007l-0.065,0Z" style="fill:#6d6d6d;fill-rule:nonzero;"/></g><g transform="matrix(192,0,0,192,716.331,805.891)"><path d="M0.033,-0.259c0,-0.096 0.027,-0.167 0.08,-0.214c0.045,-0.038 0.099,-0.057 0.163,-0.057c0.072,-0 0.13,0.023 0.175,0.07c0.045,0.047 0.068,0.111 0.068,0.193c0,0.067 -0.01,0.12 -0.03,0.158c-0.02,0.038 -0.049,0.068 -0.088,0.089c-0.038,0.021 -0.079,0.032 -0.125,0.032c-0.072,-0 -0.131,-0.024 -0.176,-0.07c-0.044,-0.047 -0.067,-0.114 -0.067,-0.201Zm0.091,-0c-0,0.066 0.014,0.116 0.043,0.149c0.029,0.033 0.065,0.049 0.109,0.049c0.044,0 0.08,-0.016 0.109,-0.049c0.029,-0.034 0.044,-0.084 0.044,-0.152c-0,-0.064 -0.015,-0.113 -0.044,-0.146c-0.029,-0.033 -0.065,-0.05 -0.109,-0.05c-0.044,0 -0.08,0.017 -0.109,0.05c-0.029,0.033 -0.043,0.082 -0.043,0.149Z" style="fill:#6d6d6d;fill-rule:nonzero;"/></g><g transform="matrix(192,0,0,192,823.112,805.891)"><path d="M0.031,-0.155l0.087,-0.013c0.005,0.034 0.018,0.061 0.04,0.08c0.023,0.018 0.054,0.027 0.094,0.027c0.04,0 0.07,-0.008 0.09,-0.024c0.019,-0.017 0.029,-0.036 0.029,-0.058c0,-0.02 -0.009,-0.036 -0.026,-0.047c-0.012,-0.008 -0.042,-0.018 -0.09,-0.03c-0.064,-0.016 -0.109,-0.03 -0.134,-0.042c-0.025,-0.012 -0.044,-0.028 -0.057,-0.049c-0.012,-0.021 -0.019,-0.044 -0.019,-0.07c0,-0.023 0.006,-0.044 0.016,-0.064c0.011,-0.02 0.025,-0.036 0.043,-0.049c0.014,-0.01 0.033,-0.019 0.056,-0.026c0.024,-0.007 0.049,-0.01 0.076,-0.01c0.041,-0 0.077,0.006 0.107,0.017c0.031,0.012 0.054,0.028 0.069,0.048c0.014,0.02 0.024,0.047 0.03,0.08l-0.086,0.012c-0.004,-0.027 -0.015,-0.048 -0.034,-0.063c-0.019,-0.015 -0.045,-0.022 -0.079,-0.022c-0.041,-0 -0.069,0.007 -0.087,0.02c-0.017,0.013 -0.026,0.029 -0.026,0.047c0,0.011 0.004,0.022 0.011,0.031c0.007,0.009 0.019,0.017 0.034,0.023c0.009,0.003 0.034,0.011 0.077,0.023c0.063,0.016 0.106,0.03 0.13,0.041c0.025,0.01 0.044,0.025 0.058,0.045c0.014,0.021 0.021,0.046 0.021,0.076c0,0.029 -0.008,0.057 -0.025,0.083c-0.017,0.025 -0.042,0.045 -0.074,0.06c-0.032,0.014 -0.069,0.021 -0.11,0.021c-0.067,-0 -0.118,-0.014 -0.154,-0.042c-0.035,-0.028 -0.057,-0.07 -0.067,-0.125Zm0.161,-0.428l0.065,-0.137l0.116,0l-0.108,0.137l-0.073,-0Z" style="fill:#6d6d6d;fill-rule:nonzero;"/></g><g transform="matrix(192,0,0,192,919.112,805.891)"><path d="M0.162,-0l-0.159,-0.519l0.091,0l0.082,0.3l0.031,0.111c0.001,-0.005 0.01,-0.041 0.027,-0.107l0.082,-0.304l0.091,0l0.077,0.301l0.026,0.099l0.03,-0.1l0.089,-0.3l0.085,0l-0.162,0.519l-0.091,-0l-0.083,-0.311l-0.02,-0.088l-0.105,0.399l-0.091,-0Z" style="fill:#6d6d6d;fill-rule:nonzero;"/></g><g transform="matrix(192,0,0,192,1057.77,805.891)"><path d="M0.066,-0.615l0,-0.101l0.088,0l0,0.101l-0.088,0Zm0,0.615l0,-0.519l0.088,0l0,0.519l-0.088,-0Z" style="fill:#6d6d6d;fill-rule:nonzero;"/></g><g transform="matrix(192,0,0,192,1100.42,805.891)"><path d="M0.404,-0.064c-0.032,0.028 -0.064,0.047 -0.094,0.059c-0.03,0.011 -0.062,0.017 -0.097,0.017c-0.057,-0 -0.1,-0.014 -0.131,-0.042c-0.031,-0.028 -0.046,-0.063 -0.046,-0.107c0,-0.025 0.006,-0.048 0.017,-0.069c0.012,-0.021 0.027,-0.038 0.046,-0.051c0.019,-0.013 0.04,-0.022 0.063,-0.029c0.017,-0.004 0.043,-0.009 0.078,-0.013c0.071,-0.008 0.123,-0.018 0.157,-0.03c0,-0.012 0,-0.02 0,-0.023c0,-0.036 -0.008,-0.061 -0.024,-0.076c-0.023,-0.02 -0.056,-0.03 -0.101,-0.03c-0.041,0 -0.071,0.008 -0.091,0.022c-0.02,0.015 -0.034,0.04 -0.044,0.077l-0.086,-0.012c0.008,-0.036 0.021,-0.066 0.039,-0.088c0.018,-0.023 0.044,-0.041 0.077,-0.053c0.034,-0.012 0.074,-0.018 0.118,-0.018c0.044,-0 0.08,0.005 0.108,0.015c0.028,0.011 0.048,0.024 0.061,0.04c0.013,0.016 0.022,0.035 0.027,0.059c0.003,0.015 0.005,0.042 0.005,0.082l-0,0.117c-0,0.081 0.002,0.133 0.005,0.155c0.004,0.021 0.012,0.042 0.023,0.062l-0.092,0c-0.009,-0.018 -0.015,-0.04 -0.018,-0.064Zm-0.007,-0.196c-0.032,0.013 -0.08,0.024 -0.144,0.033c-0.036,0.005 -0.061,0.011 -0.076,0.018c-0.015,0.006 -0.027,0.016 -0.035,0.028c-0.008,0.013 -0.012,0.027 -0.012,0.042c-0,0.023 0.009,0.043 0.026,0.058c0.018,0.016 0.044,0.024 0.078,0.024c0.034,-0 0.064,-0.007 0.091,-0.022c0.026,-0.015 0.045,-0.035 0.058,-0.061c0.009,-0.02 0.014,-0.049 0.014,-0.088l-0,-0.032Z" style="fill:#6d6d6d;fill-rule:nonzero;"/></g><g transform="matrix(192,0,0,192,1207.21,805.891)"><path d="M0.402,-0l0,-0.065c-0.033,0.051 -0.081,0.077 -0.145,0.077c-0.041,-0 -0.079,-0.012 -0.114,-0.034c-0.034,-0.023 -0.061,-0.055 -0.081,-0.096c-0.018,-0.041 -0.028,-0.088 -0.028,-0.141c0,-0.052 0.009,-0.098 0.026,-0.14c0.017,-0.043 0.043,-0.075 0.078,-0.098c0.034,-0.022 0.073,-0.033 0.115,-0.033c0.032,-0 0.059,0.006 0.084,0.02c0.024,0.013 0.044,0.03 0.059,0.051l0,-0.257l0.088,0l-0,0.716l-0.082,-0Zm-0.277,-0.259c-0,0.067 0.014,0.116 0.042,0.149c0.027,0.033 0.061,0.049 0.099,0.049c0.038,0 0.071,-0.015 0.097,-0.046c0.027,-0.032 0.041,-0.08 0.041,-0.144c-0,-0.071 -0.014,-0.124 -0.041,-0.157c-0.028,-0.033 -0.061,-0.05 -0.101,-0.05c-0.039,0 -0.072,0.016 -0.098,0.048c-0.026,0.032 -0.039,0.083 -0.039,0.151Z" style="fill:#6d6d6d;fill-rule:nonzero;"/></g><g transform="matrix(192,0,0,192,1313.99,805.891)"><path d="M0.404,-0.19l0.087,0.011c-0.01,0.06 -0.034,0.107 -0.073,0.14c-0.039,0.034 -0.086,0.051 -0.143,0.051c-0.071,-0 -0.128,-0.023 -0.171,-0.07c-0.043,-0.046 -0.065,-0.113 -0.065,-0.199c0,-0.056 0.009,-0.105 0.028,-0.147c0.018,-0.042 0.047,-0.074 0.084,-0.095c0.038,-0.021 0.08,-0.031 0.124,-0.031c0.057,-0 0.103,0.014 0.139,0.043c0.035,0.028 0.058,0.068 0.068,0.121l-0.085,0.013c-0.008,-0.035 -0.023,-0.061 -0.043,-0.079c-0.021,-0.017 -0.046,-0.026 -0.075,-0.026c-0.044,-0 -0.08,0.016 -0.108,0.048c-0.028,0.031 -0.042,0.082 -0.042,0.15c0,0.07 0.014,0.121 0.04,0.152c0.027,0.032 0.062,0.047 0.105,0.047c0.034,0 0.063,-0.01 0.086,-0.031c0.023,-0.021 0.038,-0.054 0.044,-0.098Z" style="fill:#6d6d6d;fill-rule:nonzero;"/></g><g transform="matrix(192,0,0,192,1409.99,805.891)"><path d="M0.02,-0l-0,-0.071l0.33,-0.379c-0.038,0.002 -0.071,0.003 -0.1,0.003l-0.211,-0l0,-0.072l0.424,0l-0,0.059l-0.281,0.329l-0.054,0.06c0.039,-0.003 0.076,-0.005 0.111,-0.005l0.24,0l-0,0.076l-0.459,0Z" style="fill:#6d6d6d;fill-rule:nonzero;"/></g><g transform="matrix(192,0,0,192,1505.99,805.891)"><path d="M0.404,-0.064c-0.032,0.028 -0.064,0.047 -0.094,0.059c-0.03,0.011 -0.062,0.017 -0.097,0.017c-0.057,-0 -0.1,-0.014 -0.131,-0.042c-0.031,-0.028 -0.046,-0.063 -0.046,-0.107c0,-0.025 0.006,-0.048 0.017,-0.069c0.012,-0.021 0.027,-0.038 0.046,-0.051c0.019,-0.013 0.04,-0.022 0.063,-0.029c0.017,-0.004 0.043,-0.009 0.078,-0.013c0.071,-0.008 0.123,-0.018 0.157,-0.03c0,-0.012 0,-0.02 0,-0.023c0,-0.036 -0.008,-0.061 -0.024,-0.076c-0.023,-0.02 -0.056,-0.03 -0.101,-0.03c-0.041,0 -0.071,0.008 -0.091,0.022c-0.02,0.015 -0.034,0.04 -0.044,0.077l-0.086,-0.012c0.008,-0.036 0.021,-0.066 0.039,-0.088c0.018,-0.023 0.044,-0.041 0.077,-0.053c0.034,-0.012 0.074,-0.018 0.118,-0.018c0.044,-0 0.08,0.005 0.108,0.015c0.028,0.011 0.048,0.024 0.061,0.04c0.013,0.016 0.022,0.035 0.027,0.059c0.003,0.015 0.005,0.042 0.005,0.082l-0,0.117c-0,0.081 0.002,0.133 0.005,0.155c0.004,0.021 0.012,0.042 0.023,0.062l-0.092,0c-0.009,-0.018 -0.015,-0.04 -0.018,-0.064Zm-0.007,-0.196c-0.032,0.013 -0.08,0.024 -0.144,0.033c-0.036,0.005 -0.061,0.011 -0.076,0.018c-0.015,0.006 -0.027,0.016 -0.035,0.028c-0.008,0.013 -0.012,0.027 -0.012,0.042c-0,0.023 0.009,0.043 0.026,0.058c0.018,0.016 0.044,0.024 0.078,0.024c0.034,-0 0.064,-0.007 0.091,-0.022c0.026,-0.015 0.045,-0.035 0.058,-0.061c0.009,-0.02 0.014,-0.049 0.014,-0.088l-0,-0.032Z" style="fill:#6d6d6d;fill-rule:nonzero;"/></g><g transform="matrix(192,0,0,192,1612.77,805.891)"><rect x="0.064" y="-0.716" width="0.088" height="0.716" style="fill:#6d6d6d;fill-rule:nonzero;"/></g><g transform="matrix(192,0,0,192,1655.42,805.891)"><path d="M0.066,-0l-0,-0.519l0.079,0l0,0.074c0.038,-0.057 0.093,-0.085 0.165,-0.085c0.031,-0 0.06,0.005 0.086,0.017c0.026,0.011 0.046,0.026 0.059,0.044c0.013,0.018 0.022,0.04 0.027,0.065c0.004,0.016 0.005,0.044 0.005,0.085l0,0.319l-0.088,-0l0,-0.315c0,-0.036 -0.003,-0.063 -0.01,-0.081c-0.007,-0.017 -0.019,-0.032 -0.036,-0.042c-0.018,-0.011 -0.038,-0.016 -0.061,-0.016c-0.038,-0 -0.07,0.012 -0.098,0.036c-0.027,0.023 -0.04,0.068 -0.04,0.135l-0,0.283l-0.088,-0Z" style="fill:#6d6d6d;fill-rule:nonzero;"/></g><g transform="matrix(192,0,0,192,1762.21,805.891)"><path d="M0.421,-0.167l0.091,0.011c-0.015,0.053 -0.041,0.094 -0.08,0.124c-0.039,0.029 -0.088,0.044 -0.148,0.044c-0.076,-0 -0.136,-0.024 -0.181,-0.07c-0.044,-0.047 -0.066,-0.113 -0.066,-0.197c-0,-0.087 0.022,-0.155 0.067,-0.203c0.045,-0.048 0.103,-0.072 0.175,-0.072c0.069,-0 0.126,0.023 0.17,0.071c0.044,0.047 0.066,0.113 0.066,0.199c-0,0.005 -0.001,0.013 -0.001,0.023l-0.387,0c0.004,0.057 0.02,0.101 0.049,0.131c0.029,0.03 0.065,0.045 0.108,0.045c0.032,0 0.06,-0.008 0.083,-0.025c0.022,-0.017 0.041,-0.044 0.054,-0.081Zm-0.289,-0.142l0.29,-0c-0.004,-0.044 -0.015,-0.076 -0.033,-0.098c-0.028,-0.034 -0.065,-0.051 -0.109,-0.051c-0.041,-0 -0.075,0.014 -0.102,0.041c-0.028,0.027 -0.043,0.063 -0.046,0.108Z" style="fill:#6d6d6d;fill-rule:nonzero;"/></g><g transform="matrix(192,0,0,192,1868.99,805.891)"><path d="M0.065,-0.614l0,-0.102l0.088,0l0,0.102l-0.088,0Zm-0.111,0.815l0.017,-0.075c0.017,0.005 0.031,0.007 0.041,0.007c0.018,0 0.031,-0.006 0.04,-0.018c0.009,-0.011 0.013,-0.041 0.013,-0.089l0,-0.545l0.088,0l0,0.547c0,0.064 -0.008,0.109 -0.025,0.134c-0.021,0.032 -0.056,0.048 -0.105,0.048c-0.024,0 -0.047,-0.003 -0.069,-0.009Z" style="fill:#6d6d6d;fill-rule:nonzero;"/></g></g></g><g transform="matrix(1,0,0,1,-529.008,291.196)"><g><g transform="matrix(64,0,0,64,820.643,714.419)"><path d="M0.477,-0.544c0,-0.024 -0.001,-0.041 -0.003,-0.051c-0.002,-0.009 -0.006,-0.017 -0.013,-0.023c-0.006,-0.006 -0.018,-0.011 -0.036,-0.016l0,-0.033l0.215,0l0,0.033c-0.012,0.003 -0.021,0.007 -0.028,0.01c-0.007,0.004 -0.012,0.009 -0.015,0.016c-0.004,0.007 -0.006,0.015 -0.007,0.025c-0.001,0.011 -0.002,0.023 -0.002,0.039l0,0.305c0,0.041 -0.003,0.074 -0.009,0.102c-0.007,0.027 -0.017,0.05 -0.031,0.068c-0.013,0.019 -0.03,0.034 -0.051,0.045c-0.02,0.011 -0.043,0.02 -0.068,0.024c-0.026,0.005 -0.054,0.008 -0.086,0.008c-0.046,-0 -0.085,-0.005 -0.117,-0.014c-0.032,-0.01 -0.058,-0.025 -0.078,-0.044c-0.02,-0.019 -0.035,-0.043 -0.044,-0.071c-0.01,-0.027 -0.015,-0.063 -0.015,-0.107l0,-0.315c0,-0.016 -0,-0.029 -0.001,-0.039c-0.001,-0.01 -0.003,-0.019 -0.006,-0.025c-0.004,-0.007 -0.009,-0.012 -0.016,-0.016c-0.007,-0.004 -0.017,-0.008 -0.029,-0.011l0,-0.033l0.256,0l0,0.033c-0.013,0.003 -0.023,0.007 -0.029,0.011c-0.007,0.004 -0.011,0.009 -0.014,0.015c-0.004,0.006 -0.006,0.014 -0.007,0.023c-0.002,0.009 -0.002,0.023 -0.002,0.042l-0,0.322c-0,0.026 0.001,0.049 0.005,0.07c0.003,0.021 0.009,0.04 0.017,0.055c0.009,0.015 0.021,0.026 0.036,0.034c0.016,0.009 0.035,0.013 0.059,0.013c0.034,-0 0.058,-0.007 0.075,-0.02c0.016,-0.014 0.027,-0.032 0.034,-0.056c0.007,-0.024 0.01,-0.06 0.01,-0.107l0,-0.312Z" style="fill:#6d6d6d;fill-rule:nonzero;"/></g><g transform="matrix(64,0,0,64,863.924,714.419)"><path d="M0.573,-0l-0.237,-0l-0,-0.032c0.015,-0.004 0.025,-0.009 0.031,-0.016c0.006,-0.007 0.01,-0.016 0.012,-0.028c0.002,-0.012 0.003,-0.034 0.003,-0.065l0,-0.13c0,-0.023 -0,-0.042 -0.001,-0.057c-0.001,-0.015 -0.003,-0.027 -0.005,-0.036c-0.002,-0.01 -0.005,-0.018 -0.009,-0.024c-0.003,-0.006 -0.007,-0.011 -0.012,-0.015c-0.005,-0.005 -0.01,-0.008 -0.016,-0.01c-0.006,-0.002 -0.013,-0.003 -0.022,-0.003c-0.012,0 -0.025,0.004 -0.039,0.012c-0.013,0.008 -0.024,0.018 -0.033,0.032c-0.009,0.013 -0.014,0.028 -0.014,0.043l-0,0.188c-0,0.031 0.001,0.052 0.003,0.064c0.002,0.012 0.006,0.022 0.012,0.029c0.006,0.007 0.017,0.012 0.032,0.016l-0,0.032l-0.236,0l-0,-0.032c0.016,-0.004 0.026,-0.01 0.032,-0.017c0.006,-0.007 0.01,-0.016 0.012,-0.028c0.003,-0.011 0.004,-0.033 0.004,-0.064l-0,-0.2c-0,-0.024 -0.001,-0.042 -0.002,-0.054c-0,-0.011 -0.002,-0.021 -0.005,-0.027c-0.003,-0.008 -0.008,-0.013 -0.015,-0.017c-0.006,-0.005 -0.017,-0.009 -0.032,-0.012l-0,-0.033l0.133,-0.004l0.062,-0l-0.007,0.07l0.005,0.001c0.021,-0.017 0.038,-0.031 0.054,-0.041c0.015,-0.011 0.031,-0.019 0.048,-0.025c0.016,-0.006 0.034,-0.009 0.053,-0.009c0.026,-0 0.049,0.004 0.066,0.012c0.018,0.007 0.032,0.018 0.043,0.033c0.011,0.014 0.019,0.032 0.023,0.053c0.005,0.022 0.007,0.046 0.007,0.074l0,0.179c0,0.014 0.001,0.028 0.001,0.04c0.001,0.013 0.002,0.023 0.004,0.03c0.002,0.008 0.004,0.014 0.008,0.019c0.003,0.004 0.008,0.008 0.014,0.011c0.006,0.004 0.014,0.006 0.023,0.009l-0,0.032Z" style="fill:#6d6d6d;fill-rule:nonzero;"/></g><g transform="matrix(64,0,0,64,902.549,714.419)"><path d="M0.227,-0.679l0,0.119l-0.134,0l0,-0.119l0.134,-0Zm-0.185,0.647c0.015,-0.004 0.026,-0.01 0.032,-0.017c0.006,-0.007 0.01,-0.016 0.012,-0.028c0.003,-0.011 0.004,-0.033 0.004,-0.064l-0,-0.227c-0,-0.016 -0.001,-0.028 -0.003,-0.038c-0.001,-0.01 -0.004,-0.018 -0.008,-0.024c-0.004,-0.006 -0.009,-0.01 -0.017,-0.013c-0.006,-0.003 -0.015,-0.006 -0.026,-0.008l-0,-0.033l0.134,-0.004l0.061,-0l-0,0.347c-0,0.018 0,0.032 0,0.042c0.001,0.01 0.002,0.018 0.003,0.023c0.001,0.006 0.002,0.01 0.004,0.014c0.002,0.005 0.004,0.009 0.007,0.012c0.003,0.004 0.007,0.007 0.013,0.01c0.005,0.003 0.013,0.005 0.022,0.008l-0,0.032l-0.238,-0l-0,-0.032Z" style="fill:#6d6d6d;fill-rule:nonzero;"/></g><g transform="matrix(64,0,0,64,921.268,714.419)"><path d="M0.489,0.005l-0.092,-0.315l-0.107,0.315l-0.099,-0l-0.118,-0.372c-0.007,-0.022 -0.013,-0.039 -0.018,-0.049c-0.005,-0.01 -0.011,-0.018 -0.017,-0.024c-0.006,-0.006 -0.014,-0.01 -0.025,-0.012l0,-0.032l0.239,-0l-0,0.032c-0.015,0.002 -0.027,0.007 -0.035,0.014c-0.007,0.007 -0.011,0.016 -0.011,0.028c0,0.008 0.001,0.017 0.004,0.027c0.003,0.01 0.005,0.02 0.009,0.031l0.061,0.203l0.112,-0.335l0.091,-0l0.095,0.335l0.064,-0.176c0.006,-0.018 0.011,-0.033 0.013,-0.045c0.002,-0.012 0.004,-0.022 0.004,-0.031c-0,-0.014 -0.004,-0.025 -0.012,-0.034c-0.008,-0.009 -0.019,-0.015 -0.033,-0.017l-0,-0.032l0.184,-0l-0,0.032c-0.01,0.003 -0.018,0.007 -0.023,0.011c-0.005,0.003 -0.01,0.009 -0.015,0.016c-0.005,0.007 -0.01,0.016 -0.016,0.029c-0.006,0.014 -0.015,0.035 -0.026,0.063l-0.132,0.338l-0.097,-0Z" style="fill:#6d6d6d;fill-rule:nonzero;"/></g><g transform="matrix(64,0,0,64,970.799,714.419)"><path d="M0.484,-0.089c-0.033,0.035 -0.066,0.06 -0.099,0.075c-0.032,0.014 -0.07,0.022 -0.112,0.022c-0.076,-0 -0.133,-0.021 -0.171,-0.062c-0.039,-0.042 -0.058,-0.104 -0.058,-0.185c0,-0.053 0.01,-0.098 0.03,-0.136c0.02,-0.039 0.048,-0.068 0.084,-0.087c0.036,-0.02 0.078,-0.03 0.126,-0.03c0.029,-0 0.055,0.003 0.077,0.01c0.023,0.007 0.042,0.017 0.058,0.029c0.016,0.012 0.029,0.027 0.039,0.044c0.013,0.02 0.022,0.044 0.028,0.07c0.007,0.027 0.01,0.06 0.011,0.098l-0.31,0c0,0.059 0.011,0.103 0.031,0.131c0.021,0.027 0.053,0.041 0.095,0.041c0.025,0 0.047,-0.004 0.067,-0.014c0.02,-0.009 0.041,-0.025 0.064,-0.049l0.04,0.043Zm-0.132,-0.204c-0.001,-0.05 -0.008,-0.087 -0.019,-0.112c-0.012,-0.024 -0.031,-0.036 -0.057,-0.036c-0.025,-0 -0.045,0.012 -0.06,0.038c-0.015,0.025 -0.024,0.062 -0.027,0.11l0.163,-0Z" style="fill:#6d6d6d;fill-rule:nonzero;"/></g><g transform="matrix(64,0,0,64,1004.77,714.419)"><path d="M0.224,-0.415l0.006,0.002c0.024,-0.028 0.049,-0.048 0.074,-0.061c0.025,-0.012 0.052,-0.018 0.081,-0.018c0.02,-0 0.041,0.002 0.063,0.006l-0,0.135l-0.089,-0c-0.005,-0.019 -0.012,-0.033 -0.022,-0.044c-0.008,-0.01 -0.02,-0.015 -0.035,-0.015c-0.007,0 -0.015,0.003 -0.024,0.007c-0.009,0.004 -0.017,0.011 -0.024,0.019c-0.007,0.008 -0.012,0.016 -0.016,0.024c-0.003,0.008 -0.005,0.017 -0.006,0.025c-0.001,0.009 -0.001,0.021 -0.001,0.038l-0,0.156c-0,0.031 0.001,0.052 0.003,0.065c0.003,0.012 0.007,0.022 0.014,0.029c0.007,0.007 0.018,0.012 0.035,0.015l-0,0.032l-0.241,-0l-0,-0.032c0.016,-0.004 0.026,-0.01 0.032,-0.017c0.006,-0.007 0.01,-0.016 0.012,-0.028c0.003,-0.011 0.004,-0.033 0.004,-0.064l-0,-0.2c-0,-0.024 -0.001,-0.042 -0.002,-0.054c-0,-0.011 -0.002,-0.021 -0.005,-0.027c-0.003,-0.008 -0.008,-0.013 -0.015,-0.017c-0.006,-0.005 -0.017,-0.009 -0.032,-0.012l-0,-0.033l0.133,-0.004l0.062,-0l-0.007,0.073Z" style="fill:#6d6d6d;fill-rule:nonzero;"/></g><g transform="matrix(64,0,0,64,1034.3,714.419)"><path d="M0.105,-0.132c0.008,0.03 0.02,0.052 0.037,0.067c0.017,0.015 0.04,0.022 0.068,0.022c0.024,0 0.043,-0.006 0.055,-0.017c0.013,-0.011 0.019,-0.027 0.019,-0.048c0,-0.013 -0.003,-0.025 -0.009,-0.034c-0.005,-0.01 -0.015,-0.018 -0.028,-0.027c-0.013,-0.009 -0.035,-0.02 -0.067,-0.034c-0.018,-0.008 -0.035,-0.017 -0.051,-0.026c-0.016,-0.009 -0.029,-0.02 -0.041,-0.032c-0.012,-0.012 -0.021,-0.025 -0.028,-0.04c-0.007,-0.014 -0.01,-0.031 -0.01,-0.049c-0,-0.029 0.008,-0.054 0.025,-0.076c0.017,-0.021 0.041,-0.038 0.072,-0.049c0.032,-0.011 0.068,-0.017 0.108,-0.017c0.024,-0 0.047,0.001 0.07,0.003c0.023,0.002 0.052,0.006 0.089,0.012l-0,0.114l-0.065,0c-0.007,-0.021 -0.016,-0.037 -0.025,-0.048c-0.009,-0.012 -0.018,-0.019 -0.029,-0.024c-0.011,-0.004 -0.024,-0.006 -0.039,-0.006c-0.021,-0 -0.038,0.004 -0.051,0.014c-0.013,0.01 -0.019,0.024 -0.019,0.041c0,0.013 0.002,0.023 0.007,0.032c0.004,0.009 0.013,0.017 0.024,0.026c0.012,0.008 0.035,0.019 0.068,0.033c0.031,0.013 0.056,0.026 0.075,0.04c0.019,0.014 0.034,0.03 0.044,0.048c0.01,0.018 0.015,0.039 0.015,0.063c-0,0.026 -0.005,0.049 -0.015,0.068c-0.009,0.019 -0.023,0.035 -0.041,0.047c-0.017,0.013 -0.038,0.022 -0.063,0.028c-0.025,0.006 -0.052,0.009 -0.081,0.009c-0.054,-0 -0.114,-0.008 -0.179,-0.023l-0,-0.117l0.065,0Z" style="fill:#6d6d6d;fill-rule:nonzero;"/></g><g transform="matrix(64,0,0,64,1063.21,714.419)"><path d="M0.288,0.022c-0.021,0.047 -0.041,0.084 -0.06,0.111c-0.019,0.027 -0.039,0.047 -0.061,0.06c-0.021,0.014 -0.048,0.02 -0.08,0.02c-0.025,0 -0.047,-0.003 -0.068,-0.009l-0,-0.112l0.054,0c0.004,0.016 0.01,0.026 0.016,0.032c0.006,0.005 0.015,0.008 0.027,0.008c0.012,0 0.023,-0.003 0.033,-0.01c0.01,-0.007 0.021,-0.02 0.034,-0.039c0.012,-0.018 0.028,-0.046 0.046,-0.083l-0.028,0l-0.127,-0.367c-0.009,-0.025 -0.017,-0.043 -0.022,-0.052c-0.005,-0.01 -0.011,-0.018 -0.018,-0.022c-0.007,-0.006 -0.015,-0.009 -0.025,-0.011l0,-0.032l0.244,-0l-0,0.032c-0.015,0.003 -0.027,0.007 -0.034,0.013c-0.007,0.006 -0.011,0.015 -0.011,0.026c0,0.016 0.005,0.036 0.013,0.061l0.071,0.214l0.077,-0.187c0.007,-0.016 0.012,-0.029 0.015,-0.041c0.003,-0.012 0.005,-0.024 0.005,-0.035c-0,-0.014 -0.004,-0.025 -0.012,-0.034c-0.008,-0.009 -0.019,-0.015 -0.033,-0.017l-0,-0.032l0.19,-0l-0,0.032c-0.01,0.003 -0.017,0.007 -0.023,0.011c-0.006,0.004 -0.011,0.01 -0.016,0.017c-0.005,0.007 -0.011,0.017 -0.018,0.03c-0.008,0.014 -0.017,0.034 -0.03,0.061l-0.159,0.355Z" style="fill:#6d6d6d;fill-rule:nonzero;"/></g><g transform="matrix(64,0,0,64,1097.17,714.419)"><path d="M0.376,-0.059c-0.029,0.025 -0.055,0.042 -0.078,0.052c-0.024,0.01 -0.048,0.015 -0.074,0.015c-0.049,-0 -0.085,-0.013 -0.109,-0.039c-0.024,-0.027 -0.036,-0.066 -0.036,-0.119l0,-0.273l-0.061,-0l0,-0.034c0.02,-0.003 0.035,-0.008 0.044,-0.015c0.009,-0.006 0.017,-0.015 0.022,-0.026c0.005,-0.011 0.009,-0.025 0.012,-0.043c0.003,-0.017 0.006,-0.039 0.008,-0.065l0.116,-0l0,0.122l0.139,-0l0,0.061l-0.139,-0l0,0.22c0,0.037 0.002,0.064 0.005,0.081c0.004,0.018 0.01,0.031 0.018,0.039c0.008,0.009 0.018,0.013 0.03,0.013c0.009,-0 0.017,-0.001 0.024,-0.003c0.008,-0.001 0.015,-0.004 0.023,-0.009c0.008,-0.004 0.016,-0.01 0.025,-0.018l0.031,0.041Z" style="fill:#6d6d6d;fill-rule:nonzero;"/></g><g transform="matrix(64,0,0,64,1119.67,714.419)"><path d="M0.484,-0.089c-0.033,0.035 -0.066,0.06 -0.099,0.075c-0.032,0.014 -0.07,0.022 -0.112,0.022c-0.076,-0 -0.133,-0.021 -0.171,-0.062c-0.039,-0.042 -0.058,-0.104 -0.058,-0.185c0,-0.053 0.01,-0.098 0.03,-0.136c0.02,-0.039 0.048,-0.068 0.084,-0.087c0.036,-0.02 0.078,-0.03 0.126,-0.03c0.029,-0 0.055,0.003 0.077,0.01c0.023,0.007 0.042,0.017 0.058,0.029c0.016,0.012 0.029,0.027 0.039,0.044c0.013,0.02 0.022,0.044 0.028,0.07c0.007,0.027 0.01,0.06 0.011,0.098l-0.31,0c0,0.059 0.011,0.103 0.031,0.131c0.021,0.027 0.053,0.041 0.095,0.041c0.025,0 0.047,-0.004 0.067,-0.014c0.02,-0.009 0.041,-0.025 0.064,-0.049l0.04,0.043Zm-0.132,-0.204c-0.001,-0.05 -0.008,-0.087 -0.019,-0.112c-0.012,-0.024 -0.031,-0.036 -0.057,-0.036c-0.025,-0 -0.045,0.012 -0.06,0.038c-0.015,0.025 -0.024,0.062 -0.027,0.11l0.163,-0Z" style="fill:#6d6d6d;fill-rule:nonzero;"/></g><g transform="matrix(64,0,0,64,1153.64,714.419)"><path d="M0.376,-0.059c-0.029,0.025 -0.055,0.042 -0.078,0.052c-0.024,0.01 -0.048,0.015 -0.074,0.015c-0.049,-0 -0.085,-0.013 -0.109,-0.039c-0.024,-0.027 -0.036,-0.066 -0.036,-0.119l0,-0.273l-0.061,-0l0,-0.034c0.02,-0.003 0.035,-0.008 0.044,-0.015c0.009,-0.006 0.017,-0.015 0.022,-0.026c0.005,-0.011 0.009,-0.025 0.012,-0.043c0.003,-0.017 0.006,-0.039 0.008,-0.065l0.116,-0l0,0.122l0.139,-0l0,0.061l-0.139,-0l0,0.22c0,0.037 0.002,0.064 0.005,0.081c0.004,0.018 0.01,0.031 0.018,0.039c0.008,0.009 0.018,0.013 0.03,0.013c0.009,-0 0.017,-0.001 0.024,-0.003c0.008,-0.001 0.015,-0.004 0.023,-0.009c0.008,-0.004 0.016,-0.01 0.025,-0.018l0.031,0.041Z" style="fill:#6d6d6d;fill-rule:nonzero;"/></g><g transform="matrix(64,0,0,64,1191.11,714.419)"><path d="M0.799,-0.634c-0.017,0.005 -0.029,0.01 -0.035,0.016c-0.007,0.005 -0.011,0.013 -0.014,0.023c-0.002,0.009 -0.003,0.026 -0.003,0.051l0,0.422c0,0.02 0.001,0.036 0.003,0.047c0.002,0.012 0.006,0.02 0.012,0.027c0.006,0.006 0.018,0.011 0.037,0.016l-0,0.032l-0.251,-0l0,-0.032c0.015,-0.004 0.025,-0.008 0.03,-0.01c0.006,-0.003 0.01,-0.007 0.013,-0.012c0.003,-0.005 0.005,-0.012 0.007,-0.021c0.001,-0.01 0.002,-0.026 0.002,-0.048l0,-0.239c0,-0.027 0.001,-0.058 0.002,-0.094c0.001,-0.035 0.002,-0.061 0.002,-0.076l-0.01,0c-0.004,0.013 -0.008,0.026 -0.012,0.039c-0.005,0.012 -0.013,0.035 -0.025,0.067l-0.131,0.352l-0.086,0l-0.137,-0.396c-0.009,-0.022 -0.016,-0.044 -0.022,-0.067l-0.009,0c0.004,0.054 0.005,0.118 0.005,0.191l0,0.224c0,0.025 0.001,0.041 0.004,0.051c0.002,0.009 0.006,0.017 0.013,0.023c0.007,0.006 0.019,0.012 0.036,0.016l-0,0.032l-0.185,-0l0,-0.032c0.012,-0.003 0.022,-0.007 0.029,-0.011c0.007,-0.004 0.012,-0.009 0.016,-0.016c0.003,-0.006 0.006,-0.014 0.006,-0.024c0.001,-0.011 0.002,-0.023 0.002,-0.039l-0,-0.422c-0,-0.025 -0.001,-0.042 -0.004,-0.051c-0.002,-0.009 -0.006,-0.017 -0.012,-0.023c-0.006,-0.006 -0.018,-0.011 -0.037,-0.016l0,-0.033l0.243,0l0.135,0.401l0.147,-0.401l0.229,0l-0,0.033Z" style="fill:#6d6d6d;fill-rule:nonzero;"/></g><g transform="matrix(64,0,0,64,1245.27,714.419)"><path d="M0.484,-0.089c-0.033,0.035 -0.066,0.06 -0.099,0.075c-0.032,0.014 -0.07,0.022 -0.112,0.022c-0.076,-0 -0.133,-0.021 -0.171,-0.062c-0.039,-0.042 -0.058,-0.104 -0.058,-0.185c0,-0.053 0.01,-0.098 0.03,-0.136c0.02,-0.039 0.048,-0.068 0.084,-0.087c0.036,-0.02 0.078,-0.03 0.126,-0.03c0.029,-0 0.055,0.003 0.077,0.01c0.023,0.007 0.042,0.017 0.058,0.029c0.016,0.012 0.029,0.027 0.039,0.044c0.013,0.02 0.022,0.044 0.028,0.07c0.007,0.027 0.01,0.06 0.011,0.098l-0.31,0c0,0.059 0.011,0.103 0.031,0.131c0.021,0.027 0.053,0.041 0.095,0.041c0.025,0 0.047,-0.004 0.067,-0.014c0.02,-0.009 0.041,-0.025 0.064,-0.049l0.04,0.043Zm-0.132,-0.204c-0.001,-0.05 -0.008,-0.087 -0.019,-0.112c-0.012,-0.024 -0.031,-0.036 -0.057,-0.036c-0.025,-0 -0.045,0.012 -0.06,0.038c-0.015,0.025 -0.024,0.062 -0.027,0.11l0.163,-0Z" style="fill:#6d6d6d;fill-rule:nonzero;"/></g><g transform="matrix(64,0,0,64,1279.24,714.419)"><path d="M0.514,-0.143c-0,0.025 -0,0.043 0.001,0.055c0.001,0.011 0.003,0.02 0.006,0.027c0.002,0.007 0.007,0.012 0.014,0.017c0.006,0.004 0.017,0.008 0.032,0.011l0,0.033l-0.132,0.004l-0.06,0l0.005,-0.07l-0.007,-0c-0.024,0.023 -0.049,0.042 -0.075,0.055c-0.025,0.012 -0.05,0.019 -0.074,0.019c-0.059,-0 -0.104,-0.021 -0.133,-0.061c-0.029,-0.041 -0.044,-0.102 -0.044,-0.184c-0,-0.055 0.009,-0.102 0.027,-0.139c0.018,-0.039 0.044,-0.067 0.079,-0.087c0.036,-0.019 0.078,-0.029 0.128,-0.029c0.015,-0 0.029,0.001 0.042,0.003c0.014,0.001 0.031,0.005 0.05,0.01l-0,-0.044c-0,-0.035 -0.001,-0.06 -0.002,-0.074c-0.001,-0.015 -0.003,-0.026 -0.006,-0.033c-0.003,-0.008 -0.008,-0.014 -0.014,-0.018c-0.006,-0.005 -0.017,-0.008 -0.034,-0.012l0,-0.032l0.136,-0.007l0.061,-0l-0,0.556Zm-0.141,-0.181c-0,-0.04 -0.007,-0.069 -0.02,-0.089c-0.014,-0.019 -0.034,-0.028 -0.062,-0.028c-0.02,-0 -0.038,0.007 -0.052,0.022c-0.015,0.014 -0.025,0.035 -0.033,0.062c-0.007,0.027 -0.011,0.06 -0.011,0.097c0,0.064 0.007,0.112 0.021,0.144c0.014,0.031 0.036,0.047 0.066,0.047c0.014,0 0.028,-0.003 0.041,-0.01c0.014,-0.007 0.026,-0.018 0.035,-0.032c0.01,-0.015 0.015,-0.032 0.015,-0.051l-0,-0.162Z" style="fill:#6d6d6d;fill-rule:nonzero;"/></g><g transform="matrix(64,0,0,64,1315.77,714.419)"><path d="M0.288,0.022c-0.021,0.047 -0.041,0.084 -0.06,0.111c-0.019,0.027 -0.039,0.047 -0.061,0.06c-0.021,0.014 -0.048,0.02 -0.08,0.02c-0.025,0 -0.047,-0.003 -0.068,-0.009l-0,-0.112l0.054,0c0.004,0.016 0.01,0.026 0.016,0.032c0.006,0.005 0.015,0.008 0.027,0.008c0.012,0 0.023,-0.003 0.033,-0.01c0.01,-0.007 0.021,-0.02 0.034,-0.039c0.012,-0.018 0.028,-0.046 0.046,-0.083l-0.028,0l-0.127,-0.367c-0.009,-0.025 -0.017,-0.043 -0.022,-0.052c-0.005,-0.01 -0.011,-0.018 -0.018,-0.022c-0.007,-0.006 -0.015,-0.009 -0.025,-0.011l0,-0.032l0.244,-0l-0,0.032c-0.015,0.003 -0.027,0.007 -0.034,0.013c-0.007,0.006 -0.011,0.015 -0.011,0.026c0,0.016 0.005,0.036 0.013,0.061l0.071,0.214l0.077,-0.187c0.007,-0.016 0.012,-0.029 0.015,-0.041c0.003,-0.012 0.005,-0.024 0.005,-0.035c-0,-0.014 -0.004,-0.025 -0.012,-0.034c-0.008,-0.009 -0.019,-0.015 -0.033,-0.017l-0,-0.032l0.19,-0l-0,0.032c-0.01,0.003 -0.017,0.007 -0.023,0.011c-0.006,0.004 -0.011,0.01 -0.016,0.017c-0.005,0.007 -0.011,0.017 -0.018,0.03c-0.008,0.014 -0.017,0.034 -0.03,0.061l-0.159,0.355Z" style="fill:#6d6d6d;fill-rule:nonzero;"/></g><g transform="matrix(64,0,0,64,1347.92,714.419)"><path d="M0.414,-0.125l0.038,0.045c-0.032,0.032 -0.063,0.054 -0.093,0.068c-0.03,0.013 -0.062,0.02 -0.097,0.02c-0.071,-0 -0.125,-0.021 -0.162,-0.062c-0.037,-0.042 -0.056,-0.102 -0.056,-0.181c0,-0.054 0.011,-0.1 0.031,-0.139c0.02,-0.039 0.05,-0.068 0.088,-0.088c0.038,-0.02 0.081,-0.03 0.13,-0.03c0.027,-0 0.053,0.002 0.079,0.006c0.026,0.003 0.05,0.008 0.072,0.015l-0,0.117l-0.097,0c-0.005,-0.03 -0.012,-0.052 -0.022,-0.066c-0.01,-0.014 -0.024,-0.021 -0.042,-0.021c-0.012,-0 -0.023,0.003 -0.034,0.009c-0.011,0.006 -0.021,0.016 -0.029,0.031c-0.008,0.015 -0.015,0.035 -0.02,0.06c-0.005,0.024 -0.007,0.056 -0.007,0.094c-0,0.038 0.003,0.07 0.011,0.097c0.007,0.026 0.018,0.046 0.034,0.06c0.016,0.014 0.037,0.021 0.063,0.021c0.019,0 0.037,-0.004 0.053,-0.012c0.017,-0.008 0.037,-0.023 0.06,-0.044Z" style="fill:#6d6d6d;fill-rule:nonzero;"/></g><g transform="matrix(64,0,0,64,1377.92,714.419)"><path d="M0.197,-0.052l0.103,0c0.014,0 0.027,-0.003 0.037,-0.009c0.01,-0.006 0.02,-0.017 0.028,-0.032c0.008,-0.016 0.016,-0.037 0.023,-0.064l0.059,-0l0,0.157l-0.415,-0l0,-0.032l0.25,-0.401l-0.097,0c-0.016,0 -0.028,0.003 -0.038,0.008c-0.009,0.005 -0.018,0.014 -0.025,0.027c-0.008,0.012 -0.017,0.033 -0.027,0.062l-0.059,0l-0,-0.148l0.411,-0l-0,0.032l-0.25,0.4Z" style="fill:#6d6d6d;fill-rule:nonzero;"/></g><g transform="matrix(64,0,0,64,1408.58,714.419)"><path d="M0.573,-0l-0.237,-0l-0,-0.032c0.015,-0.004 0.025,-0.009 0.031,-0.016c0.006,-0.007 0.01,-0.016 0.012,-0.028c0.002,-0.012 0.003,-0.034 0.003,-0.065l0,-0.13c0,-0.023 -0,-0.042 -0.001,-0.057c-0.001,-0.015 -0.003,-0.027 -0.005,-0.036c-0.002,-0.01 -0.005,-0.018 -0.009,-0.024c-0.003,-0.006 -0.007,-0.011 -0.012,-0.015c-0.005,-0.005 -0.01,-0.008 -0.016,-0.01c-0.006,-0.002 -0.013,-0.003 -0.022,-0.003c-0.012,0 -0.025,0.004 -0.039,0.012c-0.013,0.008 -0.024,0.018 -0.033,0.032c-0.009,0.013 -0.014,0.028 -0.014,0.043l-0,0.188c-0,0.031 0.001,0.052 0.003,0.064c0.002,0.012 0.006,0.022 0.012,0.029c0.006,0.007 0.017,0.012 0.032,0.016l-0,0.032l-0.236,0l-0,-0.032c0.016,-0.004 0.026,-0.01 0.032,-0.017c0.006,-0.007 0.01,-0.016 0.012,-0.028c0.003,-0.011 0.004,-0.033 0.004,-0.064l-0,-0.2c-0,-0.024 -0.001,-0.042 -0.002,-0.054c-0,-0.011 -0.002,-0.021 -0.005,-0.027c-0.003,-0.008 -0.008,-0.013 -0.015,-0.017c-0.006,-0.005 -0.017,-0.009 -0.032,-0.012l-0,-0.033l0.133,-0.004l0.062,-0l-0.007,0.07l0.005,0.001c0.021,-0.017 0.038,-0.031 0.054,-0.041c0.015,-0.011 0.031,-0.019 0.048,-0.025c0.016,-0.006 0.034,-0.009 0.053,-0.009c0.026,-0 0.049,0.004 0.066,0.012c0.018,0.007 0.032,0.018 0.043,0.033c0.011,0.014 0.019,0.032 0.023,0.053c0.005,0.022 0.007,0.046 0.007,0.074l0,0.179c0,0.014 0.001,0.028 0.001,0.04c0.001,0.013 0.002,0.023 0.004,0.03c0.002,0.008 0.004,0.014 0.008,0.019c0.003,0.004 0.008,0.008 0.014,0.011c0.006,0.004 0.014,0.006 0.023,0.009l-0,0.032Z" style="fill:#6d6d6d;fill-rule:nonzero;"/></g><g transform="matrix(64,0,0,64,1445.17,714.419)"><path d="M0.288,0.022c-0.021,0.047 -0.041,0.084 -0.06,0.111c-0.019,0.027 -0.039,0.047 -0.061,0.06c-0.021,0.014 -0.048,0.02 -0.08,0.02c-0.025,0 -0.047,-0.003 -0.068,-0.009l-0,-0.112l0.054,0c0.004,0.016 0.01,0.026 0.016,0.032c0.006,0.005 0.015,0.008 0.027,0.008c0.012,0 0.023,-0.003 0.033,-0.01c0.01,-0.007 0.021,-0.02 0.034,-0.039c0.012,-0.018 0.028,-0.046 0.046,-0.083l-0.028,0l-0.127,-0.367c-0.009,-0.025 -0.017,-0.043 -0.022,-0.052c-0.005,-0.01 -0.011,-0.018 -0.018,-0.022c-0.007,-0.006 -0.015,-0.009 -0.025,-0.011l0,-0.032l0.244,-0l-0,0.032c-0.015,0.003 -0.027,0.007 -0.034,0.013c-0.007,0.006 -0.011,0.015 -0.011,0.026c0,0.016 0.005,0.036 0.013,0.061l0.071,0.214l0.077,-0.187c0.007,-0.016 0.012,-0.029 0.015,-0.041c0.003,-0.012 0.005,-0.024 0.005,-0.035c-0,-0.014 -0.004,-0.025 -0.012,-0.034c-0.008,-0.009 -0.019,-0.015 -0.033,-0.017l-0,-0.032l0.19,-0l-0,0.032c-0.01,0.003 -0.017,0.007 -0.023,0.011c-0.006,0.004 -0.011,0.01 -0.016,0.017c-0.005,0.007 -0.011,0.017 -0.018,0.03c-0.008,0.014 -0.017,0.034 -0.03,0.061l-0.159,0.355Z" style="fill:#6d6d6d;fill-rule:nonzero;"/></g><g transform="matrix(64,0,0,64,1493.24,714.419)"><path d="M0.227,-0.679l0,0.119l-0.134,0l0,-0.119l0.134,-0Zm-0.185,0.647c0.015,-0.004 0.026,-0.01 0.032,-0.017c0.006,-0.007 0.01,-0.016 0.012,-0.028c0.003,-0.011 0.004,-0.033 0.004,-0.064l-0,-0.227c-0,-0.016 -0.001,-0.028 -0.003,-0.038c-0.001,-0.01 -0.004,-0.018 -0.008,-0.024c-0.004,-0.006 -0.009,-0.01 -0.017,-0.013c-0.006,-0.003 -0.015,-0.006 -0.026,-0.008l-0,-0.033l0.134,-0.004l0.061,-0l-0,0.347c-0,0.018 0,0.032 0,0.042c0.001,0.01 0.002,0.018 0.003,0.023c0.001,0.006 0.002,0.01 0.004,0.014c0.002,0.005 0.004,0.009 0.007,0.012c0.003,0.004 0.007,0.007 0.013,0.01c0.005,0.003 0.013,0.005 0.022,0.008l-0,0.032l-0.238,-0l-0,-0.032Z" style="fill:#6d6d6d;fill-rule:nonzero;"/></g><g transform="matrix(64,0,0,64,1513.36,714.419)"><path d="M0.224,-0.418l0.005,0.001c0.03,-0.027 0.057,-0.047 0.081,-0.058c0.023,-0.011 0.048,-0.017 0.072,-0.017c0.024,-0 0.044,0.003 0.06,0.009c0.016,0.006 0.03,0.015 0.041,0.027c0.011,0.012 0.02,0.028 0.027,0.047c0.033,-0.031 0.061,-0.052 0.085,-0.065c0.025,-0.012 0.05,-0.018 0.076,-0.018c0.026,-0 0.048,0.003 0.065,0.01c0.017,0.007 0.031,0.017 0.042,0.032c0.011,0.014 0.019,0.032 0.024,0.054c0.005,0.021 0.008,0.047 0.008,0.077l0,0.178c0,0.014 0,0.028 0.001,0.04c0,0.013 0.001,0.023 0.003,0.03c0.002,0.008 0.005,0.014 0.008,0.019c0.004,0.004 0.009,0.008 0.015,0.011c0.006,0.004 0.014,0.006 0.022,0.009l0,0.032l-0.235,-0l0,-0.032c0.015,-0.004 0.025,-0.009 0.03,-0.016c0.006,-0.007 0.01,-0.016 0.012,-0.028c0.002,-0.012 0.003,-0.034 0.003,-0.065l-0,-0.13c-0,-0.03 -0.001,-0.054 -0.003,-0.072c-0.002,-0.018 -0.006,-0.033 -0.011,-0.043c-0.006,-0.011 -0.012,-0.018 -0.02,-0.023c-0.008,-0.004 -0.018,-0.007 -0.03,-0.007c-0.008,0 -0.016,0.002 -0.023,0.004c-0.008,0.003 -0.015,0.007 -0.022,0.013c-0.008,0.005 -0.014,0.01 -0.019,0.016c-0.005,0.005 -0.009,0.011 -0.013,0.018c-0.003,0.007 -0.005,0.015 -0.006,0.023c-0.001,0.009 -0.001,0.023 -0.001,0.042l-0,0.159c-0,0.022 -0,0.039 0,0.051c0.001,0.011 0.003,0.021 0.006,0.028c0.002,0.007 0.007,0.013 0.012,0.018c0.006,0.005 0.015,0.009 0.027,0.012l-0,0.032l-0.233,-0l0,-0.032c0.015,-0.004 0.026,-0.009 0.031,-0.016c0.006,-0.007 0.01,-0.016 0.012,-0.028c0.002,-0.012 0.003,-0.033 0.003,-0.065l-0,-0.13c-0,-0.022 -0.001,-0.04 -0.002,-0.055c-0,-0.015 -0.002,-0.027 -0.003,-0.036c-0.002,-0.009 -0.005,-0.017 -0.009,-0.024c-0.003,-0.007 -0.007,-0.012 -0.011,-0.016c-0.005,-0.005 -0.01,-0.008 -0.016,-0.01c-0.006,-0.002 -0.013,-0.004 -0.023,-0.004c-0.012,0 -0.024,0.004 -0.038,0.012c-0.013,0.007 -0.024,0.018 -0.033,0.031c-0.009,0.013 -0.013,0.028 -0.013,0.043l-0,0.189c-0,0.03 0.001,0.052 0.002,0.064c0.002,0.012 0.006,0.022 0.012,0.029c0.006,0.007 0.016,0.012 0.031,0.016l-0,0.032l-0.234,-0l-0,-0.032c0.016,-0.004 0.026,-0.01 0.032,-0.017c0.006,-0.007 0.01,-0.016 0.012,-0.028c0.003,-0.011 0.004,-0.033 0.004,-0.064l-0,-0.2c-0,-0.024 -0.001,-0.042 -0.002,-0.054c-0,-0.011 -0.002,-0.021 -0.005,-0.027c-0.003,-0.008 -0.008,-0.013 -0.015,-0.017c-0.006,-0.005 -0.017,-0.009 -0.032,-0.012l-0,-0.033l0.133,-0.004l0.062,-0l-0.007,0.07Z" style="fill:#6d6d6d;fill-rule:nonzero;"/></g><g transform="matrix(64,0,0,64,1570.33,714.419)"><rect x="0.05" y="-0.147" width="0.131" height="0.147" style="fill:#6d6d6d;fill-rule:nonzero;"/></g><g transform="matrix(64,0,0,64,1599.27,714.419)"><path d="M0.59,-0.13c0.013,0.02 0.023,0.035 0.032,0.047c0.008,0.011 0.016,0.02 0.023,0.027c0.006,0.006 0.012,0.011 0.019,0.015c0.006,0.003 0.015,0.006 0.025,0.009l-0,0.032l-0.265,0l0,-0.032c0.011,-0.002 0.019,-0.004 0.023,-0.008c0.004,-0.004 0.006,-0.009 0.006,-0.015c-0,-0.005 -0.001,-0.01 -0.003,-0.015c-0.001,-0.006 -0.005,-0.013 -0.01,-0.023c-0.006,-0.01 -0.017,-0.027 -0.034,-0.053l-0.074,-0.116c-0.01,-0.014 -0.018,-0.025 -0.024,-0.032c-0.007,-0.008 -0.014,-0.014 -0.02,-0.017c-0.007,-0.004 -0.016,-0.005 -0.028,-0.005l-0.01,-0l0,0.193c0,0.012 0.001,0.022 0.001,0.032c0.001,0.01 0.002,0.018 0.004,0.024c0.002,0.006 0.005,0.011 0.009,0.016c0.004,0.004 0.009,0.008 0.015,0.011c0.007,0.003 0.015,0.005 0.024,0.008l0,0.032l-0.256,0l-0,-0.032c0.012,-0.003 0.021,-0.007 0.028,-0.01c0.007,-0.004 0.013,-0.01 0.016,-0.016c0.003,-0.007 0.006,-0.015 0.007,-0.025c0.001,-0.011 0.001,-0.024 0.001,-0.04l0,-0.42c0,-0.016 -0,-0.029 -0.001,-0.039c-0.001,-0.01 -0.003,-0.019 -0.007,-0.025c-0.003,-0.007 -0.008,-0.012 -0.015,-0.016c-0.007,-0.004 -0.017,-0.008 -0.029,-0.011l-0,-0.033l0.256,0l0,0.033c-0.013,0.003 -0.024,0.007 -0.03,0.011c-0.006,0.005 -0.011,0.01 -0.014,0.016c-0.003,0.005 -0.005,0.013 -0.007,0.022c-0.001,0.009 -0.002,0.023 -0.002,0.042l0,0.173l0.011,0c0.015,0 0.027,-0.001 0.035,-0.005c0.009,-0.003 0.018,-0.009 0.027,-0.017c0.01,-0.009 0.028,-0.028 0.054,-0.059c0.027,-0.031 0.046,-0.055 0.058,-0.072c0.012,-0.017 0.02,-0.031 0.024,-0.041c0.005,-0.012 0.007,-0.022 0.007,-0.033c-0,-0.012 -0.004,-0.021 -0.012,-0.027c-0.007,-0.007 -0.018,-0.01 -0.032,-0.01l-0,-0.033l0.249,0l0,0.034c-0.012,0.002 -0.023,0.005 -0.031,0.01c-0.009,0.005 -0.019,0.012 -0.031,0.022c-0.011,0.011 -0.026,0.025 -0.043,0.045l-0.147,0.164l0.171,0.262Z" style="fill:#6d6d6d;fill-rule:nonzero;"/></g><g transform="matrix(64,0,0,64,1643.21,714.419)"><path d="M0.331,-0.064l-0.008,-0.002c-0.026,0.026 -0.052,0.045 -0.078,0.056c-0.025,0.012 -0.052,0.018 -0.08,0.018c-0.028,-0 -0.052,-0.005 -0.073,-0.015c-0.021,-0.011 -0.036,-0.025 -0.047,-0.043c-0.01,-0.019 -0.016,-0.04 -0.016,-0.063c0,-0.048 0.024,-0.086 0.071,-0.113c0.047,-0.028 0.118,-0.045 0.214,-0.052l-0,-0.047c-0,-0.03 -0.003,-0.053 -0.01,-0.07c-0.007,-0.016 -0.016,-0.028 -0.027,-0.034c-0.01,-0.007 -0.023,-0.01 -0.038,-0.01c-0.015,-0 -0.028,0.002 -0.039,0.007c-0.011,0.006 -0.021,0.015 -0.03,0.03c-0.008,0.014 -0.015,0.034 -0.019,0.06l-0.092,0l-0,-0.089c0.03,-0.013 0.054,-0.023 0.074,-0.03c0.02,-0.008 0.04,-0.013 0.059,-0.018c0.019,-0.005 0.037,-0.008 0.052,-0.01c0.015,-0.002 0.031,-0.003 0.046,-0.003c0.039,-0 0.071,0.005 0.094,0.015c0.024,0.011 0.042,0.028 0.054,0.051c0.011,0.024 0.017,0.056 0.017,0.097l0,0.191c0,0.021 0.001,0.038 0.002,0.05c0.001,0.011 0.002,0.02 0.004,0.026c0.002,0.006 0.005,0.01 0.008,0.014c0.003,0.003 0.007,0.006 0.012,0.008c0.005,0.002 0.014,0.005 0.027,0.008l-0,0.032l-0.182,0l0.005,-0.064Zm-0.017,-0.166c-0.05,0.001 -0.087,0.01 -0.112,0.028c-0.024,0.017 -0.036,0.043 -0.036,0.077c0,0.02 0.006,0.036 0.017,0.046c0.011,0.011 0.026,0.016 0.046,0.016c0.014,0 0.029,-0.004 0.042,-0.012c0.013,-0.008 0.024,-0.019 0.032,-0.032c0.008,-0.013 0.011,-0.027 0.011,-0.042l0,-0.081Z" style="fill:#6d6d6d;fill-rule:nonzero;"/></g><g transform="matrix(64,0,0,64,1677.46,714.419)"><path d="M0.224,-0.415l0.006,0.002c0.024,-0.028 0.049,-0.048 0.074,-0.061c0.025,-0.012 0.052,-0.018 0.081,-0.018c0.02,-0 0.041,0.002 0.063,0.006l-0,0.135l-0.089,-0c-0.005,-0.019 -0.012,-0.033 -0.022,-0.044c-0.008,-0.01 -0.02,-0.015 -0.035,-0.015c-0.007,0 -0.015,0.003 -0.024,0.007c-0.009,0.004 -0.017,0.011 -0.024,0.019c-0.007,0.008 -0.012,0.016 -0.016,0.024c-0.003,0.008 -0.005,0.017 -0.006,0.025c-0.001,0.009 -0.001,0.021 -0.001,0.038l-0,0.156c-0,0.031 0.001,0.052 0.003,0.065c0.003,0.012 0.007,0.022 0.014,0.029c0.007,0.007 0.018,0.012 0.035,0.015l-0,0.032l-0.241,-0l-0,-0.032c0.016,-0.004 0.026,-0.01 0.032,-0.017c0.006,-0.007 0.01,-0.016 0.012,-0.028c0.003,-0.011 0.004,-0.033 0.004,-0.064l-0,-0.2c-0,-0.024 -0.001,-0.042 -0.002,-0.054c-0,-0.011 -0.002,-0.021 -0.005,-0.027c-0.003,-0.008 -0.008,-0.013 -0.015,-0.017c-0.006,-0.005 -0.017,-0.009 -0.032,-0.012l-0,-0.033l0.133,-0.004l0.062,-0l-0.007,0.073Z" style="fill:#6d6d6d;fill-rule:nonzero;"/></g><g transform="matrix(64,0,0,64,1706.05,714.419)"><path d="M0.279,0.008c-0.048,-0 -0.089,-0.008 -0.124,-0.025c-0.035,-0.017 -0.062,-0.044 -0.081,-0.081c-0.02,-0.037 -0.03,-0.084 -0.03,-0.141c0,-0.043 0.006,-0.081 0.018,-0.113c0.013,-0.032 0.029,-0.058 0.051,-0.079c0.021,-0.021 0.047,-0.036 0.076,-0.046c0.03,-0.01 0.063,-0.015 0.098,-0.015c0.078,-0 0.138,0.021 0.178,0.062c0.04,0.042 0.06,0.102 0.06,0.182c-0,0.057 -0.01,0.105 -0.03,0.143c-0.02,0.038 -0.048,0.066 -0.085,0.085c-0.037,0.019 -0.08,0.028 -0.131,0.028Zm-0.086,-0.258c-0,0.069 0.008,0.121 0.023,0.156c0.015,0.034 0.039,0.051 0.07,0.051c0.017,0 0.032,-0.004 0.043,-0.013c0.012,-0.009 0.021,-0.022 0.028,-0.038c0.007,-0.017 0.012,-0.037 0.015,-0.06c0.003,-0.023 0.004,-0.049 0.004,-0.078c0,-0.07 -0.007,-0.123 -0.023,-0.157c-0.015,-0.035 -0.038,-0.052 -0.068,-0.052c-0.022,-0 -0.04,0.007 -0.054,0.021c-0.013,0.014 -0.023,0.035 -0.029,0.063c-0.006,0.028 -0.009,0.064 -0.009,0.107Z" style="fill:#6d6d6d;fill-rule:nonzero;"/></g><g transform="matrix(64,0,0,64,1742.49,714.419)"><path d="M0.225,-0.141c-0,0.031 0.001,0.052 0.003,0.064c0.001,0.012 0.005,0.021 0.011,0.028c0.006,0.007 0.018,0.013 0.034,0.017l0,0.032l-0.239,0l0,-0.032c0.01,-0.003 0.018,-0.005 0.023,-0.008c0.006,-0.003 0.01,-0.007 0.013,-0.011c0.003,-0.004 0.006,-0.009 0.008,-0.015c0.002,-0.007 0.004,-0.016 0.005,-0.027c0,-0.011 0,-0.027 0,-0.048l0,-0.381c0,-0.028 0,-0.048 -0,-0.061c-0.001,-0.014 -0.002,-0.025 -0.003,-0.034c-0.002,-0.009 -0.004,-0.016 -0.008,-0.021c-0.003,-0.006 -0.008,-0.01 -0.014,-0.013c-0.006,-0.004 -0.016,-0.007 -0.03,-0.009l0,-0.032l0.136,-0.007l0.061,-0l-0,0.558Z" style="fill:#6d6d6d;fill-rule:nonzero;"/></g><g transform="matrix(64,0,0,64,1762.21,714.419)"><path d="M0.331,-0.064l-0.008,-0.002c-0.026,0.026 -0.052,0.045 -0.078,0.056c-0.025,0.012 -0.052,0.018 -0.08,0.018c-0.028,-0 -0.052,-0.005 -0.073,-0.015c-0.021,-0.011 -0.036,-0.025 -0.047,-0.043c-0.01,-0.019 -0.016,-0.04 -0.016,-0.063c0,-0.048 0.024,-0.086 0.071,-0.113c0.047,-0.028 0.118,-0.045 0.214,-0.052l-0,-0.047c-0,-0.03 -0.003,-0.053 -0.01,-0.07c-0.007,-0.016 -0.016,-0.028 -0.027,-0.034c-0.01,-0.007 -0.023,-0.01 -0.038,-0.01c-0.015,-0 -0.028,0.002 -0.039,0.007c-0.011,0.006 -0.021,0.015 -0.03,0.03c-0.008,0.014 -0.015,0.034 -0.019,0.06l-0.092,0l-0,-0.089c0.03,-0.013 0.054,-0.023 0.074,-0.03c0.02,-0.008 0.04,-0.013 0.059,-0.018c0.019,-0.005 0.037,-0.008 0.052,-0.01c0.015,-0.002 0.031,-0.003 0.046,-0.003c0.039,-0 0.071,0.005 0.094,0.015c0.024,0.011 0.042,0.028 0.054,0.051c0.011,0.024 0.017,0.056 0.017,0.097l0,0.191c0,0.021 0.001,0.038 0.002,0.05c0.001,0.011 0.002,0.02 0.004,0.026c0.002,0.006 0.005,0.01 0.008,0.014c0.003,0.003 0.007,0.006 0.012,0.008c0.005,0.002 0.014,0.005 0.027,0.008l-0,0.032l-0.182,0l0.005,-0.064Zm-0.017,-0.166c-0.05,0.001 -0.087,0.01 -0.112,0.028c-0.024,0.017 -0.036,0.043 -0.036,0.077c0,0.02 0.006,0.036 0.017,0.046c0.011,0.011 0.026,0.016 0.046,0.016c0.014,0 0.029,-0.004 0.042,-0.012c0.013,-0.008 0.024,-0.019 0.032,-0.032c0.008,-0.013 0.011,-0.027 0.011,-0.042l0,-0.081Z" style="fill:#6d6d6d;fill-rule:nonzero;"/></g><g transform="matrix(64,0,0,64,1810.55,714.419)"><path d="M0.799,-0.634c-0.017,0.005 -0.029,0.01 -0.035,0.016c-0.007,0.005 -0.011,0.013 -0.014,0.023c-0.002,0.009 -0.003,0.026 -0.003,0.051l0,0.422c0,0.02 0.001,0.036 0.003,0.047c0.002,0.012 0.006,0.02 0.012,0.027c0.006,0.006 0.018,0.011 0.037,0.016l-0,0.032l-0.251,-0l0,-0.032c0.015,-0.004 0.025,-0.008 0.03,-0.01c0.006,-0.003 0.01,-0.007 0.013,-0.012c0.003,-0.005 0.005,-0.012 0.007,-0.021c0.001,-0.01 0.002,-0.026 0.002,-0.048l0,-0.239c0,-0.027 0.001,-0.058 0.002,-0.094c0.001,-0.035 0.002,-0.061 0.002,-0.076l-0.01,0c-0.004,0.013 -0.008,0.026 -0.012,0.039c-0.005,0.012 -0.013,0.035 -0.025,0.067l-0.131,0.352l-0.086,0l-0.137,-0.396c-0.009,-0.022 -0.016,-0.044 -0.022,-0.067l-0.009,0c0.004,0.054 0.005,0.118 0.005,0.191l0,0.224c0,0.025 0.001,0.041 0.004,0.051c0.002,0.009 0.006,0.017 0.013,0.023c0.007,0.006 0.019,0.012 0.036,0.016l-0,0.032l-0.185,-0l0,-0.032c0.012,-0.003 0.022,-0.007 0.029,-0.011c0.007,-0.004 0.012,-0.009 0.016,-0.016c0.003,-0.006 0.006,-0.014 0.006,-0.024c0.001,-0.011 0.002,-0.023 0.002,-0.039l-0,-0.422c-0,-0.025 -0.001,-0.042 -0.004,-0.051c-0.002,-0.009 -0.006,-0.017 -0.012,-0.023c-0.006,-0.006 -0.018,-0.011 -0.037,-0.016l0,-0.033l0.243,0l0.135,0.401l0.147,-0.401l0.229,0l-0,0.033Z" style="fill:#6d6d6d;fill-rule:nonzero;"/></g><g transform="matrix(64,0,0,64,1864.71,714.419)"><path d="M0.331,-0.064l-0.008,-0.002c-0.026,0.026 -0.052,0.045 -0.078,0.056c-0.025,0.012 -0.052,0.018 -0.08,0.018c-0.028,-0 -0.052,-0.005 -0.073,-0.015c-0.021,-0.011 -0.036,-0.025 -0.047,-0.043c-0.01,-0.019 -0.016,-0.04 -0.016,-0.063c0,-0.048 0.024,-0.086 0.071,-0.113c0.047,-0.028 0.118,-0.045 0.214,-0.052l-0,-0.047c-0,-0.03 -0.003,-0.053 -0.01,-0.07c-0.007,-0.016 -0.016,-0.028 -0.027,-0.034c-0.01,-0.007 -0.023,-0.01 -0.038,-0.01c-0.015,-0 -0.028,0.002 -0.039,0.007c-0.011,0.006 -0.021,0.015 -0.03,0.03c-0.008,0.014 -0.015,0.034 -0.019,0.06l-0.092,0l-0,-0.089c0.03,-0.013 0.054,-0.023 0.074,-0.03c0.02,-0.008 0.04,-0.013 0.059,-0.018c0.019,-0.005 0.037,-0.008 0.052,-0.01c0.015,-0.002 0.031,-0.003 0.046,-0.003c0.039,-0 0.071,0.005 0.094,0.015c0.024,0.011 0.042,0.028 0.054,0.051c0.011,0.024 0.017,0.056 0.017,0.097l0,0.191c0,0.021 0.001,0.038 0.002,0.05c0.001,0.011 0.002,0.02 0.004,0.026c0.002,0.006 0.005,0.01 0.008,0.014c0.003,0.003 0.007,0.006 0.012,0.008c0.005,0.002 0.014,0.005 0.027,0.008l-0,0.032l-0.182,0l0.005,-0.064Zm-0.017,-0.166c-0.05,0.001 -0.087,0.01 -0.112,0.028c-0.024,0.017 -0.036,0.043 -0.036,0.077c0,0.02 0.006,0.036 0.017,0.046c0.011,0.011 0.026,0.016 0.046,0.016c0.014,0 0.029,-0.004 0.042,-0.012c0.013,-0.008 0.024,-0.019 0.032,-0.032c0.008,-0.013 0.011,-0.027 0.011,-0.042l0,-0.081Z" style="fill:#6d6d6d;fill-rule:nonzero;"/></g><g transform="matrix(64,0,0,64,1898.96,714.419)"><path d="M0.224,-0.415l0.006,0.002c0.024,-0.028 0.049,-0.048 0.074,-0.061c0.025,-0.012 0.052,-0.018 0.081,-0.018c0.02,-0 0.041,0.002 0.063,0.006l-0,0.135l-0.089,-0c-0.005,-0.019 -0.012,-0.033 -0.022,-0.044c-0.008,-0.01 -0.02,-0.015 -0.035,-0.015c-0.007,0 -0.015,0.003 -0.024,0.007c-0.009,0.004 -0.017,0.011 -0.024,0.019c-0.007,0.008 -0.012,0.016 -0.016,0.024c-0.003,0.008 -0.005,0.017 -0.006,0.025c-0.001,0.009 -0.001,0.021 -0.001,0.038l-0,0.156c-0,0.031 0.001,0.052 0.003,0.065c0.003,0.012 0.007,0.022 0.014,0.029c0.007,0.007 0.018,0.012 0.035,0.015l-0,0.032l-0.241,-0l-0,-0.032c0.016,-0.004 0.026,-0.01 0.032,-0.017c0.006,-0.007 0.01,-0.016 0.012,-0.028c0.003,-0.011 0.004,-0.033 0.004,-0.064l-0,-0.2c-0,-0.024 -0.001,-0.042 -0.002,-0.054c-0,-0.011 -0.002,-0.021 -0.005,-0.027c-0.003,-0.008 -0.008,-0.013 -0.015,-0.017c-0.006,-0.005 -0.017,-0.009 -0.032,-0.012l-0,-0.033l0.133,-0.004l0.062,-0l-0.007,0.073Z" style="fill:#6d6d6d;fill-rule:nonzero;"/></g><g transform="matrix(64,0,0,64,1927.55,714.419)"><path d="M0.414,-0.125l0.038,0.045c-0.032,0.032 -0.063,0.054 -0.093,0.068c-0.03,0.013 -0.062,0.02 -0.097,0.02c-0.071,-0 -0.125,-0.021 -0.162,-0.062c-0.037,-0.042 -0.056,-0.102 -0.056,-0.181c0,-0.054 0.011,-0.1 0.031,-0.139c0.02,-0.039 0.05,-0.068 0.088,-0.088c0.038,-0.02 0.081,-0.03 0.13,-0.03c0.027,-0 0.053,0.002 0.079,0.006c0.026,0.003 0.05,0.008 0.072,0.015l-0,0.117l-0.097,0c-0.005,-0.03 -0.012,-0.052 -0.022,-0.066c-0.01,-0.014 -0.024,-0.021 -0.042,-0.021c-0.012,-0 -0.023,0.003 -0.034,0.009c-0.011,0.006 -0.021,0.016 -0.029,0.031c-0.008,0.015 -0.015,0.035 -0.02,0.06c-0.005,0.024 -0.007,0.056 -0.007,0.094c-0,0.038 0.003,0.07 0.011,0.097c0.007,0.026 0.018,0.046 0.034,0.06c0.016,0.014 0.037,0.021 0.063,0.021c0.019,0 0.037,-0.004 0.053,-0.012c0.017,-0.008 0.037,-0.023 0.06,-0.044Z" style="fill:#6d6d6d;fill-rule:nonzero;"/></g><g transform="matrix(64,0,0,64,1957.55,714.419)"><path d="M0.227,-0.679l0,0.119l-0.134,0l0,-0.119l0.134,-0Zm-0.185,0.647c0.015,-0.004 0.026,-0.01 0.032,-0.017c0.006,-0.007 0.01,-0.016 0.012,-0.028c0.003,-0.011 0.004,-0.033 0.004,-0.064l-0,-0.227c-0,-0.016 -0.001,-0.028 -0.003,-0.038c-0.001,-0.01 -0.004,-0.018 -0.008,-0.024c-0.004,-0.006 -0.009,-0.01 -0.017,-0.013c-0.006,-0.003 -0.015,-0.006 -0.026,-0.008l-0,-0.033l0.134,-0.004l0.061,-0l-0,0.347c-0,0.018 0,0.032 0,0.042c0.001,0.01 0.002,0.018 0.003,0.023c0.001,0.006 0.002,0.01 0.004,0.014c0.002,0.005 0.004,0.009 0.007,0.012c0.003,0.004 0.007,0.007 0.013,0.01c0.005,0.003 0.013,0.005 0.022,0.008l-0,0.032l-0.238,-0l-0,-0.032Z" style="fill:#6d6d6d;fill-rule:nonzero;"/></g><g transform="matrix(64,0,0,64,1977.67,714.419)"><path d="M0.573,-0l-0.237,-0l-0,-0.032c0.015,-0.004 0.025,-0.009 0.031,-0.016c0.006,-0.007 0.01,-0.016 0.012,-0.028c0.002,-0.012 0.003,-0.034 0.003,-0.065l0,-0.13c0,-0.023 -0,-0.042 -0.001,-0.057c-0.001,-0.015 -0.003,-0.027 -0.005,-0.036c-0.002,-0.01 -0.005,-0.018 -0.009,-0.024c-0.003,-0.006 -0.007,-0.011 -0.012,-0.015c-0.005,-0.005 -0.01,-0.008 -0.016,-0.01c-0.006,-0.002 -0.013,-0.003 -0.022,-0.003c-0.012,0 -0.025,0.004 -0.039,0.012c-0.013,0.008 -0.024,0.018 -0.033,0.032c-0.009,0.013 -0.014,0.028 -0.014,0.043l-0,0.188c-0,0.031 0.001,0.052 0.003,0.064c0.002,0.012 0.006,0.022 0.012,0.029c0.006,0.007 0.017,0.012 0.032,0.016l-0,0.032l-0.236,0l-0,-0.032c0.016,-0.004 0.026,-0.01 0.032,-0.017c0.006,-0.007 0.01,-0.016 0.012,-0.028c0.003,-0.011 0.004,-0.033 0.004,-0.064l-0,-0.2c-0,-0.024 -0.001,-0.042 -0.002,-0.054c-0,-0.011 -0.002,-0.021 -0.005,-0.027c-0.003,-0.008 -0.008,-0.013 -0.015,-0.017c-0.006,-0.005 -0.017,-0.009 -0.032,-0.012l-0,-0.033l0.133,-0.004l0.062,-0l-0.007,0.07l0.005,0.001c0.021,-0.017 0.038,-0.031 0.054,-0.041c0.015,-0.011 0.031,-0.019 0.048,-0.025c0.016,-0.006 0.034,-0.009 0.053,-0.009c0.026,-0 0.049,0.004 0.066,0.012c0.018,0.007 0.032,0.018 0.043,0.033c0.011,0.014 0.019,0.032 0.023,0.053c0.005,0.022 0.007,0.046 0.007,0.074l0,0.179c0,0.014 0.001,0.028 0.001,0.04c0.001,0.013 0.002,0.023 0.004,0.03c0.002,0.008 0.004,0.014 0.008,0.019c0.003,0.004 0.008,0.008 0.014,0.011c0.006,0.004 0.014,0.006 0.023,0.009l-0,0.032Z" style="fill:#6d6d6d;fill-rule:nonzero;"/></g><g transform="matrix(64,0,0,64,2016.3,714.419)"><path d="M0.387,-0.308l0.126,0.186c0.019,0.028 0.032,0.047 0.041,0.058c0.009,0.01 0.017,0.017 0.023,0.022c0.007,0.004 0.015,0.007 0.025,0.01l-0,0.032l-0.239,-0l-0,-0.032c0.014,-0.003 0.022,-0.011 0.022,-0.023c-0,-0.009 -0.003,-0.019 -0.009,-0.03c-0.006,-0.012 -0.017,-0.03 -0.033,-0.054l-0.038,-0.057c-0.008,-0.012 -0.015,-0.022 -0.02,-0.027c-0.006,-0.006 -0.011,-0.01 -0.016,-0.013c-0.005,-0.003 -0.012,-0.005 -0.021,-0.005l-0.023,0l-0,0.1c-0,0.031 0.001,0.052 0.003,0.064c0.001,0.012 0.005,0.021 0.011,0.028c0.006,0.007 0.018,0.013 0.034,0.017l0,0.032l-0.239,-0l0,-0.032c0.01,-0.003 0.018,-0.005 0.023,-0.008c0.006,-0.003 0.01,-0.007 0.013,-0.011c0.003,-0.004 0.006,-0.009 0.008,-0.015c0.002,-0.007 0.004,-0.016 0.005,-0.027c0,-0.011 0,-0.027 0,-0.048l0,-0.381c0,-0.028 0,-0.048 -0,-0.061c-0.001,-0.014 -0.002,-0.025 -0.003,-0.034c-0.002,-0.009 -0.004,-0.016 -0.008,-0.021c-0.003,-0.006 -0.008,-0.01 -0.014,-0.013c-0.006,-0.004 -0.016,-0.007 -0.03,-0.009l0,-0.032l0.136,-0.007l0.061,-0l-0,0.411l0.016,0c0.011,0 0.02,-0.001 0.027,-0.003c0.006,-0.002 0.013,-0.006 0.02,-0.011c0.007,-0.005 0.018,-0.014 0.032,-0.027c0.015,-0.013 0.026,-0.025 0.034,-0.035c0.007,-0.011 0.012,-0.02 0.015,-0.027c0.002,-0.008 0.004,-0.015 0.004,-0.023c-0,-0.022 -0.015,-0.035 -0.043,-0.039l0,-0.031l0.244,-0l0,0.031c-0.012,0.002 -0.027,0.008 -0.042,0.017c-0.016,0.01 -0.04,0.031 -0.074,0.062l-0.071,0.066Z" style="fill:#6d6d6d;fill-rule:nonzero;"/></g><g transform="matrix(64,0,0,64,2053.08,714.419)"><path d="M0.279,0.008c-0.048,-0 -0.089,-0.008 -0.124,-0.025c-0.035,-0.017 -0.062,-0.044 -0.081,-0.081c-0.02,-0.037 -0.03,-0.084 -0.03,-0.141c0,-0.043 0.006,-0.081 0.018,-0.113c0.013,-0.032 0.029,-0.058 0.051,-0.079c0.021,-0.021 0.047,-0.036 0.076,-0.046c0.03,-0.01 0.063,-0.015 0.098,-0.015c0.078,-0 0.138,0.021 0.178,0.062c0.04,0.042 0.06,0.102 0.06,0.182c-0,0.057 -0.01,0.105 -0.03,0.143c-0.02,0.038 -0.048,0.066 -0.085,0.085c-0.037,0.019 -0.08,0.028 -0.131,0.028Zm-0.086,-0.258c-0,0.069 0.008,0.121 0.023,0.156c0.015,0.034 0.039,0.051 0.07,0.051c0.017,0 0.032,-0.004 0.043,-0.013c0.012,-0.009 0.021,-0.022 0.028,-0.038c0.007,-0.017 0.012,-0.037 0.015,-0.06c0.003,-0.023 0.004,-0.049 0.004,-0.078c0,-0.07 -0.007,-0.123 -0.023,-0.157c-0.015,-0.035 -0.038,-0.052 -0.068,-0.052c-0.022,-0 -0.04,0.007 -0.054,0.021c-0.013,0.014 -0.023,0.035 -0.029,0.063c-0.006,0.028 -0.009,0.064 -0.009,0.107Z" style="fill:#6d6d6d;fill-rule:nonzero;"/></g><g transform="matrix(64,0,0,64,2088.17,714.419)"><path d="M0.489,0.005l-0.092,-0.315l-0.107,0.315l-0.099,-0l-0.118,-0.372c-0.007,-0.022 -0.013,-0.039 -0.018,-0.049c-0.005,-0.01 -0.011,-0.018 -0.017,-0.024c-0.006,-0.006 -0.014,-0.01 -0.025,-0.012l0,-0.032l0.239,-0l-0,0.032c-0.015,0.002 -0.027,0.007 -0.035,0.014c-0.007,0.007 -0.011,0.016 -0.011,0.028c0,0.008 0.001,0.017 0.004,0.027c0.003,0.01 0.005,0.02 0.009,0.031l0.061,0.203l0.112,-0.335l0.091,-0l0.095,0.335l0.064,-0.176c0.006,-0.018 0.011,-0.033 0.013,-0.045c0.002,-0.012 0.004,-0.022 0.004,-0.031c-0,-0.014 -0.004,-0.025 -0.012,-0.034c-0.008,-0.009 -0.019,-0.015 -0.033,-0.017l-0,-0.032l0.184,-0l-0,0.032c-0.01,0.003 -0.018,0.007 -0.023,0.011c-0.005,0.003 -0.01,0.009 -0.015,0.016c-0.005,0.007 -0.01,0.016 -0.016,0.029c-0.006,0.014 -0.015,0.035 -0.026,0.063l-0.132,0.338l-0.097,-0Z" style="fill:#6d6d6d;fill-rule:nonzero;"/></g><g transform="matrix(64,0,0,64,2138.42,714.419)"><path d="M0.105,-0.132c0.008,0.03 0.02,0.052 0.037,0.067c0.017,0.015 0.04,0.022 0.068,0.022c0.024,0 0.043,-0.006 0.055,-0.017c0.013,-0.011 0.019,-0.027 0.019,-0.048c0,-0.013 -0.003,-0.025 -0.009,-0.034c-0.005,-0.01 -0.015,-0.018 -0.028,-0.027c-0.013,-0.009 -0.035,-0.02 -0.067,-0.034c-0.018,-0.008 -0.035,-0.017 -0.051,-0.026c-0.016,-0.009 -0.029,-0.02 -0.041,-0.032c-0.012,-0.012 -0.021,-0.025 -0.028,-0.04c-0.007,-0.014 -0.01,-0.031 -0.01,-0.049c-0,-0.029 0.008,-0.054 0.025,-0.076c0.017,-0.021 0.041,-0.038 0.072,-0.049c0.032,-0.011 0.068,-0.017 0.108,-0.017c0.024,-0 0.047,0.001 0.07,0.003c0.023,0.002 0.052,0.006 0.089,0.012l-0,0.114l-0.065,0c-0.007,-0.021 -0.016,-0.037 -0.025,-0.048c-0.009,-0.012 -0.018,-0.019 -0.029,-0.024c-0.011,-0.004 -0.024,-0.006 -0.039,-0.006c-0.021,-0 -0.038,0.004 -0.051,0.014c-0.013,0.01 -0.019,0.024 -0.019,0.041c0,0.013 0.002,0.023 0.007,0.032c0.004,0.009 0.013,0.017 0.024,0.026c0.012,0.008 0.035,0.019 0.068,0.033c0.031,0.013 0.056,0.026 0.075,0.04c0.019,0.014 0.034,0.03 0.044,0.048c0.01,0.018 0.015,0.039 0.015,0.063c-0,0.026 -0.005,0.049 -0.015,0.068c-0.009,0.019 -0.023,0.035 -0.041,0.047c-0.017,0.013 -0.038,0.022 -0.063,0.028c-0.025,0.006 -0.052,0.009 -0.081,0.009c-0.054,-0 -0.114,-0.008 -0.179,-0.023l-0,-0.117l0.065,0Z" style="fill:#6d6d6d;fill-rule:nonzero;"/></g><g transform="matrix(64,0,0,64,2167.8,714.419)"><path d="M0.387,-0.308l0.126,0.186c0.019,0.028 0.032,0.047 0.041,0.058c0.009,0.01 0.017,0.017 0.023,0.022c0.007,0.004 0.015,0.007 0.025,0.01l-0,0.032l-0.239,-0l-0,-0.032c0.014,-0.003 0.022,-0.011 0.022,-0.023c-0,-0.009 -0.003,-0.019 -0.009,-0.03c-0.006,-0.012 -0.017,-0.03 -0.033,-0.054l-0.038,-0.057c-0.008,-0.012 -0.015,-0.022 -0.02,-0.027c-0.006,-0.006 -0.011,-0.01 -0.016,-0.013c-0.005,-0.003 -0.012,-0.005 -0.021,-0.005l-0.023,0l-0,0.1c-0,0.031 0.001,0.052 0.003,0.064c0.001,0.012 0.005,0.021 0.011,0.028c0.006,0.007 0.018,0.013 0.034,0.017l0,0.032l-0.239,-0l0,-0.032c0.01,-0.003 0.018,-0.005 0.023,-0.008c0.006,-0.003 0.01,-0.007 0.013,-0.011c0.003,-0.004 0.006,-0.009 0.008,-0.015c0.002,-0.007 0.004,-0.016 0.005,-0.027c0,-0.011 0,-0.027 0,-0.048l0,-0.381c0,-0.028 0,-0.048 -0,-0.061c-0.001,-0.014 -0.002,-0.025 -0.003,-0.034c-0.002,-0.009 -0.004,-0.016 -0.008,-0.021c-0.003,-0.006 -0.008,-0.01 -0.014,-0.013c-0.006,-0.004 -0.016,-0.007 -0.03,-0.009l0,-0.032l0.136,-0.007l0.061,-0l-0,0.411l0.016,0c0.011,0 0.02,-0.001 0.027,-0.003c0.006,-0.002 0.013,-0.006 0.02,-0.011c0.007,-0.005 0.018,-0.014 0.032,-0.027c0.015,-0.013 0.026,-0.025 0.034,-0.035c0.007,-0.011 0.012,-0.02 0.015,-0.027c0.002,-0.008 0.004,-0.015 0.004,-0.023c-0,-0.022 -0.015,-0.035 -0.043,-0.039l0,-0.031l0.244,-0l0,0.031c-0.012,0.002 -0.027,0.008 -0.042,0.017c-0.016,0.01 -0.04,0.031 -0.074,0.062l-0.071,0.066Z" style="fill:#6d6d6d;fill-rule:nonzero;"/></g><g transform="matrix(64,0,0,64,2205.67,714.419)"><path d="M0.227,-0.679l0,0.119l-0.134,0l0,-0.119l0.134,-0Zm-0.185,0.647c0.015,-0.004 0.026,-0.01 0.032,-0.017c0.006,-0.007 0.01,-0.016 0.012,-0.028c0.003,-0.011 0.004,-0.033 0.004,-0.064l-0,-0.227c-0,-0.016 -0.001,-0.028 -0.003,-0.038c-0.001,-0.01 -0.004,-0.018 -0.008,-0.024c-0.004,-0.006 -0.009,-0.01 -0.017,-0.013c-0.006,-0.003 -0.015,-0.006 -0.026,-0.008l-0,-0.033l0.134,-0.004l0.061,-0l-0,0.347c-0,0.018 0,0.032 0,0.042c0.001,0.01 0.002,0.018 0.003,0.023c0.001,0.006 0.002,0.01 0.004,0.014c0.002,0.005 0.004,0.009 0.007,0.012c0.003,0.004 0.007,0.007 0.013,0.01c0.005,0.003 0.013,0.005 0.022,0.008l-0,0.032l-0.238,-0l-0,-0.032Z" style="fill:#6d6d6d;fill-rule:nonzero;"/></g><g transform="matrix(64,0,0,64,2225.8,714.419)"><path d="M0.484,-0.089c-0.033,0.035 -0.066,0.06 -0.099,0.075c-0.032,0.014 -0.07,0.022 -0.112,0.022c-0.076,-0 -0.133,-0.021 -0.171,-0.062c-0.039,-0.042 -0.058,-0.104 -0.058,-0.185c0,-0.053 0.01,-0.098 0.03,-0.136c0.02,-0.039 0.048,-0.068 0.084,-0.087c0.036,-0.02 0.078,-0.03 0.126,-0.03c0.029,-0 0.055,0.003 0.077,0.01c0.023,0.007 0.042,0.017 0.058,0.029c0.016,0.012 0.029,0.027 0.039,0.044c0.013,0.02 0.022,0.044 0.028,0.07c0.007,0.027 0.01,0.06 0.011,0.098l-0.31,0c0,0.059 0.011,0.103 0.031,0.131c0.021,0.027 0.053,0.041 0.095,0.041c0.025,0 0.047,-0.004 0.067,-0.014c0.02,-0.009 0.041,-0.025 0.064,-0.049l0.04,0.043Zm-0.132,-0.204c-0.001,-0.05 -0.008,-0.087 -0.019,-0.112c-0.012,-0.024 -0.031,-0.036 -0.057,-0.036c-0.025,-0 -0.045,0.012 -0.06,0.038c-0.015,0.025 -0.024,0.062 -0.027,0.11l0.163,-0Z" style="fill:#6d6d6d;fill-rule:nonzero;"/></g><g transform="matrix(64,0,0,64,2259.77,714.419)"><path d="M0.514,-0.419l-0.083,-0.009l-0.002,0.005c0.009,0.009 0.016,0.022 0.022,0.038c0.006,0.015 0.009,0.034 0.009,0.056c0,0.057 -0.017,0.1 -0.051,0.129c-0.034,0.03 -0.085,0.044 -0.152,0.044c-0.032,0 -0.058,-0.003 -0.079,-0.009c-0.016,0.015 -0.024,0.031 -0.024,0.048c-0,0.01 0.002,0.017 0.006,0.022c0.004,0.005 0.011,0.01 0.021,0.012c0.009,0.003 0.023,0.004 0.041,0.004l0.121,0c0.055,0 0.095,0.011 0.122,0.032c0.027,0.021 0.041,0.054 0.041,0.099c-0,0.035 -0.01,0.065 -0.03,0.09c-0.019,0.025 -0.048,0.044 -0.084,0.057c-0.037,0.013 -0.081,0.02 -0.131,0.02c-0.037,-0 -0.07,-0.002 -0.1,-0.005c-0.03,-0.003 -0.056,-0.009 -0.077,-0.018c-0.021,-0.009 -0.038,-0.02 -0.049,-0.035c-0.012,-0.015 -0.017,-0.034 -0.017,-0.057c-0,-0.019 0.005,-0.036 0.017,-0.052c0.012,-0.015 0.028,-0.029 0.049,-0.04c-0.013,-0.01 -0.023,-0.021 -0.029,-0.033c-0.006,-0.013 -0.01,-0.029 -0.01,-0.047c0,-0.016 0.004,-0.03 0.01,-0.043c0.006,-0.014 0.015,-0.026 0.025,-0.036c0.011,-0.012 0.025,-0.024 0.042,-0.037c-0.026,-0.014 -0.045,-0.033 -0.058,-0.056c-0.013,-0.023 -0.02,-0.051 -0.02,-0.082c0,-0.03 0.006,-0.056 0.017,-0.077c0.011,-0.022 0.026,-0.04 0.044,-0.054c0.02,-0.013 0.042,-0.023 0.068,-0.029c0.026,-0.007 0.054,-0.01 0.084,-0.01c0.016,-0 0.031,0.001 0.044,0.002c0.012,0.002 0.025,0.004 0.037,0.006l0.176,-0l0,0.065Zm-0.329,0.091c-0,0.041 0.005,0.072 0.017,0.092c0.011,0.02 0.03,0.03 0.054,0.03c0.023,-0 0.04,-0.009 0.052,-0.028c0.012,-0.018 0.018,-0.047 0.018,-0.085c-0,-0.04 -0.006,-0.07 -0.018,-0.091c-0.011,-0.021 -0.029,-0.032 -0.053,-0.032c-0.024,0 -0.042,0.01 -0.053,0.028c-0.012,0.019 -0.017,0.048 -0.017,0.086Zm-0.018,0.359c-0.012,0.009 -0.021,0.019 -0.027,0.03c-0.006,0.011 -0.009,0.023 -0.009,0.037c0,0.024 0.01,0.041 0.031,0.052c0.02,0.011 0.052,0.017 0.096,0.017c0.041,-0 0.072,-0.007 0.094,-0.021c0.021,-0.013 0.032,-0.032 0.032,-0.057c-0,-0.011 -0.002,-0.021 -0.006,-0.028c-0.004,-0.008 -0.012,-0.015 -0.023,-0.02c-0.011,-0.005 -0.028,-0.008 -0.048,-0.008l-0.084,0c-0.024,0 -0.043,-0 -0.056,-0.002Z" style="fill:#6d6d6d;fill-rule:nonzero;"/></g><g transform="matrix(64,0,0,64,2293.05,714.419)"><path d="M0.279,0.008c-0.048,-0 -0.089,-0.008 -0.124,-0.025c-0.035,-0.017 -0.062,-0.044 -0.081,-0.081c-0.02,-0.037 -0.03,-0.084 -0.03,-0.141c0,-0.043 0.006,-0.081 0.018,-0.113c0.013,-0.032 0.029,-0.058 0.051,-0.079c0.021,-0.021 0.047,-0.036 0.076,-0.046c0.03,-0.01 0.063,-0.015 0.098,-0.015c0.078,-0 0.138,0.021 0.178,0.062c0.04,0.042 0.06,0.102 0.06,0.182c-0,0.057 -0.01,0.105 -0.03,0.143c-0.02,0.038 -0.048,0.066 -0.085,0.085c-0.037,0.019 -0.08,0.028 -0.131,0.028Zm-0.086,-0.258c-0,0.069 0.008,0.121 0.023,0.156c0.015,0.034 0.039,0.051 0.07,0.051c0.017,0 0.032,-0.004 0.043,-0.013c0.012,-0.009 0.021,-0.022 0.028,-0.038c0.007,-0.017 0.012,-0.037 0.015,-0.06c0.003,-0.023 0.004,-0.049 0.004,-0.078c0,-0.07 -0.007,-0.123 -0.023,-0.157c-0.015,-0.035 -0.038,-0.052 -0.068,-0.052c-0.022,-0 -0.04,0.007 -0.054,0.021c-0.013,0.014 -0.023,0.035 -0.029,0.063c-0.006,0.028 -0.009,0.064 -0.009,0.107Z" style="fill:#6d6d6d;fill-rule:nonzero;"/></g><g transform="matrix(64,0,0,64,1405.16,778.419)"><path d="M0.489,0.005l-0.092,-0.315l-0.107,0.315l-0.099,-0l-0.118,-0.372c-0.007,-0.022 -0.013,-0.039 -0.018,-0.049c-0.005,-0.01 -0.011,-0.018 -0.017,-0.024c-0.006,-0.006 -0.014,-0.01 -0.025,-0.012l0,-0.032l0.239,-0l-0,0.032c-0.015,0.002 -0.027,0.007 -0.035,0.014c-0.007,0.007 -0.011,0.016 -0.011,0.028c0,0.008 0.001,0.017 0.004,0.027c0.003,0.01 0.005,0.02 0.009,0.031l0.061,0.203l0.112,-0.335l0.091,-0l0.095,0.335l0.064,-0.176c0.006,-0.018 0.011,-0.033 0.013,-0.045c0.002,-0.012 0.004,-0.022 0.004,-0.031c-0,-0.014 -0.004,-0.025 -0.012,-0.034c-0.008,-0.009 -0.019,-0.015 -0.033,-0.017l-0,-0.032l0.184,-0l-0,0.032c-0.01,0.003 -0.018,0.007 -0.023,0.011c-0.005,0.003 -0.01,0.009 -0.015,0.016c-0.005,0.007 -0.01,0.016 -0.016,0.029c-0.006,0.014 -0.015,0.035 -0.026,0.063l-0.132,0.338l-0.097,-0Z" style="fill:#6d6d6d;fill-rule:nonzero;"/></g><g transform="matrix(64,0,0,64,1470.35,778.419)"><path d="M0.25,-0.122c0,0.021 0.001,0.037 0.003,0.046c0.002,0.009 0.004,0.016 0.008,0.021c0.004,0.006 0.009,0.01 0.016,0.013c0.007,0.004 0.018,0.007 0.033,0.01l-0,0.032l-0.263,-0l-0,-0.032c0.012,-0.003 0.021,-0.007 0.028,-0.01c0.007,-0.004 0.013,-0.01 0.016,-0.016c0.003,-0.007 0.006,-0.015 0.007,-0.025c0.001,-0.011 0.001,-0.024 0.001,-0.04l0,-0.42c0,-0.016 -0,-0.029 -0.001,-0.039c-0.001,-0.01 -0.003,-0.019 -0.007,-0.025c-0.003,-0.007 -0.008,-0.012 -0.015,-0.016c-0.007,-0.004 -0.017,-0.008 -0.029,-0.011l-0,-0.033l0.284,0c0.082,0 0.144,0.015 0.185,0.045c0.041,0.029 0.061,0.074 0.061,0.136c0,0.043 -0.009,0.081 -0.029,0.112c-0.019,0.032 -0.047,0.057 -0.083,0.073c-0.037,0.016 -0.082,0.025 -0.137,0.025c-0.031,-0 -0.057,-0.001 -0.078,-0.002l0,0.156Zm0,-0.211l0.042,-0c0.033,-0 0.059,-0.005 0.078,-0.014c0.019,-0.01 0.033,-0.024 0.043,-0.045c0.009,-0.02 0.014,-0.047 0.014,-0.081c-0,-0.034 -0.005,-0.061 -0.014,-0.081c-0.01,-0.02 -0.023,-0.034 -0.041,-0.043c-0.018,-0.008 -0.041,-0.012 -0.069,-0.012c-0.023,-0 -0.04,-0 -0.053,0.001l0,0.275Z" style="fill:#6d6d6d;fill-rule:nonzero;"/></g><g transform="matrix(64,0,0,64,1508.03,778.419)"><path d="M0.279,0.008c-0.048,-0 -0.089,-0.008 -0.124,-0.025c-0.035,-0.017 -0.062,-0.044 -0.081,-0.081c-0.02,-0.037 -0.03,-0.084 -0.03,-0.141c0,-0.043 0.006,-0.081 0.018,-0.113c0.013,-0.032 0.029,-0.058 0.051,-0.079c0.021,-0.021 0.047,-0.036 0.076,-0.046c0.03,-0.01 0.063,-0.015 0.098,-0.015c0.078,-0 0.138,0.021 0.178,0.062c0.04,0.042 0.06,0.102 0.06,0.182c-0,0.057 -0.01,0.105 -0.03,0.143c-0.02,0.038 -0.048,0.066 -0.085,0.085c-0.037,0.019 -0.08,0.028 -0.131,0.028Zm-0.086,-0.258c-0,0.069 0.008,0.121 0.023,0.156c0.015,0.034 0.039,0.051 0.07,0.051c0.017,0 0.032,-0.004 0.043,-0.013c0.012,-0.009 0.021,-0.022 0.028,-0.038c0.007,-0.017 0.012,-0.037 0.015,-0.06c0.003,-0.023 0.004,-0.049 0.004,-0.078c0,-0.07 -0.007,-0.123 -0.023,-0.157c-0.015,-0.035 -0.038,-0.052 -0.068,-0.052c-0.022,-0 -0.04,0.007 -0.054,0.021c-0.013,0.014 -0.023,0.035 -0.029,0.063c-0.006,0.028 -0.009,0.064 -0.009,0.107Z" style="fill:#6d6d6d;fill-rule:nonzero;"/></g><g transform="matrix(64,0,0,64,1544.47,778.419)"><path d="M0.197,-0.052l0.103,0c0.014,0 0.027,-0.003 0.037,-0.009c0.01,-0.006 0.02,-0.017 0.028,-0.032c0.008,-0.016 0.016,-0.037 0.023,-0.064l0.059,-0l0,0.157l-0.415,-0l0,-0.032l0.25,-0.401l-0.097,0c-0.016,0 -0.028,0.003 -0.038,0.008c-0.009,0.005 -0.018,0.014 -0.025,0.027c-0.008,0.012 -0.017,0.033 -0.027,0.062l-0.059,0l-0,-0.148l0.411,-0l-0,0.032l-0.25,0.4Z" style="fill:#6d6d6d;fill-rule:nonzero;"/></g><g transform="matrix(64,0,0,64,1575.13,778.419)"><path d="M0.573,-0l-0.237,-0l-0,-0.032c0.015,-0.004 0.025,-0.009 0.031,-0.016c0.006,-0.007 0.01,-0.016 0.012,-0.028c0.002,-0.012 0.003,-0.034 0.003,-0.065l0,-0.13c0,-0.023 -0,-0.042 -0.001,-0.057c-0.001,-0.015 -0.003,-0.027 -0.005,-0.036c-0.002,-0.01 -0.005,-0.018 -0.009,-0.024c-0.003,-0.006 -0.007,-0.011 -0.012,-0.015c-0.005,-0.005 -0.01,-0.008 -0.016,-0.01c-0.006,-0.002 -0.013,-0.003 -0.022,-0.003c-0.012,0 -0.025,0.004 -0.039,0.012c-0.013,0.008 -0.024,0.018 -0.033,0.032c-0.009,0.013 -0.014,0.028 -0.014,0.043l-0,0.188c-0,0.031 0.001,0.052 0.003,0.064c0.002,0.012 0.006,0.022 0.012,0.029c0.006,0.007 0.017,0.012 0.032,0.016l-0,0.032l-0.236,0l-0,-0.032c0.016,-0.004 0.026,-0.01 0.032,-0.017c0.006,-0.007 0.01,-0.016 0.012,-0.028c0.003,-0.011 0.004,-0.033 0.004,-0.064l-0,-0.2c-0,-0.024 -0.001,-0.042 -0.002,-0.054c-0,-0.011 -0.002,-0.021 -0.005,-0.027c-0.003,-0.008 -0.008,-0.013 -0.015,-0.017c-0.006,-0.005 -0.017,-0.009 -0.032,-0.012l-0,-0.033l0.133,-0.004l0.062,-0l-0.007,0.07l0.005,0.001c0.021,-0.017 0.038,-0.031 0.054,-0.041c0.015,-0.011 0.031,-0.019 0.048,-0.025c0.016,-0.006 0.034,-0.009 0.053,-0.009c0.026,-0 0.049,0.004 0.066,0.012c0.018,0.007 0.032,0.018 0.043,0.033c0.011,0.014 0.019,0.032 0.023,0.053c0.005,0.022 0.007,0.046 0.007,0.074l0,0.179c0,0.014 0.001,0.028 0.001,0.04c0.001,0.013 0.002,0.023 0.004,0.03c0.002,0.008 0.004,0.014 0.008,0.019c0.003,0.004 0.008,0.008 0.014,0.011c0.006,0.004 0.014,0.006 0.023,0.009l-0,0.032Z" style="fill:#6d6d6d;fill-rule:nonzero;"/></g><g transform="matrix(64,0,0,64,1613.75,778.419)"><path d="M0.331,-0.064l-0.008,-0.002c-0.026,0.026 -0.052,0.045 -0.078,0.056c-0.025,0.012 -0.052,0.018 -0.08,0.018c-0.028,-0 -0.052,-0.005 -0.073,-0.015c-0.021,-0.011 -0.036,-0.025 -0.047,-0.043c-0.01,-0.019 -0.016,-0.04 -0.016,-0.063c0,-0.048 0.024,-0.086 0.071,-0.113c0.047,-0.028 0.118,-0.045 0.214,-0.052l-0,-0.047c-0,-0.03 -0.003,-0.053 -0.01,-0.07c-0.007,-0.016 -0.016,-0.028 -0.027,-0.034c-0.01,-0.007 -0.023,-0.01 -0.038,-0.01c-0.015,-0 -0.028,0.002 -0.039,0.007c-0.011,0.006 -0.021,0.015 -0.03,0.03c-0.008,0.014 -0.015,0.034 -0.019,0.06l-0.092,0l-0,-0.089c0.03,-0.013 0.054,-0.023 0.074,-0.03c0.02,-0.008 0.04,-0.013 0.059,-0.018c0.019,-0.005 0.037,-0.008 0.052,-0.01c0.015,-0.002 0.031,-0.003 0.046,-0.003c0.039,-0 0.071,0.005 0.094,0.015c0.024,0.011 0.042,0.028 0.054,0.051c0.011,0.024 0.017,0.056 0.017,0.097l0,0.191c0,0.021 0.001,0.038 0.002,0.05c0.001,0.011 0.002,0.02 0.004,0.026c0.002,0.006 0.005,0.01 0.008,0.014c0.003,0.003 0.007,0.006 0.012,0.008c0.005,0.002 0.014,0.005 0.027,0.008l-0,0.032l-0.182,0l0.005,-0.064Zm-0.017,-0.166c-0.05,0.001 -0.087,0.01 -0.112,0.028c-0.024,0.017 -0.036,0.043 -0.036,0.077c0,0.02 0.006,0.036 0.017,0.046c0.011,0.011 0.026,0.016 0.046,0.016c0.014,0 0.029,-0.004 0.042,-0.012c0.013,-0.008 0.024,-0.019 0.032,-0.032c0.008,-0.013 0.011,-0.027 0.011,-0.042l0,-0.081Z" style="fill:#6d6d6d;fill-rule:nonzero;"/></g><g transform="matrix(64,0,0,64,1648,778.419)"><path d="M0.573,-0l-0.237,-0l-0,-0.032c0.015,-0.004 0.025,-0.009 0.031,-0.016c0.006,-0.007 0.01,-0.016 0.012,-0.028c0.002,-0.012 0.003,-0.034 0.003,-0.065l0,-0.13c0,-0.023 -0,-0.042 -0.001,-0.057c-0.001,-0.015 -0.003,-0.027 -0.005,-0.036c-0.002,-0.01 -0.005,-0.018 -0.009,-0.024c-0.003,-0.006 -0.007,-0.011 -0.012,-0.015c-0.005,-0.005 -0.01,-0.008 -0.016,-0.01c-0.006,-0.002 -0.013,-0.003 -0.022,-0.003c-0.012,0 -0.025,0.004 -0.039,0.012c-0.013,0.008 -0.024,0.018 -0.033,0.032c-0.009,0.013 -0.014,0.028 -0.014,0.043l-0,0.188c-0,0.031 0.001,0.052 0.003,0.064c0.002,0.012 0.006,0.022 0.012,0.029c0.006,0.007 0.017,0.012 0.032,0.016l-0,0.032l-0.236,0l-0,-0.032c0.016,-0.004 0.026,-0.01 0.032,-0.017c0.006,-0.007 0.01,-0.016 0.012,-0.028c0.003,-0.011 0.004,-0.033 0.004,-0.064l-0,-0.2c-0,-0.024 -0.001,-0.042 -0.002,-0.054c-0,-0.011 -0.002,-0.021 -0.005,-0.027c-0.003,-0.008 -0.008,-0.013 -0.015,-0.017c-0.006,-0.005 -0.017,-0.009 -0.032,-0.012l-0,-0.033l0.133,-0.004l0.062,-0l-0.007,0.07l0.005,0.001c0.021,-0.017 0.038,-0.031 0.054,-0.041c0.015,-0.011 0.031,-0.019 0.048,-0.025c0.016,-0.006 0.034,-0.009 0.053,-0.009c0.026,-0 0.049,0.004 0.066,0.012c0.018,0.007 0.032,0.018 0.043,0.033c0.011,0.014 0.019,0.032 0.023,0.053c0.005,0.022 0.007,0.046 0.007,0.074l0,0.179c0,0.014 0.001,0.028 0.001,0.04c0.001,0.013 0.002,0.023 0.004,0.03c0.002,0.008 0.004,0.014 0.008,0.019c0.003,0.004 0.008,0.008 0.014,0.011c0.006,0.004 0.014,0.006 0.023,0.009l-0,0.032Z" style="fill:#6d6d6d;fill-rule:nonzero;"/></g><g transform="matrix(64,0,0,64,1686.63,778.419)"><path d="M0.227,-0.679l0,0.119l-0.134,0l0,-0.119l0.134,-0Zm-0.185,0.647c0.015,-0.004 0.026,-0.01 0.032,-0.017c0.006,-0.007 0.01,-0.016 0.012,-0.028c0.003,-0.011 0.004,-0.033 0.004,-0.064l-0,-0.227c-0,-0.016 -0.001,-0.028 -0.003,-0.038c-0.001,-0.01 -0.004,-0.018 -0.008,-0.024c-0.004,-0.006 -0.009,-0.01 -0.017,-0.013c-0.006,-0.003 -0.015,-0.006 -0.026,-0.008l-0,-0.033l0.134,-0.004l0.061,-0l-0,0.347c-0,0.018 0,0.032 0,0.042c0.001,0.01 0.002,0.018 0.003,0.023c0.001,0.006 0.002,0.01 0.004,0.014c0.002,0.005 0.004,0.009 0.007,0.012c0.003,0.004 0.007,0.007 0.013,0.01c0.005,0.003 0.013,0.005 0.022,0.008l-0,0.032l-0.238,-0l-0,-0.032Z" style="fill:#6d6d6d;fill-rule:nonzero;"/></g><g transform="matrix(64,0,0,64,1706.75,778.419)"><path d="M0.031,-0.484l0.19,-0l0,0.271c0,0.031 0.001,0.055 0.003,0.073c0.002,0.017 0.006,0.031 0.011,0.042c0.006,0.01 0.013,0.017 0.02,0.022c0.009,0.005 0.019,0.007 0.031,0.007c0.012,0 0.025,-0.004 0.038,-0.011c0.014,-0.008 0.025,-0.018 0.034,-0.031c0.009,-0.014 0.014,-0.028 0.014,-0.044l0,-0.188c0,-0.024 -0,-0.042 -0.001,-0.053c-0.001,-0.012 -0.003,-0.021 -0.006,-0.027c-0.003,-0.007 -0.007,-0.012 -0.013,-0.016c-0.006,-0.005 -0.015,-0.009 -0.029,-0.013l0,-0.032l0.191,-0l-0,0.341c-0,0.025 -0,0.043 0.001,0.055c0.001,0.011 0.003,0.02 0.006,0.027c0.002,0.007 0.007,0.012 0.014,0.017c0.006,0.004 0.017,0.008 0.032,0.011l0,0.033l-0.132,0.004l-0.06,0l0.005,-0.07l-0.006,-0.001c-0.03,0.028 -0.057,0.047 -0.081,0.058c-0.024,0.011 -0.048,0.017 -0.072,0.017c-0.034,-0 -0.062,-0.007 -0.083,-0.019c-0.02,-0.013 -0.035,-0.032 -0.044,-0.057c-0.009,-0.025 -0.014,-0.057 -0.014,-0.097l0,-0.178c0,-0.018 -0,-0.032 -0.001,-0.042c-0,-0.01 -0.001,-0.018 -0.002,-0.023c-0.001,-0.005 -0.002,-0.01 -0.004,-0.014c-0.002,-0.005 -0.004,-0.009 -0.008,-0.013c-0.003,-0.003 -0.007,-0.006 -0.012,-0.009c-0.005,-0.003 -0.013,-0.006 -0.022,-0.008l0,-0.032Z" style="fill:#6d6d6d;fill-rule:nonzero;"/></g></g></g></g></g><defs><linearGradient id="_Linear1" x1="0" y1="0" x2="1" y2="0" gradientUnits="userSpaceOnUse" gradientTransform="matrix(261.132,517.734,-534.353,253.01,96.3447,99.6494)"><stop offset="0" style="stop-color:#37c6f4;stop-opacity:1"/><stop offset="0.43" style="stop-color:#269bc3;stop-opacity:1"/><stop offset="1" style="stop-color:#003854;stop-opacity:1"/></linearGradient></defs></svg>