<?xml version="1.0" encoding="UTF-8" standalone="no"?>
<!DOCTYPE svg PUBLIC "-//W3C//DTD SVG 1.1//EN" "http://www.w3.org/Graphics/SVG/1.1/DTD/svg11.dtd">
<svg width="100%" height="100%" viewBox="0 0 2599 1160" version="1.1" xmlns="http://www.w3.org/2000/svg" xmlns:xlink="http://www.w3.org/1999/xlink" xml:space="preserve" xmlns:serif="http://www.serif.com/" style="fill-rule:evenodd;clip-rule:evenodd;stroke-linejoin:round;stroke-miterlimit:2;">
    <g transform="matrix(1.5625,0,0,1.5625,2.77556e-14,-262.791)">
        <g transform="matrix(0.938821,0,0,1.21145,-1.77636e-14,-114.877)">
            <rect x="0" y="233.656" width="1771.62" height="612.688" style="fill:none;"/>
        </g>
        <g transform="matrix(1,0,0,1,-214.207,-186.687)">
            <g transform="matrix(1,0,0,1,3.39099,0)">
                <g transform="matrix(0.827169,-4.48136e-17,4.35061e-17,0.853721,183.916,342.281)">
                    <g id="l3PqdLdxqTgel9UWcH7pKZ4">
                        <g>
                            <path id="pwRobM9vD" d="M57.3,647.3C57.7,633.7 58.3,628.6 60.3,620.9C68.6,589.3 87.4,563.2 119.2,539.5C137.9,525.5 197.4,490.8 214.5,483.8C222,480.8 267.7,454.7 278.7,447.1C283.2,444 293.1,436.3 300.6,430L314.4,418.5L221.6,418.2C170.5,418.1 128.4,418.2 128.1,418.5C127.2,419.5 139.3,431 148.5,438C153.5,441.7 161.1,446.9 165.5,449.5C177.1,456.4 177,456.3 171.9,459.2C169.5,460.6 161.2,465.2 153.5,469.5C145.8,473.8 138.8,477.8 137.9,478.3C134.7,480.2 112,463.2 96,447C65.7,416.2 52.6,379 58.1,339.4C60.5,321.7 69.5,299.9 80.2,285.5C91.2,270.7 110.5,253.6 127.5,243.7C131.4,241.5 144.4,233.7 156.5,226.5C168.6,219.2 184.4,210.2 191.5,206.5C198.7,202.8 205,199.3 205.6,198.9C206.2,198.4 209.2,197.1 212.2,196.1C215.2,195.1 223.7,190.7 231.1,186.4C238.5,182.1 249.2,175.9 255,172.7C274.8,161.4 307,138.6 307,135.8C307,135.4 268.1,135 220.5,135C172.9,135 134,135.2 134,135.5C134,137.3 172.5,164 175,164C176.8,164 176,165.9 173.8,167.3C172.5,168.1 164.3,172.6 155.5,177.5C146.7,182.3 138.8,186.8 137.9,187.3C134.4,189.5 104.7,166.3 90.6,150.4C67.4,124.3 57,97.6 57,64.3L57,51L77.3,51.2L97.5,51.5L98.1,65C98.5,72.4 99.4,80.5 100.2,83L101.6,87.5L219.7,87.8L337.7,88L339.4,79.8C340.2,75.2 341.3,66.2 341.6,59.8L342.3,48L382.3,48L381.7,65.3C381.1,86.1 378.6,97 371,112.8C363.6,128.1 355.1,140 342,153C328.1,167 315.1,176.7 290.2,191.9C269.2,204.8 232,225.2 226.2,227.1C221.5,228.6 168.7,258.7 160,264.8C151.6,270.7 146.7,274.6 134.6,285L124.7,293.5L219,293.8C270.9,293.9 313.5,293.8 313.7,293.6C315.1,292.2 289.6,271.3 275.1,262C269.6,258.4 265.1,255.3 265,254.9C265,254.6 267.1,253.4 269.7,252.1C272.3,250.8 281.1,246 289.2,241.4C297.4,236.8 304.5,233 305.1,233C308.4,233 333,252.1 344.6,263.7C388,307.2 396.8,366.4 367.3,416.8C352.7,441.8 330.5,461.9 292,485C283.5,490.1 275.4,495.1 274,496C268.1,500 234,517.8 228.2,519.9C222.3,522.1 174.2,549.8 160,559.2C147.4,567.5 129.1,581.2 129,582.3C129,582.7 168.4,583 216.5,583C264.6,583 304,582.8 304,582.6C304,582.4 299.2,578.2 293.3,573.3C281.6,563.6 271.1,556.1 264.9,552.9C262.7,551.8 261.2,550.5 261.5,550C261.8,549.6 266.4,546.8 271.8,543.9C277.1,541.1 285.6,536.3 290.7,533.4C295.7,530.4 300.4,528 301,528C303.7,528 325.9,545.1 336.8,555.5C361.2,578.9 375.1,604 378.9,631.4C379.5,635.7 380,644.7 380,651.6L380,664L359.8,663.8L339.5,663.5L338.9,647C338.6,637.5 337.8,629.1 337.1,627.3L335.8,624L219.3,623.8C142.6,623.6 102.6,623.8 102,624.5C100.2,626.8 98,641.9 98,652.6L98,664L56.7,664L57.3,647.3ZM338.9,371.3C340.3,364.1 340.3,349.9 338.9,342.7L337.7,337L283.1,337C155.7,336.9 100.5,337.1 99.8,337.8C98.6,339 97,350.1 97,357C97,363.1 98.6,374.5 99.7,376.3C99.9,376.7 153.6,377 218.9,377L337.7,377L338.9,371.3Z" style="fill:url(#_Linear1);fill-rule:nonzero;"/>
                        </g>
                    </g>
                </g>
                <g transform="matrix(1,0,0,1,-44.3783,90.4831)">
                    <g transform="matrix(192,0,0,192,577.674,432.558)">
                        <path d="M0.531,-0.263L0.671,-0.219C0.649,-0.141 0.614,-0.083 0.563,-0.044C0.514,-0.007 0.45,0.012 0.374,0.012C0.278,0.012 0.2,-0.02 0.139,-0.085C0.078,-0.15 0.047,-0.239 0.047,-0.352C0.047,-0.471 0.078,-0.563 0.14,-0.629C0.201,-0.695 0.282,-0.728 0.382,-0.728C0.47,-0.728 0.541,-0.702 0.596,-0.65C0.628,-0.62 0.653,-0.576 0.669,-0.519L0.526,-0.484C0.517,-0.521 0.5,-0.551 0.473,-0.572C0.446,-0.594 0.413,-0.604 0.375,-0.604C0.322,-0.604 0.279,-0.585 0.246,-0.547C0.213,-0.509 0.196,-0.448 0.196,-0.362C0.196,-0.272 0.213,-0.207 0.245,-0.169C0.278,-0.131 0.32,-0.111 0.372,-0.111C0.41,-0.111 0.444,-0.124 0.471,-0.148C0.499,-0.172 0.519,-0.211 0.531,-0.263Z" style="fill:rgb(109,109,109);fill-rule:nonzero;"/>
                    </g>
                    <g transform="matrix(192,0,0,192,716.331,432.558)">
                        <path d="M0.421,-0.167L0.512,-0.156C0.497,-0.103 0.471,-0.062 0.432,-0.032C0.393,-0.003 0.344,0.012 0.284,0.012C0.208,0.012 0.148,-0.012 0.103,-0.058C0.059,-0.105 0.037,-0.171 0.037,-0.255C0.037,-0.342 0.059,-0.41 0.104,-0.458C0.149,-0.506 0.207,-0.53 0.279,-0.53C0.348,-0.53 0.405,-0.507 0.449,-0.459C0.493,-0.412 0.515,-0.346 0.515,-0.26C0.515,-0.255 0.514,-0.247 0.514,-0.237L0.127,-0.237C0.131,-0.18 0.147,-0.136 0.176,-0.106C0.205,-0.076 0.241,-0.061 0.284,-0.061C0.316,-0.061 0.344,-0.069 0.367,-0.086C0.389,-0.103 0.408,-0.13 0.421,-0.167ZM0.132,-0.309L0.422,-0.309C0.418,-0.353 0.407,-0.385 0.389,-0.407C0.361,-0.441 0.324,-0.458 0.28,-0.458C0.239,-0.458 0.205,-0.444 0.178,-0.417C0.15,-0.39 0.135,-0.354 0.132,-0.309Z" style="fill:rgb(109,109,109);fill-rule:nonzero;"/>
                    </g>
                    <g transform="matrix(192,0,0,192,823.112,432.558)">
                        <path d="M0.066,-0L0.066,-0.519L0.145,-0.519L0.145,-0.445C0.183,-0.502 0.238,-0.53 0.31,-0.53C0.341,-0.53 0.37,-0.525 0.396,-0.513C0.422,-0.502 0.442,-0.487 0.455,-0.469C0.468,-0.451 0.477,-0.429 0.482,-0.404C0.486,-0.388 0.487,-0.36 0.487,-0.319L0.487,-0L0.399,-0L0.399,-0.315C0.399,-0.351 0.396,-0.378 0.389,-0.396C0.382,-0.413 0.37,-0.428 0.353,-0.438C0.335,-0.449 0.315,-0.454 0.292,-0.454C0.254,-0.454 0.222,-0.442 0.194,-0.418C0.167,-0.395 0.154,-0.35 0.154,-0.283L0.154,-0L0.066,-0Z" style="fill:rgb(109,109,109);fill-rule:nonzero;"/>
                    </g>
                    <g transform="matrix(192,0,0,192,929.893,432.558)">
                        <path d="M0.258,-0.079L0.271,-0.001C0.246,0.004 0.224,0.007 0.204,0.007C0.172,0.007 0.147,0.002 0.13,-0.008C0.112,-0.018 0.1,-0.032 0.093,-0.048C0.086,-0.064 0.082,-0.099 0.082,-0.152L0.082,-0.45L0.018,-0.45L0.018,-0.519L0.082,-0.519L0.082,-0.647L0.169,-0.7L0.169,-0.519L0.258,-0.519L0.258,-0.45L0.169,-0.45L0.169,-0.147C0.169,-0.122 0.171,-0.106 0.174,-0.099C0.177,-0.091 0.182,-0.086 0.189,-0.082C0.196,-0.077 0.206,-0.075 0.219,-0.075C0.229,-0.075 0.242,-0.076 0.258,-0.079Z" style="fill:rgb(109,109,109);fill-rule:nonzero;"/>
                    </g>
                    <g transform="matrix(192,0,0,192,983.237,432.558)">
                        <path d="M0.065,-0L0.065,-0.519L0.144,-0.519L0.144,-0.44C0.164,-0.477 0.183,-0.501 0.2,-0.513C0.217,-0.524 0.236,-0.53 0.256,-0.53C0.286,-0.53 0.316,-0.521 0.347,-0.502L0.316,-0.42C0.295,-0.433 0.273,-0.439 0.252,-0.439C0.233,-0.439 0.215,-0.434 0.2,-0.422C0.185,-0.41 0.174,-0.395 0.167,-0.374C0.158,-0.343 0.153,-0.309 0.153,-0.271L0.153,-0L0.065,-0Z" style="fill:rgb(109,109,109);fill-rule:nonzero;"/>
                    </g>
                    <g transform="matrix(192,0,0,192,1047.17,432.558)">
                        <path d="M0.406,-0L0.406,-0.076C0.365,-0.018 0.311,0.012 0.241,0.012C0.211,0.012 0.182,0.006 0.155,-0.006C0.129,-0.018 0.109,-0.032 0.096,-0.05C0.083,-0.068 0.075,-0.09 0.069,-0.115C0.066,-0.132 0.064,-0.16 0.064,-0.197L0.064,-0.519L0.152,-0.519L0.152,-0.231C0.152,-0.185 0.154,-0.154 0.157,-0.138C0.163,-0.115 0.174,-0.097 0.192,-0.083C0.21,-0.07 0.232,-0.064 0.259,-0.064C0.285,-0.064 0.31,-0.071 0.333,-0.084C0.356,-0.098 0.372,-0.116 0.382,-0.139C0.392,-0.163 0.396,-0.196 0.396,-0.241L0.396,-0.519L0.484,-0.519L0.484,-0L0.406,-0Z" style="fill:rgb(109,109,109);fill-rule:nonzero;"/>
                    </g>
                    <g transform="matrix(192,0,0,192,1153.96,432.558)">
                        <path d="M0.066,-0L0.066,-0.519L0.145,-0.519L0.145,-0.446C0.161,-0.471 0.182,-0.492 0.209,-0.507C0.236,-0.522 0.267,-0.53 0.302,-0.53C0.34,-0.53 0.372,-0.522 0.396,-0.506C0.421,-0.49 0.438,-0.468 0.448,-0.439C0.489,-0.5 0.543,-0.53 0.608,-0.53C0.66,-0.53 0.699,-0.516 0.727,-0.487C0.755,-0.459 0.769,-0.415 0.769,-0.356L0.769,-0L0.681,-0L0.681,-0.327C0.681,-0.362 0.678,-0.387 0.672,-0.402C0.667,-0.418 0.657,-0.431 0.642,-0.44C0.627,-0.449 0.609,-0.454 0.589,-0.454C0.552,-0.454 0.522,-0.442 0.498,-0.417C0.474,-0.393 0.462,-0.355 0.462,-0.301L0.462,-0L0.374,-0L0.374,-0.337C0.374,-0.376 0.367,-0.405 0.353,-0.425C0.338,-0.444 0.315,-0.454 0.282,-0.454C0.257,-0.454 0.235,-0.448 0.213,-0.435C0.193,-0.422 0.177,-0.403 0.168,-0.377C0.159,-0.352 0.154,-0.316 0.154,-0.269L0.154,-0L0.066,-0Z" style="fill:rgb(109,109,109);fill-rule:nonzero;"/>
                    </g>
                    <g transform="matrix(192,0,0,192,577.674,619.225)">
                        <path d="M0.071,-0L0.071,-0.716L0.287,-0.716L0.417,-0.228L0.545,-0.716L0.762,-0.716L0.762,-0L0.628,-0L0.628,-0.563L0.486,-0L0.347,-0L0.205,-0.563L0.205,-0L0.071,-0Z" style="fill:rgb(109,109,109);fill-rule:nonzero;"/>
                    </g>
                    <g transform="matrix(192,0,0,192,737.612,619.225)">
                        <path d="M0.421,-0.167L0.512,-0.156C0.497,-0.103 0.471,-0.062 0.432,-0.032C0.393,-0.003 0.344,0.012 0.284,0.012C0.208,0.012 0.148,-0.012 0.103,-0.058C0.059,-0.105 0.037,-0.171 0.037,-0.255C0.037,-0.342 0.059,-0.41 0.104,-0.458C0.149,-0.506 0.207,-0.53 0.279,-0.53C0.348,-0.53 0.405,-0.507 0.449,-0.459C0.493,-0.412 0.515,-0.346 0.515,-0.26C0.515,-0.255 0.514,-0.247 0.514,-0.237L0.127,-0.237C0.131,-0.18 0.147,-0.136 0.176,-0.106C0.205,-0.076 0.241,-0.061 0.284,-0.061C0.316,-0.061 0.344,-0.069 0.367,-0.086C0.389,-0.103 0.408,-0.13 0.421,-0.167ZM0.132,-0.309L0.422,-0.309C0.418,-0.353 0.407,-0.385 0.389,-0.407C0.361,-0.441 0.324,-0.458 0.28,-0.458C0.239,-0.458 0.205,-0.444 0.178,-0.417C0.15,-0.39 0.135,-0.354 0.132,-0.309Z" style="fill:rgb(109,109,109);fill-rule:nonzero;"/>
                    </g>
                    <g transform="matrix(192,0,0,192,844.393,619.225)">
                        <path d="M0.402,-0L0.402,-0.065C0.369,-0.014 0.321,0.012 0.257,0.012C0.216,0.012 0.178,0 0.143,-0.022C0.109,-0.045 0.082,-0.077 0.063,-0.118C0.044,-0.159 0.034,-0.206 0.034,-0.259C0.034,-0.311 0.043,-0.357 0.06,-0.399C0.077,-0.442 0.103,-0.474 0.138,-0.497C0.172,-0.519 0.211,-0.53 0.253,-0.53C0.285,-0.53 0.313,-0.524 0.337,-0.51C0.361,-0.497 0.381,-0.48 0.396,-0.459L0.396,-0.716L0.484,-0.716L0.484,-0L0.402,-0ZM0.125,-0.259C0.125,-0.192 0.139,-0.143 0.167,-0.11C0.194,-0.077 0.228,-0.061 0.266,-0.061C0.304,-0.061 0.337,-0.076 0.363,-0.107C0.39,-0.139 0.404,-0.187 0.404,-0.251C0.404,-0.322 0.39,-0.375 0.363,-0.408C0.335,-0.441 0.302,-0.458 0.262,-0.458C0.223,-0.458 0.19,-0.442 0.164,-0.41C0.138,-0.378 0.125,-0.327 0.125,-0.259Z" style="fill:rgb(109,109,109);fill-rule:nonzero;"/>
                    </g>
                    <g transform="matrix(192,0,0,192,951.174,619.225)">
                        <path d="M0.062,0.2L0.052,0.117C0.071,0.122 0.088,0.125 0.103,0.125C0.122,0.125 0.138,0.122 0.149,0.115C0.161,0.109 0.171,0.1 0.178,0.088C0.184,0.079 0.193,0.057 0.205,0.022C0.207,0.018 0.209,0.01 0.213,0.001L0.016,-0.519L0.111,-0.519L0.219,-0.218C0.233,-0.18 0.245,-0.14 0.256,-0.098C0.266,-0.139 0.278,-0.178 0.292,-0.216L0.403,-0.519L0.491,-0.519L0.294,0.009C0.273,0.066 0.256,0.105 0.245,0.126C0.229,0.155 0.211,0.177 0.191,0.19C0.171,0.204 0.147,0.21 0.119,0.21C0.102,0.21 0.083,0.207 0.062,0.2Z" style="fill:rgb(109,109,109);fill-rule:nonzero;"/>
                    </g>
                    <g transform="matrix(192,0,0,192,1047.17,619.225)">
                        <path d="M0.404,-0.19L0.491,-0.179C0.481,-0.119 0.457,-0.072 0.418,-0.039C0.379,-0.005 0.332,0.012 0.275,0.012C0.204,0.012 0.147,-0.011 0.104,-0.058C0.061,-0.104 0.039,-0.171 0.039,-0.257C0.039,-0.313 0.048,-0.362 0.067,-0.404C0.085,-0.446 0.114,-0.478 0.151,-0.499C0.189,-0.52 0.231,-0.53 0.275,-0.53C0.332,-0.53 0.378,-0.516 0.414,-0.487C0.449,-0.459 0.472,-0.419 0.482,-0.366L0.397,-0.353C0.389,-0.388 0.374,-0.414 0.354,-0.432C0.333,-0.449 0.308,-0.458 0.279,-0.458C0.235,-0.458 0.199,-0.442 0.171,-0.41C0.143,-0.379 0.129,-0.328 0.129,-0.26C0.129,-0.19 0.143,-0.139 0.169,-0.108C0.196,-0.076 0.231,-0.061 0.274,-0.061C0.308,-0.061 0.337,-0.071 0.36,-0.092C0.383,-0.113 0.398,-0.146 0.404,-0.19Z" style="fill:rgb(109,109,109);fill-rule:nonzero;"/>
                    </g>
                    <g transform="matrix(192,0,0,192,1143.17,619.225)">
                        <path d="M0.062,0.2L0.052,0.117C0.071,0.122 0.088,0.125 0.103,0.125C0.122,0.125 0.138,0.122 0.149,0.115C0.161,0.109 0.171,0.1 0.178,0.088C0.184,0.079 0.193,0.057 0.205,0.022C0.207,0.018 0.209,0.01 0.213,0.001L0.016,-0.519L0.111,-0.519L0.219,-0.218C0.233,-0.18 0.245,-0.14 0.256,-0.098C0.266,-0.139 0.278,-0.178 0.292,-0.216L0.403,-0.519L0.491,-0.519L0.294,0.009C0.273,0.066 0.256,0.105 0.245,0.126C0.229,0.155 0.211,0.177 0.191,0.19C0.171,0.204 0.147,0.21 0.119,0.21C0.102,0.21 0.083,0.207 0.062,0.2Z" style="fill:rgb(109,109,109);fill-rule:nonzero;"/>
                    </g>
                    <g transform="matrix(192,0,0,192,1239.17,619.225)">
                        <path d="M0.066,-0L0.066,-0.519L0.145,-0.519L0.145,-0.445C0.183,-0.502 0.238,-0.53 0.31,-0.53C0.341,-0.53 0.37,-0.525 0.396,-0.513C0.422,-0.502 0.442,-0.487 0.455,-0.469C0.468,-0.451 0.477,-0.429 0.482,-0.404C0.486,-0.388 0.487,-0.36 0.487,-0.319L0.487,-0L0.399,-0L0.399,-0.315C0.399,-0.351 0.396,-0.378 0.389,-0.396C0.382,-0.413 0.37,-0.428 0.353,-0.438C0.335,-0.449 0.315,-0.454 0.292,-0.454C0.254,-0.454 0.222,-0.442 0.194,-0.418C0.167,-0.395 0.154,-0.35 0.154,-0.283L0.154,-0L0.066,-0Z" style="fill:rgb(109,109,109);fill-rule:nonzero;"/>
                    </g>
                    <g transform="matrix(192,0,0,192,1345.96,619.225)">
                        <path d="M0.062,0.2L0.052,0.117C0.071,0.122 0.088,0.125 0.103,0.125C0.122,0.125 0.138,0.122 0.149,0.115C0.161,0.109 0.171,0.1 0.178,0.088C0.184,0.079 0.193,0.057 0.205,0.022C0.207,0.018 0.209,0.01 0.213,0.001L0.016,-0.519L0.111,-0.519L0.219,-0.218C0.233,-0.18 0.245,-0.14 0.256,-0.098C0.266,-0.139 0.278,-0.178 0.292,-0.216L0.403,-0.519L0.491,-0.519L0.294,0.009C0.273,0.066 0.256,0.105 0.245,0.126C0.229,0.155 0.211,0.177 0.191,0.19C0.171,0.204 0.147,0.21 0.119,0.21C0.102,0.21 0.083,0.207 0.062,0.2Z" style="fill:rgb(109,109,109);fill-rule:nonzero;"/>
                    </g>
                    <g transform="matrix(192,0,0,192,577.674,805.891)">
                        <path d="M0.072,-0.716L0.336,-0.716C0.396,-0.716 0.441,-0.711 0.473,-0.702C0.515,-0.69 0.551,-0.668 0.581,-0.636C0.611,-0.605 0.633,-0.566 0.649,-0.52C0.665,-0.474 0.672,-0.418 0.672,-0.351C0.672,-0.292 0.665,-0.241 0.65,-0.199C0.632,-0.147 0.607,-0.104 0.574,-0.072C0.549,-0.048 0.515,-0.029 0.472,-0.015C0.44,-0.005 0.398,-0 0.344,-0L0.072,-0L0.072,-0.716ZM0.217,-0.595L0.217,-0.121L0.325,-0.121C0.365,-0.121 0.394,-0.123 0.412,-0.127C0.436,-0.133 0.455,-0.143 0.47,-0.157C0.486,-0.171 0.499,-0.194 0.508,-0.226C0.518,-0.258 0.523,-0.302 0.523,-0.357C0.523,-0.413 0.518,-0.455 0.508,-0.485C0.499,-0.514 0.485,-0.538 0.467,-0.554C0.45,-0.571 0.427,-0.582 0.4,-0.588C0.38,-0.592 0.341,-0.595 0.282,-0.595L0.217,-0.595Z" style="fill:rgb(109,109,109);fill-rule:nonzero;"/>
                    </g>
                    <g transform="matrix(192,0,0,192,716.331,805.891)">
                        <path d="M0.033,-0.259C0.033,-0.355 0.06,-0.426 0.113,-0.473C0.158,-0.511 0.212,-0.53 0.276,-0.53C0.348,-0.53 0.406,-0.507 0.451,-0.46C0.496,-0.413 0.519,-0.349 0.519,-0.267C0.519,-0.2 0.509,-0.147 0.489,-0.109C0.469,-0.071 0.44,-0.041 0.401,-0.02C0.363,0.001 0.322,0.012 0.276,0.012C0.204,0.012 0.145,-0.012 0.1,-0.058C0.056,-0.105 0.033,-0.172 0.033,-0.259ZM0.124,-0.259C0.124,-0.193 0.138,-0.143 0.167,-0.11C0.196,-0.077 0.232,-0.061 0.276,-0.061C0.32,-0.061 0.356,-0.077 0.385,-0.11C0.414,-0.144 0.429,-0.194 0.429,-0.262C0.429,-0.326 0.414,-0.375 0.385,-0.408C0.356,-0.441 0.32,-0.458 0.276,-0.458C0.232,-0.458 0.196,-0.441 0.167,-0.408C0.138,-0.375 0.124,-0.326 0.124,-0.259Z" style="fill:rgb(109,109,109);fill-rule:nonzero;"/>
                    </g>
                    <g transform="matrix(192,0,0,192,823.112,805.891)">
                        <path d="M0.031,-0.155L0.118,-0.168C0.123,-0.134 0.136,-0.107 0.158,-0.088C0.181,-0.07 0.212,-0.061 0.252,-0.061C0.292,-0.061 0.322,-0.069 0.342,-0.085C0.361,-0.102 0.371,-0.121 0.371,-0.143C0.371,-0.163 0.362,-0.179 0.345,-0.19C0.333,-0.198 0.303,-0.208 0.255,-0.22C0.191,-0.236 0.146,-0.25 0.121,-0.262C0.096,-0.274 0.077,-0.29 0.064,-0.311C0.052,-0.332 0.045,-0.355 0.045,-0.381C0.045,-0.404 0.051,-0.425 0.061,-0.445C0.072,-0.465 0.086,-0.481 0.104,-0.494C0.118,-0.504 0.137,-0.513 0.16,-0.52C0.184,-0.527 0.209,-0.53 0.236,-0.53C0.277,-0.53 0.313,-0.524 0.343,-0.513C0.374,-0.501 0.397,-0.485 0.412,-0.465C0.426,-0.445 0.436,-0.418 0.442,-0.385L0.356,-0.373C0.352,-0.4 0.341,-0.421 0.322,-0.436C0.303,-0.451 0.277,-0.458 0.243,-0.458C0.202,-0.458 0.174,-0.451 0.156,-0.438C0.139,-0.425 0.13,-0.409 0.13,-0.391C0.13,-0.38 0.134,-0.369 0.141,-0.36C0.148,-0.351 0.16,-0.343 0.175,-0.337C0.184,-0.334 0.209,-0.326 0.252,-0.314C0.315,-0.298 0.358,-0.284 0.382,-0.273C0.407,-0.263 0.426,-0.248 0.44,-0.228C0.454,-0.207 0.461,-0.182 0.461,-0.152C0.461,-0.123 0.453,-0.095 0.436,-0.069C0.419,-0.044 0.394,-0.024 0.362,-0.009C0.33,0.005 0.293,0.012 0.252,0.012C0.185,0.012 0.134,-0.002 0.098,-0.03C0.063,-0.058 0.041,-0.1 0.031,-0.155ZM0.192,-0.583L0.257,-0.72L0.373,-0.72L0.265,-0.583L0.192,-0.583Z" style="fill:rgb(109,109,109);fill-rule:nonzero;"/>
                    </g>
                    <g transform="matrix(192,0,0,192,919.112,805.891)">
                        <path d="M0.162,-0L0.003,-0.519L0.094,-0.519L0.176,-0.219L0.207,-0.108C0.208,-0.113 0.217,-0.149 0.234,-0.215L0.316,-0.519L0.407,-0.519L0.484,-0.218L0.51,-0.119L0.54,-0.219L0.629,-0.519L0.714,-0.519L0.552,-0L0.461,-0L0.378,-0.311L0.358,-0.399L0.253,-0L0.162,-0Z" style="fill:rgb(109,109,109);fill-rule:nonzero;"/>
                    </g>
                    <g transform="matrix(192,0,0,192,1057.77,805.891)">
                        <path d="M0.066,-0.615L0.066,-0.716L0.154,-0.716L0.154,-0.615L0.066,-0.615ZM0.066,-0L0.066,-0.519L0.154,-0.519L0.154,-0L0.066,-0Z" style="fill:rgb(109,109,109);fill-rule:nonzero;"/>
                    </g>
                    <g transform="matrix(192,0,0,192,1100.42,805.891)">
                        <path d="M0.404,-0.064C0.372,-0.036 0.34,-0.017 0.31,-0.005C0.28,0.006 0.248,0.012 0.213,0.012C0.156,0.012 0.113,-0.002 0.082,-0.03C0.051,-0.058 0.036,-0.093 0.036,-0.137C0.036,-0.162 0.042,-0.185 0.053,-0.206C0.065,-0.227 0.08,-0.244 0.099,-0.257C0.118,-0.27 0.139,-0.279 0.162,-0.286C0.179,-0.29 0.205,-0.295 0.24,-0.299C0.311,-0.307 0.363,-0.317 0.397,-0.329C0.397,-0.341 0.397,-0.349 0.397,-0.352C0.397,-0.388 0.389,-0.413 0.373,-0.428C0.35,-0.448 0.317,-0.458 0.272,-0.458C0.231,-0.458 0.201,-0.45 0.181,-0.436C0.161,-0.421 0.147,-0.396 0.137,-0.359L0.051,-0.371C0.059,-0.407 0.072,-0.437 0.09,-0.459C0.108,-0.482 0.134,-0.5 0.167,-0.512C0.201,-0.524 0.241,-0.53 0.285,-0.53C0.329,-0.53 0.365,-0.525 0.393,-0.515C0.421,-0.504 0.441,-0.491 0.454,-0.475C0.467,-0.459 0.476,-0.44 0.481,-0.416C0.484,-0.401 0.486,-0.374 0.486,-0.334L0.486,-0.217C0.486,-0.136 0.488,-0.084 0.491,-0.062C0.495,-0.041 0.503,-0.02 0.514,-0L0.422,-0C0.413,-0.018 0.407,-0.04 0.404,-0.064ZM0.397,-0.26C0.365,-0.247 0.317,-0.236 0.253,-0.227C0.217,-0.222 0.192,-0.216 0.177,-0.209C0.162,-0.203 0.15,-0.193 0.142,-0.181C0.134,-0.168 0.13,-0.154 0.13,-0.139C0.13,-0.116 0.139,-0.096 0.156,-0.081C0.174,-0.065 0.2,-0.057 0.234,-0.057C0.268,-0.057 0.298,-0.064 0.325,-0.079C0.351,-0.094 0.37,-0.114 0.383,-0.14C0.392,-0.16 0.397,-0.189 0.397,-0.228L0.397,-0.26Z" style="fill:rgb(109,109,109);fill-rule:nonzero;"/>
                    </g>
                    <g transform="matrix(192,0,0,192,1207.21,805.891)">
                        <path d="M0.402,-0L0.402,-0.065C0.369,-0.014 0.321,0.012 0.257,0.012C0.216,0.012 0.178,0 0.143,-0.022C0.109,-0.045 0.082,-0.077 0.063,-0.118C0.044,-0.159 0.034,-0.206 0.034,-0.259C0.034,-0.311 0.043,-0.357 0.06,-0.399C0.077,-0.442 0.103,-0.474 0.138,-0.497C0.172,-0.519 0.211,-0.53 0.253,-0.53C0.285,-0.53 0.313,-0.524 0.337,-0.51C0.361,-0.497 0.381,-0.48 0.396,-0.459L0.396,-0.716L0.484,-0.716L0.484,-0L0.402,-0ZM0.125,-0.259C0.125,-0.192 0.139,-0.143 0.167,-0.11C0.194,-0.077 0.228,-0.061 0.266,-0.061C0.304,-0.061 0.337,-0.076 0.363,-0.107C0.39,-0.139 0.404,-0.187 0.404,-0.251C0.404,-0.322 0.39,-0.375 0.363,-0.408C0.335,-0.441 0.302,-0.458 0.262,-0.458C0.223,-0.458 0.19,-0.442 0.164,-0.41C0.138,-0.378 0.125,-0.327 0.125,-0.259Z" style="fill:rgb(109,109,109);fill-rule:nonzero;"/>
                    </g>
                    <g transform="matrix(192,0,0,192,1313.99,805.891)">
                        <path d="M0.404,-0.19L0.491,-0.179C0.481,-0.119 0.457,-0.072 0.418,-0.039C0.379,-0.005 0.332,0.012 0.275,0.012C0.204,0.012 0.147,-0.011 0.104,-0.058C0.061,-0.104 0.039,-0.171 0.039,-0.257C0.039,-0.313 0.048,-0.362 0.067,-0.404C0.085,-0.446 0.114,-0.478 0.151,-0.499C0.189,-0.52 0.231,-0.53 0.275,-0.53C0.332,-0.53 0.378,-0.516 0.414,-0.487C0.449,-0.459 0.472,-0.419 0.482,-0.366L0.397,-0.353C0.389,-0.388 0.374,-0.414 0.354,-0.432C0.333,-0.449 0.308,-0.458 0.279,-0.458C0.235,-0.458 0.199,-0.442 0.171,-0.41C0.143,-0.379 0.129,-0.328 0.129,-0.26C0.129,-0.19 0.143,-0.139 0.169,-0.108C0.196,-0.076 0.231,-0.061 0.274,-0.061C0.308,-0.061 0.337,-0.071 0.36,-0.092C0.383,-0.113 0.398,-0.146 0.404,-0.19Z" style="fill:rgb(109,109,109);fill-rule:nonzero;"/>
                    </g>
                    <g transform="matrix(192,0,0,192,1409.99,805.891)">
                        <path d="M0.02,-0L0.02,-0.071L0.35,-0.45C0.312,-0.448 0.279,-0.447 0.25,-0.447L0.039,-0.447L0.039,-0.519L0.463,-0.519L0.463,-0.46L0.182,-0.131L0.128,-0.071C0.167,-0.074 0.204,-0.076 0.239,-0.076L0.479,-0.076L0.479,-0L0.02,-0Z" style="fill:rgb(109,109,109);fill-rule:nonzero;"/>
                    </g>
                    <g transform="matrix(192,0,0,192,1505.99,805.891)">
                        <path d="M0.404,-0.064C0.372,-0.036 0.34,-0.017 0.31,-0.005C0.28,0.006 0.248,0.012 0.213,0.012C0.156,0.012 0.113,-0.002 0.082,-0.03C0.051,-0.058 0.036,-0.093 0.036,-0.137C0.036,-0.162 0.042,-0.185 0.053,-0.206C0.065,-0.227 0.08,-0.244 0.099,-0.257C0.118,-0.27 0.139,-0.279 0.162,-0.286C0.179,-0.29 0.205,-0.295 0.24,-0.299C0.311,-0.307 0.363,-0.317 0.397,-0.329C0.397,-0.341 0.397,-0.349 0.397,-0.352C0.397,-0.388 0.389,-0.413 0.373,-0.428C0.35,-0.448 0.317,-0.458 0.272,-0.458C0.231,-0.458 0.201,-0.45 0.181,-0.436C0.161,-0.421 0.147,-0.396 0.137,-0.359L0.051,-0.371C0.059,-0.407 0.072,-0.437 0.09,-0.459C0.108,-0.482 0.134,-0.5 0.167,-0.512C0.201,-0.524 0.241,-0.53 0.285,-0.53C0.329,-0.53 0.365,-0.525 0.393,-0.515C0.421,-0.504 0.441,-0.491 0.454,-0.475C0.467,-0.459 0.476,-0.44 0.481,-0.416C0.484,-0.401 0.486,-0.374 0.486,-0.334L0.486,-0.217C0.486,-0.136 0.488,-0.084 0.491,-0.062C0.495,-0.041 0.503,-0.02 0.514,-0L0.422,-0C0.413,-0.018 0.407,-0.04 0.404,-0.064ZM0.397,-0.26C0.365,-0.247 0.317,-0.236 0.253,-0.227C0.217,-0.222 0.192,-0.216 0.177,-0.209C0.162,-0.203 0.15,-0.193 0.142,-0.181C0.134,-0.168 0.13,-0.154 0.13,-0.139C0.13,-0.116 0.139,-0.096 0.156,-0.081C0.174,-0.065 0.2,-0.057 0.234,-0.057C0.268,-0.057 0.298,-0.064 0.325,-0.079C0.351,-0.094 0.37,-0.114 0.383,-0.14C0.392,-0.16 0.397,-0.189 0.397,-0.228L0.397,-0.26Z" style="fill:rgb(109,109,109);fill-rule:nonzero;"/>
                    </g>
                    <g transform="matrix(192,0,0,192,1612.77,805.891)">
                        <rect x="0.064" y="-0.716" width="0.088" height="0.716" style="fill:rgb(109,109,109);fill-rule:nonzero;"/>
                    </g>
                    <g transform="matrix(192,0,0,192,1655.42,805.891)">
                        <path d="M0.066,-0L0.066,-0.519L0.145,-0.519L0.145,-0.445C0.183,-0.502 0.238,-0.53 0.31,-0.53C0.341,-0.53 0.37,-0.525 0.396,-0.513C0.422,-0.502 0.442,-0.487 0.455,-0.469C0.468,-0.451 0.477,-0.429 0.482,-0.404C0.486,-0.388 0.487,-0.36 0.487,-0.319L0.487,-0L0.399,-0L0.399,-0.315C0.399,-0.351 0.396,-0.378 0.389,-0.396C0.382,-0.413 0.37,-0.428 0.353,-0.438C0.335,-0.449 0.315,-0.454 0.292,-0.454C0.254,-0.454 0.222,-0.442 0.194,-0.418C0.167,-0.395 0.154,-0.35 0.154,-0.283L0.154,-0L0.066,-0Z" style="fill:rgb(109,109,109);fill-rule:nonzero;"/>
                    </g>
                    <g transform="matrix(192,0,0,192,1762.21,805.891)">
                        <path d="M0.421,-0.167L0.512,-0.156C0.497,-0.103 0.471,-0.062 0.432,-0.032C0.393,-0.003 0.344,0.012 0.284,0.012C0.208,0.012 0.148,-0.012 0.103,-0.058C0.059,-0.105 0.037,-0.171 0.037,-0.255C0.037,-0.342 0.059,-0.41 0.104,-0.458C0.149,-0.506 0.207,-0.53 0.279,-0.53C0.348,-0.53 0.405,-0.507 0.449,-0.459C0.493,-0.412 0.515,-0.346 0.515,-0.26C0.515,-0.255 0.514,-0.247 0.514,-0.237L0.127,-0.237C0.131,-0.18 0.147,-0.136 0.176,-0.106C0.205,-0.076 0.241,-0.061 0.284,-0.061C0.316,-0.061 0.344,-0.069 0.367,-0.086C0.389,-0.103 0.408,-0.13 0.421,-0.167ZM0.132,-0.309L0.422,-0.309C0.418,-0.353 0.407,-0.385 0.389,-0.407C0.361,-0.441 0.324,-0.458 0.28,-0.458C0.239,-0.458 0.205,-0.444 0.178,-0.417C0.15,-0.39 0.135,-0.354 0.132,-0.309Z" style="fill:rgb(109,109,109);fill-rule:nonzero;"/>
                    </g>
                    <g transform="matrix(192,0,0,192,1868.99,805.891)">
                        <path d="M0.065,-0.614L0.065,-0.716L0.153,-0.716L0.153,-0.614L0.065,-0.614ZM-0.046,0.201L-0.029,0.126C-0.012,0.131 0.002,0.133 0.012,0.133C0.03,0.133 0.043,0.127 0.052,0.115C0.061,0.104 0.065,0.074 0.065,0.026L0.065,-0.519L0.153,-0.519L0.153,0.028C0.153,0.092 0.145,0.137 0.128,0.162C0.107,0.194 0.072,0.21 0.023,0.21C-0.001,0.21 -0.024,0.207 -0.046,0.201Z" style="fill:rgb(109,109,109);fill-rule:nonzero;"/>
                    </g>
                </g>
            </g>
            <g transform="matrix(1,0,0,1,-529.008,291.196)">
                <g>
                    <g transform="matrix(64,0,0,64,820.643,714.419)">
                        <path d="M0.477,-0.544C0.477,-0.568 0.476,-0.585 0.474,-0.595C0.472,-0.604 0.468,-0.612 0.461,-0.618C0.455,-0.624 0.443,-0.629 0.425,-0.634L0.425,-0.667L0.64,-0.667L0.64,-0.634C0.628,-0.631 0.619,-0.627 0.612,-0.624C0.605,-0.62 0.6,-0.615 0.597,-0.608C0.593,-0.601 0.591,-0.593 0.59,-0.583C0.589,-0.572 0.588,-0.56 0.588,-0.544L0.588,-0.239C0.588,-0.198 0.585,-0.165 0.579,-0.137C0.572,-0.11 0.562,-0.087 0.548,-0.069C0.535,-0.05 0.518,-0.035 0.497,-0.024C0.477,-0.013 0.454,-0.004 0.429,0C0.403,0.005 0.375,0.008 0.343,0.008C0.297,0.008 0.258,0.003 0.226,-0.006C0.194,-0.016 0.168,-0.031 0.148,-0.05C0.128,-0.069 0.113,-0.093 0.104,-0.121C0.094,-0.148 0.089,-0.184 0.089,-0.228L0.089,-0.543C0.089,-0.559 0.089,-0.572 0.088,-0.582C0.087,-0.592 0.085,-0.601 0.082,-0.607C0.078,-0.614 0.073,-0.619 0.066,-0.623C0.059,-0.627 0.049,-0.631 0.037,-0.634L0.037,-0.667L0.293,-0.667L0.293,-0.634C0.28,-0.631 0.27,-0.627 0.264,-0.623C0.257,-0.619 0.253,-0.614 0.25,-0.608C0.246,-0.602 0.244,-0.594 0.243,-0.585C0.241,-0.576 0.241,-0.562 0.241,-0.543L0.241,-0.221C0.241,-0.195 0.242,-0.172 0.246,-0.151C0.249,-0.13 0.255,-0.111 0.263,-0.096C0.272,-0.081 0.284,-0.07 0.299,-0.062C0.315,-0.053 0.334,-0.049 0.358,-0.049C0.392,-0.049 0.416,-0.056 0.433,-0.069C0.449,-0.083 0.46,-0.101 0.467,-0.125C0.474,-0.149 0.477,-0.185 0.477,-0.232L0.477,-0.544Z" style="fill:rgb(109,109,109);fill-rule:nonzero;"/>
                    </g>
                    <g transform="matrix(64,0,0,64,863.924,714.419)">
                        <path d="M0.573,-0L0.336,-0L0.336,-0.032C0.351,-0.036 0.361,-0.041 0.367,-0.048C0.373,-0.055 0.377,-0.064 0.379,-0.076C0.381,-0.088 0.382,-0.11 0.382,-0.141L0.382,-0.271C0.382,-0.294 0.382,-0.313 0.381,-0.328C0.38,-0.343 0.378,-0.355 0.376,-0.364C0.374,-0.374 0.371,-0.382 0.367,-0.388C0.364,-0.394 0.36,-0.399 0.355,-0.403C0.35,-0.408 0.345,-0.411 0.339,-0.413C0.333,-0.415 0.326,-0.416 0.317,-0.416C0.305,-0.416 0.292,-0.412 0.278,-0.404C0.265,-0.396 0.254,-0.386 0.245,-0.372C0.236,-0.359 0.231,-0.344 0.231,-0.329L0.231,-0.141C0.231,-0.11 0.232,-0.089 0.234,-0.077C0.236,-0.065 0.24,-0.055 0.246,-0.048C0.252,-0.041 0.263,-0.036 0.278,-0.032L0.278,-0L0.042,-0L0.042,-0.032C0.058,-0.036 0.068,-0.042 0.074,-0.049C0.08,-0.056 0.084,-0.065 0.086,-0.077C0.089,-0.088 0.09,-0.11 0.09,-0.141L0.09,-0.341C0.09,-0.365 0.089,-0.383 0.088,-0.395C0.088,-0.406 0.086,-0.416 0.083,-0.422C0.08,-0.43 0.075,-0.435 0.068,-0.439C0.062,-0.444 0.051,-0.448 0.036,-0.451L0.036,-0.484L0.169,-0.488L0.231,-0.488L0.224,-0.418L0.229,-0.417C0.25,-0.434 0.267,-0.448 0.283,-0.458C0.298,-0.469 0.314,-0.477 0.331,-0.483C0.347,-0.489 0.365,-0.492 0.384,-0.492C0.41,-0.492 0.433,-0.488 0.45,-0.48C0.468,-0.473 0.482,-0.462 0.493,-0.447C0.504,-0.433 0.512,-0.415 0.516,-0.394C0.521,-0.372 0.523,-0.348 0.523,-0.32L0.523,-0.141C0.523,-0.127 0.524,-0.113 0.524,-0.101C0.525,-0.088 0.526,-0.078 0.528,-0.071C0.53,-0.063 0.532,-0.057 0.536,-0.052C0.539,-0.048 0.544,-0.044 0.55,-0.041C0.556,-0.037 0.564,-0.035 0.573,-0.032L0.573,-0Z" style="fill:rgb(109,109,109);fill-rule:nonzero;"/>
                    </g>
                    <g transform="matrix(64,0,0,64,902.549,714.419)">
                        <path d="M0.227,-0.679L0.227,-0.56L0.093,-0.56L0.093,-0.679L0.227,-0.679ZM0.042,-0.032C0.057,-0.036 0.068,-0.042 0.074,-0.049C0.08,-0.056 0.084,-0.065 0.086,-0.077C0.089,-0.088 0.09,-0.11 0.09,-0.141L0.09,-0.368C0.09,-0.384 0.089,-0.396 0.087,-0.406C0.086,-0.416 0.083,-0.424 0.079,-0.43C0.075,-0.436 0.07,-0.44 0.063,-0.443C0.056,-0.446 0.047,-0.449 0.036,-0.451L0.036,-0.484L0.17,-0.488L0.231,-0.488L0.231,-0.141C0.231,-0.123 0.231,-0.109 0.231,-0.099C0.232,-0.089 0.233,-0.081 0.234,-0.076C0.235,-0.07 0.236,-0.066 0.238,-0.062C0.24,-0.057 0.242,-0.053 0.245,-0.05C0.248,-0.046 0.252,-0.043 0.258,-0.04C0.263,-0.037 0.271,-0.035 0.28,-0.032L0.28,-0L0.042,-0L0.042,-0.032Z" style="fill:rgb(109,109,109);fill-rule:nonzero;"/>
                    </g>
                    <g transform="matrix(64,0,0,64,921.268,714.419)">
                        <path d="M0.489,0.005L0.397,-0.31L0.29,0.005L0.191,0.005L0.073,-0.367C0.066,-0.389 0.06,-0.406 0.055,-0.416C0.05,-0.426 0.044,-0.434 0.038,-0.44C0.032,-0.446 0.024,-0.45 0.013,-0.452L0.013,-0.484L0.252,-0.484L0.252,-0.452C0.237,-0.45 0.225,-0.445 0.217,-0.438C0.21,-0.431 0.206,-0.422 0.206,-0.41C0.206,-0.402 0.207,-0.393 0.21,-0.383C0.213,-0.373 0.215,-0.363 0.219,-0.352L0.28,-0.149L0.392,-0.484L0.483,-0.484L0.578,-0.149L0.642,-0.325C0.648,-0.343 0.653,-0.358 0.655,-0.37C0.657,-0.382 0.659,-0.392 0.659,-0.401C0.659,-0.415 0.655,-0.426 0.647,-0.435C0.639,-0.444 0.628,-0.45 0.614,-0.452L0.614,-0.484L0.798,-0.484L0.798,-0.452C0.788,-0.449 0.78,-0.445 0.775,-0.441C0.77,-0.438 0.765,-0.432 0.76,-0.425C0.755,-0.418 0.75,-0.409 0.744,-0.396C0.738,-0.382 0.729,-0.361 0.718,-0.333L0.586,0.005L0.489,0.005Z" style="fill:rgb(109,109,109);fill-rule:nonzero;"/>
                    </g>
                    <g transform="matrix(64,0,0,64,970.799,714.419)">
                        <path d="M0.484,-0.089C0.451,-0.054 0.418,-0.029 0.385,-0.014C0.353,0 0.315,0.008 0.273,0.008C0.197,0.008 0.14,-0.013 0.102,-0.054C0.063,-0.096 0.044,-0.158 0.044,-0.239C0.044,-0.292 0.054,-0.337 0.074,-0.375C0.094,-0.414 0.122,-0.443 0.158,-0.462C0.194,-0.482 0.236,-0.492 0.284,-0.492C0.313,-0.492 0.339,-0.489 0.361,-0.482C0.384,-0.475 0.403,-0.465 0.419,-0.453C0.435,-0.441 0.448,-0.426 0.458,-0.409C0.471,-0.389 0.48,-0.365 0.486,-0.339C0.493,-0.312 0.496,-0.279 0.497,-0.241L0.187,-0.241C0.187,-0.182 0.198,-0.138 0.218,-0.11C0.239,-0.083 0.271,-0.069 0.313,-0.069C0.338,-0.069 0.36,-0.073 0.38,-0.083C0.4,-0.092 0.421,-0.108 0.444,-0.132L0.484,-0.089ZM0.352,-0.293C0.351,-0.343 0.344,-0.38 0.333,-0.405C0.321,-0.429 0.302,-0.441 0.276,-0.441C0.251,-0.441 0.231,-0.429 0.216,-0.403C0.201,-0.378 0.192,-0.341 0.189,-0.293L0.352,-0.293Z" style="fill:rgb(109,109,109);fill-rule:nonzero;"/>
                    </g>
                    <g transform="matrix(64,0,0,64,1004.77,714.419)">
                        <path d="M0.224,-0.415L0.23,-0.413C0.254,-0.441 0.279,-0.461 0.304,-0.474C0.329,-0.486 0.356,-0.492 0.385,-0.492C0.405,-0.492 0.426,-0.49 0.448,-0.486L0.448,-0.351L0.359,-0.351C0.354,-0.37 0.347,-0.384 0.337,-0.395C0.329,-0.405 0.317,-0.41 0.302,-0.41C0.295,-0.41 0.287,-0.407 0.278,-0.403C0.269,-0.399 0.261,-0.392 0.254,-0.384C0.247,-0.376 0.242,-0.368 0.238,-0.36C0.235,-0.352 0.233,-0.343 0.232,-0.335C0.231,-0.326 0.231,-0.314 0.231,-0.297L0.231,-0.141C0.231,-0.11 0.232,-0.089 0.234,-0.076C0.237,-0.064 0.241,-0.054 0.248,-0.047C0.255,-0.04 0.266,-0.035 0.283,-0.032L0.283,-0L0.042,-0L0.042,-0.032C0.058,-0.036 0.068,-0.042 0.074,-0.049C0.08,-0.056 0.084,-0.065 0.086,-0.077C0.089,-0.088 0.09,-0.11 0.09,-0.141L0.09,-0.341C0.09,-0.365 0.089,-0.383 0.088,-0.395C0.088,-0.406 0.086,-0.416 0.083,-0.422C0.08,-0.43 0.075,-0.435 0.068,-0.439C0.062,-0.444 0.051,-0.448 0.036,-0.451L0.036,-0.484L0.169,-0.488L0.231,-0.488L0.224,-0.415Z" style="fill:rgb(109,109,109);fill-rule:nonzero;"/>
                    </g>
                    <g transform="matrix(64,0,0,64,1034.3,714.419)">
                        <path d="M0.105,-0.132C0.113,-0.102 0.125,-0.08 0.142,-0.065C0.159,-0.05 0.182,-0.043 0.21,-0.043C0.234,-0.043 0.253,-0.049 0.265,-0.06C0.278,-0.071 0.284,-0.087 0.284,-0.108C0.284,-0.121 0.281,-0.133 0.275,-0.142C0.27,-0.152 0.26,-0.16 0.247,-0.169C0.234,-0.178 0.212,-0.189 0.18,-0.203C0.162,-0.211 0.145,-0.22 0.129,-0.229C0.113,-0.238 0.1,-0.249 0.088,-0.261C0.076,-0.273 0.067,-0.286 0.06,-0.301C0.053,-0.315 0.05,-0.332 0.05,-0.35C0.05,-0.379 0.058,-0.404 0.075,-0.426C0.092,-0.447 0.116,-0.464 0.147,-0.475C0.179,-0.486 0.215,-0.492 0.255,-0.492C0.279,-0.492 0.302,-0.491 0.325,-0.489C0.348,-0.487 0.377,-0.483 0.414,-0.477L0.414,-0.363L0.349,-0.363C0.342,-0.384 0.333,-0.4 0.324,-0.411C0.315,-0.423 0.306,-0.43 0.295,-0.435C0.284,-0.439 0.271,-0.441 0.256,-0.441C0.235,-0.441 0.218,-0.437 0.205,-0.427C0.192,-0.417 0.186,-0.403 0.186,-0.386C0.186,-0.373 0.188,-0.363 0.193,-0.354C0.197,-0.345 0.206,-0.337 0.217,-0.328C0.229,-0.32 0.252,-0.309 0.285,-0.295C0.316,-0.282 0.341,-0.269 0.36,-0.255C0.379,-0.241 0.394,-0.225 0.404,-0.207C0.414,-0.189 0.419,-0.168 0.419,-0.144C0.419,-0.118 0.414,-0.095 0.404,-0.076C0.395,-0.057 0.381,-0.041 0.363,-0.029C0.346,-0.016 0.325,-0.007 0.3,-0.001C0.275,0.005 0.248,0.008 0.219,0.008C0.165,0.008 0.105,0 0.04,-0.015L0.04,-0.132L0.105,-0.132Z" style="fill:rgb(109,109,109);fill-rule:nonzero;"/>
                    </g>
                    <g transform="matrix(64,0,0,64,1063.21,714.419)">
                        <path d="M0.288,0.022C0.267,0.069 0.247,0.106 0.228,0.133C0.209,0.16 0.189,0.18 0.167,0.193C0.146,0.207 0.119,0.213 0.087,0.213C0.063,0.213 0.04,0.21 0.019,0.204L0.019,0.092L0.073,0.092C0.077,0.108 0.083,0.118 0.089,0.124C0.095,0.129 0.104,0.132 0.116,0.132C0.128,0.132 0.139,0.129 0.149,0.122C0.159,0.115 0.17,0.102 0.183,0.083C0.195,0.065 0.211,0.037 0.229,-0L0.201,-0L0.074,-0.367C0.065,-0.392 0.057,-0.41 0.052,-0.419C0.047,-0.429 0.041,-0.437 0.034,-0.441C0.027,-0.447 0.019,-0.45 0.009,-0.452L0.009,-0.484L0.253,-0.484L0.253,-0.452C0.238,-0.449 0.226,-0.445 0.219,-0.439C0.212,-0.433 0.208,-0.424 0.208,-0.413C0.208,-0.397 0.213,-0.377 0.221,-0.352L0.292,-0.138L0.369,-0.325C0.376,-0.341 0.381,-0.354 0.384,-0.366C0.387,-0.378 0.389,-0.39 0.389,-0.401C0.389,-0.415 0.385,-0.426 0.377,-0.435C0.369,-0.444 0.358,-0.45 0.344,-0.452L0.344,-0.484L0.534,-0.484L0.534,-0.452C0.524,-0.449 0.517,-0.445 0.511,-0.441C0.505,-0.437 0.5,-0.431 0.495,-0.424C0.49,-0.417 0.484,-0.407 0.477,-0.394C0.469,-0.38 0.46,-0.36 0.447,-0.333L0.288,0.022Z" style="fill:rgb(109,109,109);fill-rule:nonzero;"/>
                    </g>
                    <g transform="matrix(64,0,0,64,1097.17,714.419)">
                        <path d="M0.376,-0.059C0.347,-0.034 0.321,-0.017 0.298,-0.007C0.274,0.003 0.25,0.008 0.224,0.008C0.175,0.008 0.139,-0.005 0.115,-0.031C0.091,-0.058 0.079,-0.097 0.079,-0.15L0.079,-0.423L0.018,-0.423L0.018,-0.457C0.038,-0.46 0.053,-0.465 0.062,-0.472C0.071,-0.478 0.079,-0.487 0.084,-0.498C0.089,-0.509 0.093,-0.523 0.096,-0.541C0.099,-0.558 0.102,-0.58 0.104,-0.606L0.22,-0.606L0.22,-0.484L0.359,-0.484L0.359,-0.423L0.22,-0.423L0.22,-0.203C0.22,-0.166 0.222,-0.139 0.225,-0.122C0.229,-0.104 0.235,-0.091 0.243,-0.083C0.251,-0.074 0.261,-0.07 0.273,-0.07C0.282,-0.07 0.29,-0.071 0.297,-0.073C0.305,-0.074 0.312,-0.077 0.32,-0.082C0.328,-0.086 0.336,-0.092 0.345,-0.1L0.376,-0.059Z" style="fill:rgb(109,109,109);fill-rule:nonzero;"/>
                    </g>
                    <g transform="matrix(64,0,0,64,1119.67,714.419)">
                        <path d="M0.484,-0.089C0.451,-0.054 0.418,-0.029 0.385,-0.014C0.353,0 0.315,0.008 0.273,0.008C0.197,0.008 0.14,-0.013 0.102,-0.054C0.063,-0.096 0.044,-0.158 0.044,-0.239C0.044,-0.292 0.054,-0.337 0.074,-0.375C0.094,-0.414 0.122,-0.443 0.158,-0.462C0.194,-0.482 0.236,-0.492 0.284,-0.492C0.313,-0.492 0.339,-0.489 0.361,-0.482C0.384,-0.475 0.403,-0.465 0.419,-0.453C0.435,-0.441 0.448,-0.426 0.458,-0.409C0.471,-0.389 0.48,-0.365 0.486,-0.339C0.493,-0.312 0.496,-0.279 0.497,-0.241L0.187,-0.241C0.187,-0.182 0.198,-0.138 0.218,-0.11C0.239,-0.083 0.271,-0.069 0.313,-0.069C0.338,-0.069 0.36,-0.073 0.38,-0.083C0.4,-0.092 0.421,-0.108 0.444,-0.132L0.484,-0.089ZM0.352,-0.293C0.351,-0.343 0.344,-0.38 0.333,-0.405C0.321,-0.429 0.302,-0.441 0.276,-0.441C0.251,-0.441 0.231,-0.429 0.216,-0.403C0.201,-0.378 0.192,-0.341 0.189,-0.293L0.352,-0.293Z" style="fill:rgb(109,109,109);fill-rule:nonzero;"/>
                    </g>
                    <g transform="matrix(64,0,0,64,1153.64,714.419)">
                        <path d="M0.376,-0.059C0.347,-0.034 0.321,-0.017 0.298,-0.007C0.274,0.003 0.25,0.008 0.224,0.008C0.175,0.008 0.139,-0.005 0.115,-0.031C0.091,-0.058 0.079,-0.097 0.079,-0.15L0.079,-0.423L0.018,-0.423L0.018,-0.457C0.038,-0.46 0.053,-0.465 0.062,-0.472C0.071,-0.478 0.079,-0.487 0.084,-0.498C0.089,-0.509 0.093,-0.523 0.096,-0.541C0.099,-0.558 0.102,-0.58 0.104,-0.606L0.22,-0.606L0.22,-0.484L0.359,-0.484L0.359,-0.423L0.22,-0.423L0.22,-0.203C0.22,-0.166 0.222,-0.139 0.225,-0.122C0.229,-0.104 0.235,-0.091 0.243,-0.083C0.251,-0.074 0.261,-0.07 0.273,-0.07C0.282,-0.07 0.29,-0.071 0.297,-0.073C0.305,-0.074 0.312,-0.077 0.32,-0.082C0.328,-0.086 0.336,-0.092 0.345,-0.1L0.376,-0.059Z" style="fill:rgb(109,109,109);fill-rule:nonzero;"/>
                    </g>
                    <g transform="matrix(64,0,0,64,1191.11,714.419)">
                        <path d="M0.799,-0.634C0.782,-0.629 0.77,-0.624 0.764,-0.618C0.757,-0.613 0.753,-0.605 0.75,-0.595C0.748,-0.586 0.747,-0.569 0.747,-0.544L0.747,-0.122C0.747,-0.102 0.748,-0.086 0.75,-0.075C0.752,-0.063 0.756,-0.055 0.762,-0.048C0.768,-0.042 0.78,-0.037 0.799,-0.032L0.799,-0L0.548,-0L0.548,-0.032C0.563,-0.036 0.573,-0.04 0.578,-0.042C0.584,-0.045 0.588,-0.049 0.591,-0.054C0.594,-0.059 0.596,-0.066 0.598,-0.075C0.599,-0.085 0.6,-0.101 0.6,-0.123L0.6,-0.362C0.6,-0.389 0.601,-0.42 0.602,-0.456C0.603,-0.491 0.604,-0.517 0.604,-0.532L0.594,-0.532C0.59,-0.519 0.586,-0.506 0.582,-0.493C0.577,-0.481 0.569,-0.458 0.557,-0.426L0.426,-0.074L0.34,-0.074L0.203,-0.47C0.194,-0.492 0.187,-0.514 0.181,-0.537L0.172,-0.537C0.176,-0.483 0.177,-0.419 0.177,-0.346L0.177,-0.122C0.177,-0.097 0.178,-0.081 0.181,-0.071C0.183,-0.062 0.188,-0.054 0.194,-0.048C0.201,-0.042 0.213,-0.036 0.23,-0.032L0.23,-0L0.045,-0L0.045,-0.032C0.057,-0.035 0.067,-0.039 0.074,-0.043C0.081,-0.047 0.086,-0.052 0.09,-0.059C0.093,-0.065 0.096,-0.073 0.096,-0.083C0.097,-0.094 0.098,-0.106 0.098,-0.122L0.098,-0.544C0.098,-0.569 0.097,-0.586 0.094,-0.595C0.092,-0.604 0.088,-0.612 0.082,-0.618C0.076,-0.624 0.064,-0.629 0.045,-0.634L0.045,-0.667L0.288,-0.667L0.423,-0.266L0.57,-0.667L0.799,-0.667L0.799,-0.634Z" style="fill:rgb(109,109,109);fill-rule:nonzero;"/>
                    </g>
                    <g transform="matrix(64,0,0,64,1245.27,714.419)">
                        <path d="M0.484,-0.089C0.451,-0.054 0.418,-0.029 0.385,-0.014C0.353,0 0.315,0.008 0.273,0.008C0.197,0.008 0.14,-0.013 0.102,-0.054C0.063,-0.096 0.044,-0.158 0.044,-0.239C0.044,-0.292 0.054,-0.337 0.074,-0.375C0.094,-0.414 0.122,-0.443 0.158,-0.462C0.194,-0.482 0.236,-0.492 0.284,-0.492C0.313,-0.492 0.339,-0.489 0.361,-0.482C0.384,-0.475 0.403,-0.465 0.419,-0.453C0.435,-0.441 0.448,-0.426 0.458,-0.409C0.471,-0.389 0.48,-0.365 0.486,-0.339C0.493,-0.312 0.496,-0.279 0.497,-0.241L0.187,-0.241C0.187,-0.182 0.198,-0.138 0.218,-0.11C0.239,-0.083 0.271,-0.069 0.313,-0.069C0.338,-0.069 0.36,-0.073 0.38,-0.083C0.4,-0.092 0.421,-0.108 0.444,-0.132L0.484,-0.089ZM0.352,-0.293C0.351,-0.343 0.344,-0.38 0.333,-0.405C0.321,-0.429 0.302,-0.441 0.276,-0.441C0.251,-0.441 0.231,-0.429 0.216,-0.403C0.201,-0.378 0.192,-0.341 0.189,-0.293L0.352,-0.293Z" style="fill:rgb(109,109,109);fill-rule:nonzero;"/>
                    </g>
                    <g transform="matrix(64,0,0,64,1279.24,714.419)">
                        <path d="M0.514,-0.143C0.514,-0.118 0.514,-0.1 0.515,-0.088C0.516,-0.077 0.518,-0.068 0.521,-0.061C0.523,-0.054 0.528,-0.049 0.535,-0.044C0.541,-0.04 0.552,-0.036 0.567,-0.033L0.567,-0L0.435,0.004L0.375,0.004L0.38,-0.066L0.373,-0.066C0.349,-0.043 0.324,-0.024 0.298,-0.011C0.273,0.001 0.248,0.008 0.224,0.008C0.165,0.008 0.12,-0.013 0.091,-0.053C0.062,-0.094 0.047,-0.155 0.047,-0.237C0.047,-0.292 0.056,-0.339 0.074,-0.376C0.092,-0.415 0.118,-0.443 0.153,-0.463C0.189,-0.482 0.231,-0.492 0.281,-0.492C0.296,-0.492 0.31,-0.491 0.323,-0.489C0.337,-0.488 0.354,-0.484 0.373,-0.479L0.373,-0.523C0.373,-0.558 0.372,-0.583 0.371,-0.597C0.37,-0.612 0.368,-0.623 0.365,-0.63C0.362,-0.638 0.357,-0.644 0.351,-0.648C0.345,-0.653 0.334,-0.656 0.317,-0.66L0.317,-0.692L0.453,-0.699L0.514,-0.699L0.514,-0.143ZM0.373,-0.324C0.373,-0.364 0.366,-0.393 0.353,-0.413C0.339,-0.432 0.319,-0.441 0.291,-0.441C0.271,-0.441 0.253,-0.434 0.239,-0.419C0.224,-0.405 0.214,-0.384 0.206,-0.357C0.199,-0.33 0.195,-0.297 0.195,-0.26C0.195,-0.196 0.202,-0.148 0.216,-0.116C0.23,-0.085 0.252,-0.069 0.282,-0.069C0.296,-0.069 0.31,-0.072 0.323,-0.079C0.337,-0.086 0.349,-0.097 0.358,-0.111C0.368,-0.126 0.373,-0.143 0.373,-0.162L0.373,-0.324Z" style="fill:rgb(109,109,109);fill-rule:nonzero;"/>
                    </g>
                    <g transform="matrix(64,0,0,64,1315.77,714.419)">
                        <path d="M0.288,0.022C0.267,0.069 0.247,0.106 0.228,0.133C0.209,0.16 0.189,0.18 0.167,0.193C0.146,0.207 0.119,0.213 0.087,0.213C0.063,0.213 0.04,0.21 0.019,0.204L0.019,0.092L0.073,0.092C0.077,0.108 0.083,0.118 0.089,0.124C0.095,0.129 0.104,0.132 0.116,0.132C0.128,0.132 0.139,0.129 0.149,0.122C0.159,0.115 0.17,0.102 0.183,0.083C0.195,0.065 0.211,0.037 0.229,-0L0.201,-0L0.074,-0.367C0.065,-0.392 0.057,-0.41 0.052,-0.419C0.047,-0.429 0.041,-0.437 0.034,-0.441C0.027,-0.447 0.019,-0.45 0.009,-0.452L0.009,-0.484L0.253,-0.484L0.253,-0.452C0.238,-0.449 0.226,-0.445 0.219,-0.439C0.212,-0.433 0.208,-0.424 0.208,-0.413C0.208,-0.397 0.213,-0.377 0.221,-0.352L0.292,-0.138L0.369,-0.325C0.376,-0.341 0.381,-0.354 0.384,-0.366C0.387,-0.378 0.389,-0.39 0.389,-0.401C0.389,-0.415 0.385,-0.426 0.377,-0.435C0.369,-0.444 0.358,-0.45 0.344,-0.452L0.344,-0.484L0.534,-0.484L0.534,-0.452C0.524,-0.449 0.517,-0.445 0.511,-0.441C0.505,-0.437 0.5,-0.431 0.495,-0.424C0.49,-0.417 0.484,-0.407 0.477,-0.394C0.469,-0.38 0.46,-0.36 0.447,-0.333L0.288,0.022Z" style="fill:rgb(109,109,109);fill-rule:nonzero;"/>
                    </g>
                    <g transform="matrix(64,0,0,64,1347.92,714.419)">
                        <path d="M0.414,-0.125L0.452,-0.08C0.42,-0.048 0.389,-0.026 0.359,-0.012C0.329,0.001 0.297,0.008 0.262,0.008C0.191,0.008 0.137,-0.013 0.1,-0.054C0.063,-0.096 0.044,-0.156 0.044,-0.235C0.044,-0.289 0.055,-0.335 0.075,-0.374C0.095,-0.413 0.125,-0.442 0.163,-0.462C0.201,-0.482 0.244,-0.492 0.293,-0.492C0.32,-0.492 0.346,-0.49 0.372,-0.486C0.398,-0.483 0.422,-0.478 0.444,-0.471L0.444,-0.354L0.347,-0.354C0.342,-0.384 0.335,-0.406 0.325,-0.42C0.315,-0.434 0.301,-0.441 0.283,-0.441C0.271,-0.441 0.26,-0.438 0.249,-0.432C0.238,-0.426 0.228,-0.416 0.22,-0.401C0.212,-0.386 0.205,-0.366 0.2,-0.341C0.195,-0.317 0.193,-0.285 0.193,-0.247C0.193,-0.209 0.196,-0.177 0.204,-0.15C0.211,-0.124 0.222,-0.104 0.238,-0.09C0.254,-0.076 0.275,-0.069 0.301,-0.069C0.32,-0.069 0.338,-0.073 0.354,-0.081C0.371,-0.089 0.391,-0.104 0.414,-0.125Z" style="fill:rgb(109,109,109);fill-rule:nonzero;"/>
                    </g>
                    <g transform="matrix(64,0,0,64,1377.92,714.419)">
                        <path d="M0.197,-0.052L0.3,-0.052C0.314,-0.052 0.327,-0.055 0.337,-0.061C0.347,-0.067 0.357,-0.078 0.365,-0.093C0.373,-0.109 0.381,-0.13 0.388,-0.157L0.447,-0.157L0.447,-0L0.032,-0L0.032,-0.032L0.282,-0.433L0.185,-0.433C0.169,-0.433 0.157,-0.43 0.147,-0.425C0.138,-0.42 0.129,-0.411 0.122,-0.398C0.114,-0.386 0.105,-0.365 0.095,-0.336L0.036,-0.336L0.036,-0.484L0.447,-0.484L0.447,-0.452L0.197,-0.052Z" style="fill:rgb(109,109,109);fill-rule:nonzero;"/>
                    </g>
                    <g transform="matrix(64,0,0,64,1408.58,714.419)">
                        <path d="M0.573,-0L0.336,-0L0.336,-0.032C0.351,-0.036 0.361,-0.041 0.367,-0.048C0.373,-0.055 0.377,-0.064 0.379,-0.076C0.381,-0.088 0.382,-0.11 0.382,-0.141L0.382,-0.271C0.382,-0.294 0.382,-0.313 0.381,-0.328C0.38,-0.343 0.378,-0.355 0.376,-0.364C0.374,-0.374 0.371,-0.382 0.367,-0.388C0.364,-0.394 0.36,-0.399 0.355,-0.403C0.35,-0.408 0.345,-0.411 0.339,-0.413C0.333,-0.415 0.326,-0.416 0.317,-0.416C0.305,-0.416 0.292,-0.412 0.278,-0.404C0.265,-0.396 0.254,-0.386 0.245,-0.372C0.236,-0.359 0.231,-0.344 0.231,-0.329L0.231,-0.141C0.231,-0.11 0.232,-0.089 0.234,-0.077C0.236,-0.065 0.24,-0.055 0.246,-0.048C0.252,-0.041 0.263,-0.036 0.278,-0.032L0.278,-0L0.042,-0L0.042,-0.032C0.058,-0.036 0.068,-0.042 0.074,-0.049C0.08,-0.056 0.084,-0.065 0.086,-0.077C0.089,-0.088 0.09,-0.11 0.09,-0.141L0.09,-0.341C0.09,-0.365 0.089,-0.383 0.088,-0.395C0.088,-0.406 0.086,-0.416 0.083,-0.422C0.08,-0.43 0.075,-0.435 0.068,-0.439C0.062,-0.444 0.051,-0.448 0.036,-0.451L0.036,-0.484L0.169,-0.488L0.231,-0.488L0.224,-0.418L0.229,-0.417C0.25,-0.434 0.267,-0.448 0.283,-0.458C0.298,-0.469 0.314,-0.477 0.331,-0.483C0.347,-0.489 0.365,-0.492 0.384,-0.492C0.41,-0.492 0.433,-0.488 0.45,-0.48C0.468,-0.473 0.482,-0.462 0.493,-0.447C0.504,-0.433 0.512,-0.415 0.516,-0.394C0.521,-0.372 0.523,-0.348 0.523,-0.32L0.523,-0.141C0.523,-0.127 0.524,-0.113 0.524,-0.101C0.525,-0.088 0.526,-0.078 0.528,-0.071C0.53,-0.063 0.532,-0.057 0.536,-0.052C0.539,-0.048 0.544,-0.044 0.55,-0.041C0.556,-0.037 0.564,-0.035 0.573,-0.032L0.573,-0Z" style="fill:rgb(109,109,109);fill-rule:nonzero;"/>
                    </g>
                    <g transform="matrix(64,0,0,64,1445.17,714.419)">
                        <path d="M0.288,0.022C0.267,0.069 0.247,0.106 0.228,0.133C0.209,0.16 0.189,0.18 0.167,0.193C0.146,0.207 0.119,0.213 0.087,0.213C0.063,0.213 0.04,0.21 0.019,0.204L0.019,0.092L0.073,0.092C0.077,0.108 0.083,0.118 0.089,0.124C0.095,0.129 0.104,0.132 0.116,0.132C0.128,0.132 0.139,0.129 0.149,0.122C0.159,0.115 0.17,0.102 0.183,0.083C0.195,0.065 0.211,0.037 0.229,-0L0.201,-0L0.074,-0.367C0.065,-0.392 0.057,-0.41 0.052,-0.419C0.047,-0.429 0.041,-0.437 0.034,-0.441C0.027,-0.447 0.019,-0.45 0.009,-0.452L0.009,-0.484L0.253,-0.484L0.253,-0.452C0.238,-0.449 0.226,-0.445 0.219,-0.439C0.212,-0.433 0.208,-0.424 0.208,-0.413C0.208,-0.397 0.213,-0.377 0.221,-0.352L0.292,-0.138L0.369,-0.325C0.376,-0.341 0.381,-0.354 0.384,-0.366C0.387,-0.378 0.389,-0.39 0.389,-0.401C0.389,-0.415 0.385,-0.426 0.377,-0.435C0.369,-0.444 0.358,-0.45 0.344,-0.452L0.344,-0.484L0.534,-0.484L0.534,-0.452C0.524,-0.449 0.517,-0.445 0.511,-0.441C0.505,-0.437 0.5,-0.431 0.495,-0.424C0.49,-0.417 0.484,-0.407 0.477,-0.394C0.469,-0.38 0.46,-0.36 0.447,-0.333L0.288,0.022Z" style="fill:rgb(109,109,109);fill-rule:nonzero;"/>
                    </g>
                    <g transform="matrix(64,0,0,64,1493.24,714.419)">
                        <path d="M0.227,-0.679L0.227,-0.56L0.093,-0.56L0.093,-0.679L0.227,-0.679ZM0.042,-0.032C0.057,-0.036 0.068,-0.042 0.074,-0.049C0.08,-0.056 0.084,-0.065 0.086,-0.077C0.089,-0.088 0.09,-0.11 0.09,-0.141L0.09,-0.368C0.09,-0.384 0.089,-0.396 0.087,-0.406C0.086,-0.416 0.083,-0.424 0.079,-0.43C0.075,-0.436 0.07,-0.44 0.063,-0.443C0.056,-0.446 0.047,-0.449 0.036,-0.451L0.036,-0.484L0.17,-0.488L0.231,-0.488L0.231,-0.141C0.231,-0.123 0.231,-0.109 0.231,-0.099C0.232,-0.089 0.233,-0.081 0.234,-0.076C0.235,-0.07 0.236,-0.066 0.238,-0.062C0.24,-0.057 0.242,-0.053 0.245,-0.05C0.248,-0.046 0.252,-0.043 0.258,-0.04C0.263,-0.037 0.271,-0.035 0.28,-0.032L0.28,-0L0.042,-0L0.042,-0.032Z" style="fill:rgb(109,109,109);fill-rule:nonzero;"/>
                    </g>
                    <g transform="matrix(64,0,0,64,1513.36,714.419)">
                        <path d="M0.224,-0.418L0.229,-0.417C0.259,-0.444 0.286,-0.464 0.31,-0.475C0.333,-0.486 0.358,-0.492 0.382,-0.492C0.406,-0.492 0.426,-0.489 0.442,-0.483C0.458,-0.477 0.472,-0.468 0.483,-0.456C0.494,-0.444 0.503,-0.428 0.51,-0.409C0.543,-0.44 0.571,-0.461 0.595,-0.474C0.62,-0.486 0.645,-0.492 0.671,-0.492C0.697,-0.492 0.719,-0.489 0.736,-0.482C0.753,-0.475 0.767,-0.465 0.778,-0.45C0.789,-0.436 0.797,-0.418 0.802,-0.396C0.807,-0.375 0.81,-0.349 0.81,-0.319L0.81,-0.141C0.81,-0.127 0.81,-0.113 0.811,-0.101C0.811,-0.088 0.813,-0.078 0.814,-0.071C0.816,-0.063 0.819,-0.057 0.822,-0.052C0.826,-0.048 0.831,-0.044 0.837,-0.041C0.843,-0.037 0.851,-0.035 0.859,-0.032L0.859,-0L0.624,-0L0.624,-0.032C0.639,-0.036 0.649,-0.041 0.654,-0.048C0.66,-0.055 0.664,-0.064 0.666,-0.076C0.668,-0.088 0.669,-0.11 0.669,-0.141L0.669,-0.271C0.669,-0.301 0.668,-0.325 0.666,-0.343C0.664,-0.361 0.66,-0.376 0.655,-0.386C0.649,-0.397 0.643,-0.404 0.635,-0.409C0.627,-0.413 0.617,-0.416 0.605,-0.416C0.597,-0.416 0.589,-0.414 0.582,-0.412C0.574,-0.409 0.567,-0.405 0.56,-0.399C0.552,-0.394 0.546,-0.389 0.541,-0.383C0.536,-0.378 0.532,-0.372 0.528,-0.365C0.525,-0.358 0.523,-0.35 0.522,-0.342C0.521,-0.333 0.521,-0.319 0.521,-0.3L0.521,-0.141C0.521,-0.119 0.521,-0.102 0.521,-0.09C0.522,-0.079 0.524,-0.069 0.527,-0.062C0.529,-0.055 0.534,-0.049 0.539,-0.044C0.545,-0.039 0.554,-0.035 0.566,-0.032L0.566,-0L0.333,-0L0.333,-0.032C0.348,-0.036 0.359,-0.041 0.364,-0.048C0.37,-0.055 0.374,-0.064 0.376,-0.076C0.378,-0.088 0.379,-0.109 0.379,-0.141L0.379,-0.271C0.379,-0.293 0.378,-0.311 0.377,-0.326C0.377,-0.341 0.375,-0.353 0.374,-0.362C0.372,-0.371 0.369,-0.379 0.365,-0.386C0.362,-0.393 0.358,-0.398 0.354,-0.402C0.349,-0.407 0.344,-0.41 0.338,-0.412C0.332,-0.414 0.325,-0.416 0.315,-0.416C0.303,-0.416 0.291,-0.412 0.277,-0.404C0.264,-0.397 0.253,-0.386 0.244,-0.373C0.235,-0.36 0.231,-0.345 0.231,-0.33L0.231,-0.141C0.231,-0.111 0.232,-0.089 0.233,-0.077C0.235,-0.065 0.239,-0.055 0.245,-0.048C0.251,-0.041 0.261,-0.036 0.276,-0.032L0.276,-0L0.042,-0L0.042,-0.032C0.058,-0.036 0.068,-0.042 0.074,-0.049C0.08,-0.056 0.084,-0.065 0.086,-0.077C0.089,-0.088 0.09,-0.11 0.09,-0.141L0.09,-0.341C0.09,-0.365 0.089,-0.383 0.088,-0.395C0.088,-0.406 0.086,-0.416 0.083,-0.422C0.08,-0.43 0.075,-0.435 0.068,-0.439C0.062,-0.444 0.051,-0.448 0.036,-0.451L0.036,-0.484L0.169,-0.488L0.231,-0.488L0.224,-0.418Z" style="fill:rgb(109,109,109);fill-rule:nonzero;"/>
                    </g>
                    <g transform="matrix(64,0,0,64,1570.33,714.419)">
                        <rect x="0.05" y="-0.147" width="0.131" height="0.147" style="fill:rgb(109,109,109);fill-rule:nonzero;"/>
                    </g>
                    <g transform="matrix(64,0,0,64,1599.27,714.419)">
                        <path d="M0.59,-0.13C0.603,-0.11 0.613,-0.095 0.622,-0.083C0.63,-0.072 0.638,-0.063 0.645,-0.056C0.651,-0.05 0.657,-0.045 0.664,-0.041C0.67,-0.038 0.679,-0.035 0.689,-0.032L0.689,-0L0.424,-0L0.424,-0.032C0.435,-0.034 0.443,-0.036 0.447,-0.04C0.451,-0.044 0.453,-0.049 0.453,-0.055C0.453,-0.06 0.452,-0.065 0.45,-0.07C0.449,-0.076 0.445,-0.083 0.44,-0.093C0.434,-0.103 0.423,-0.12 0.406,-0.146L0.332,-0.262C0.322,-0.276 0.314,-0.287 0.308,-0.294C0.301,-0.302 0.294,-0.308 0.288,-0.311C0.281,-0.315 0.272,-0.316 0.26,-0.316L0.25,-0.316L0.25,-0.123C0.25,-0.111 0.251,-0.101 0.251,-0.091C0.252,-0.081 0.253,-0.073 0.255,-0.067C0.257,-0.061 0.26,-0.056 0.264,-0.051C0.268,-0.047 0.273,-0.043 0.279,-0.04C0.286,-0.037 0.294,-0.035 0.303,-0.032L0.303,-0L0.047,-0L0.047,-0.032C0.059,-0.035 0.068,-0.039 0.075,-0.042C0.082,-0.046 0.088,-0.052 0.091,-0.058C0.094,-0.065 0.097,-0.073 0.098,-0.083C0.099,-0.094 0.099,-0.107 0.099,-0.123L0.099,-0.543C0.099,-0.559 0.099,-0.572 0.098,-0.582C0.097,-0.592 0.095,-0.601 0.091,-0.607C0.088,-0.614 0.083,-0.619 0.076,-0.623C0.069,-0.627 0.059,-0.631 0.047,-0.634L0.047,-0.667L0.303,-0.667L0.303,-0.634C0.29,-0.631 0.279,-0.627 0.273,-0.623C0.267,-0.618 0.262,-0.613 0.259,-0.607C0.256,-0.602 0.254,-0.594 0.252,-0.585C0.251,-0.576 0.25,-0.562 0.25,-0.543L0.25,-0.37L0.261,-0.37C0.276,-0.37 0.288,-0.371 0.296,-0.375C0.305,-0.378 0.314,-0.384 0.323,-0.392C0.333,-0.401 0.351,-0.42 0.377,-0.451C0.404,-0.482 0.423,-0.506 0.435,-0.523C0.447,-0.54 0.455,-0.554 0.459,-0.564C0.464,-0.576 0.466,-0.586 0.466,-0.597C0.466,-0.609 0.462,-0.618 0.454,-0.624C0.447,-0.631 0.436,-0.634 0.422,-0.634L0.422,-0.667L0.671,-0.667L0.671,-0.633C0.659,-0.631 0.648,-0.628 0.64,-0.623C0.631,-0.618 0.621,-0.611 0.609,-0.601C0.598,-0.59 0.583,-0.576 0.566,-0.556L0.419,-0.392L0.59,-0.13Z" style="fill:rgb(109,109,109);fill-rule:nonzero;"/>
                    </g>
                    <g transform="matrix(64,0,0,64,1643.21,714.419)">
                        <path d="M0.331,-0.064L0.323,-0.066C0.297,-0.04 0.271,-0.021 0.245,-0.01C0.22,0.002 0.193,0.008 0.165,0.008C0.137,0.008 0.113,0.003 0.092,-0.007C0.071,-0.018 0.056,-0.032 0.045,-0.05C0.035,-0.069 0.029,-0.09 0.029,-0.113C0.029,-0.161 0.053,-0.199 0.1,-0.226C0.147,-0.254 0.218,-0.271 0.314,-0.278L0.314,-0.325C0.314,-0.355 0.311,-0.378 0.304,-0.395C0.297,-0.411 0.288,-0.423 0.277,-0.429C0.267,-0.436 0.254,-0.439 0.239,-0.439C0.224,-0.439 0.211,-0.437 0.2,-0.432C0.189,-0.426 0.179,-0.417 0.17,-0.402C0.162,-0.388 0.155,-0.368 0.151,-0.342L0.059,-0.342L0.059,-0.431C0.089,-0.444 0.113,-0.454 0.133,-0.461C0.153,-0.469 0.173,-0.474 0.192,-0.479C0.211,-0.484 0.229,-0.487 0.244,-0.489C0.259,-0.491 0.275,-0.492 0.29,-0.492C0.329,-0.492 0.361,-0.487 0.384,-0.477C0.408,-0.466 0.426,-0.449 0.438,-0.426C0.449,-0.402 0.455,-0.37 0.455,-0.329L0.455,-0.138C0.455,-0.117 0.456,-0.1 0.457,-0.088C0.458,-0.077 0.459,-0.068 0.461,-0.062C0.463,-0.056 0.466,-0.052 0.469,-0.048C0.472,-0.045 0.476,-0.042 0.481,-0.04C0.486,-0.038 0.495,-0.035 0.508,-0.032L0.508,-0L0.326,-0L0.331,-0.064ZM0.314,-0.23C0.264,-0.229 0.227,-0.22 0.202,-0.202C0.178,-0.185 0.166,-0.159 0.166,-0.125C0.166,-0.105 0.172,-0.089 0.183,-0.079C0.194,-0.068 0.209,-0.063 0.229,-0.063C0.243,-0.063 0.258,-0.067 0.271,-0.075C0.284,-0.083 0.295,-0.094 0.303,-0.107C0.311,-0.12 0.314,-0.134 0.314,-0.149L0.314,-0.23Z" style="fill:rgb(109,109,109);fill-rule:nonzero;"/>
                    </g>
                    <g transform="matrix(64,0,0,64,1677.46,714.419)">
                        <path d="M0.224,-0.415L0.23,-0.413C0.254,-0.441 0.279,-0.461 0.304,-0.474C0.329,-0.486 0.356,-0.492 0.385,-0.492C0.405,-0.492 0.426,-0.49 0.448,-0.486L0.448,-0.351L0.359,-0.351C0.354,-0.37 0.347,-0.384 0.337,-0.395C0.329,-0.405 0.317,-0.41 0.302,-0.41C0.295,-0.41 0.287,-0.407 0.278,-0.403C0.269,-0.399 0.261,-0.392 0.254,-0.384C0.247,-0.376 0.242,-0.368 0.238,-0.36C0.235,-0.352 0.233,-0.343 0.232,-0.335C0.231,-0.326 0.231,-0.314 0.231,-0.297L0.231,-0.141C0.231,-0.11 0.232,-0.089 0.234,-0.076C0.237,-0.064 0.241,-0.054 0.248,-0.047C0.255,-0.04 0.266,-0.035 0.283,-0.032L0.283,-0L0.042,-0L0.042,-0.032C0.058,-0.036 0.068,-0.042 0.074,-0.049C0.08,-0.056 0.084,-0.065 0.086,-0.077C0.089,-0.088 0.09,-0.11 0.09,-0.141L0.09,-0.341C0.09,-0.365 0.089,-0.383 0.088,-0.395C0.088,-0.406 0.086,-0.416 0.083,-0.422C0.08,-0.43 0.075,-0.435 0.068,-0.439C0.062,-0.444 0.051,-0.448 0.036,-0.451L0.036,-0.484L0.169,-0.488L0.231,-0.488L0.224,-0.415Z" style="fill:rgb(109,109,109);fill-rule:nonzero;"/>
                    </g>
                    <g transform="matrix(64,0,0,64,1706.05,714.419)">
                        <path d="M0.279,0.008C0.231,0.008 0.19,-0 0.155,-0.017C0.12,-0.034 0.093,-0.061 0.074,-0.098C0.054,-0.135 0.044,-0.182 0.044,-0.239C0.044,-0.282 0.05,-0.32 0.063,-0.352C0.075,-0.384 0.091,-0.41 0.113,-0.431C0.134,-0.452 0.16,-0.467 0.189,-0.477C0.219,-0.487 0.252,-0.492 0.287,-0.492C0.365,-0.492 0.425,-0.471 0.465,-0.43C0.505,-0.388 0.525,-0.328 0.525,-0.248C0.525,-0.191 0.515,-0.143 0.495,-0.105C0.475,-0.067 0.447,-0.039 0.41,-0.02C0.373,-0.001 0.33,0.008 0.279,0.008ZM0.193,-0.25C0.193,-0.181 0.201,-0.129 0.216,-0.094C0.231,-0.06 0.255,-0.043 0.286,-0.043C0.303,-0.043 0.318,-0.047 0.329,-0.056C0.341,-0.065 0.35,-0.078 0.357,-0.094C0.364,-0.111 0.369,-0.131 0.372,-0.154C0.375,-0.177 0.376,-0.203 0.376,-0.232C0.376,-0.302 0.369,-0.355 0.353,-0.389C0.338,-0.424 0.315,-0.441 0.285,-0.441C0.263,-0.441 0.245,-0.434 0.231,-0.42C0.218,-0.406 0.208,-0.385 0.202,-0.357C0.196,-0.329 0.193,-0.293 0.193,-0.25Z" style="fill:rgb(109,109,109);fill-rule:nonzero;"/>
                    </g>
                    <g transform="matrix(64,0,0,64,1742.49,714.419)">
                        <path d="M0.225,-0.141C0.225,-0.11 0.226,-0.089 0.228,-0.077C0.229,-0.065 0.233,-0.056 0.239,-0.049C0.245,-0.042 0.257,-0.036 0.273,-0.032L0.273,-0L0.034,-0L0.034,-0.032C0.044,-0.035 0.052,-0.037 0.057,-0.04C0.063,-0.043 0.067,-0.047 0.07,-0.051C0.073,-0.055 0.076,-0.06 0.078,-0.066C0.08,-0.073 0.082,-0.082 0.083,-0.093C0.083,-0.104 0.083,-0.12 0.083,-0.141L0.083,-0.522C0.083,-0.55 0.083,-0.57 0.083,-0.583C0.082,-0.597 0.081,-0.608 0.08,-0.617C0.078,-0.626 0.076,-0.633 0.072,-0.638C0.069,-0.644 0.064,-0.648 0.058,-0.651C0.052,-0.655 0.042,-0.658 0.028,-0.66L0.028,-0.692L0.164,-0.699L0.225,-0.699L0.225,-0.141Z" style="fill:rgb(109,109,109);fill-rule:nonzero;"/>
                    </g>
                    <g transform="matrix(64,0,0,64,1762.21,714.419)">
                        <path d="M0.331,-0.064L0.323,-0.066C0.297,-0.04 0.271,-0.021 0.245,-0.01C0.22,0.002 0.193,0.008 0.165,0.008C0.137,0.008 0.113,0.003 0.092,-0.007C0.071,-0.018 0.056,-0.032 0.045,-0.05C0.035,-0.069 0.029,-0.09 0.029,-0.113C0.029,-0.161 0.053,-0.199 0.1,-0.226C0.147,-0.254 0.218,-0.271 0.314,-0.278L0.314,-0.325C0.314,-0.355 0.311,-0.378 0.304,-0.395C0.297,-0.411 0.288,-0.423 0.277,-0.429C0.267,-0.436 0.254,-0.439 0.239,-0.439C0.224,-0.439 0.211,-0.437 0.2,-0.432C0.189,-0.426 0.179,-0.417 0.17,-0.402C0.162,-0.388 0.155,-0.368 0.151,-0.342L0.059,-0.342L0.059,-0.431C0.089,-0.444 0.113,-0.454 0.133,-0.461C0.153,-0.469 0.173,-0.474 0.192,-0.479C0.211,-0.484 0.229,-0.487 0.244,-0.489C0.259,-0.491 0.275,-0.492 0.29,-0.492C0.329,-0.492 0.361,-0.487 0.384,-0.477C0.408,-0.466 0.426,-0.449 0.438,-0.426C0.449,-0.402 0.455,-0.37 0.455,-0.329L0.455,-0.138C0.455,-0.117 0.456,-0.1 0.457,-0.088C0.458,-0.077 0.459,-0.068 0.461,-0.062C0.463,-0.056 0.466,-0.052 0.469,-0.048C0.472,-0.045 0.476,-0.042 0.481,-0.04C0.486,-0.038 0.495,-0.035 0.508,-0.032L0.508,-0L0.326,-0L0.331,-0.064ZM0.314,-0.23C0.264,-0.229 0.227,-0.22 0.202,-0.202C0.178,-0.185 0.166,-0.159 0.166,-0.125C0.166,-0.105 0.172,-0.089 0.183,-0.079C0.194,-0.068 0.209,-0.063 0.229,-0.063C0.243,-0.063 0.258,-0.067 0.271,-0.075C0.284,-0.083 0.295,-0.094 0.303,-0.107C0.311,-0.12 0.314,-0.134 0.314,-0.149L0.314,-0.23Z" style="fill:rgb(109,109,109);fill-rule:nonzero;"/>
                    </g>
                    <g transform="matrix(64,0,0,64,1810.55,714.419)">
                        <path d="M0.799,-0.634C0.782,-0.629 0.77,-0.624 0.764,-0.618C0.757,-0.613 0.753,-0.605 0.75,-0.595C0.748,-0.586 0.747,-0.569 0.747,-0.544L0.747,-0.122C0.747,-0.102 0.748,-0.086 0.75,-0.075C0.752,-0.063 0.756,-0.055 0.762,-0.048C0.768,-0.042 0.78,-0.037 0.799,-0.032L0.799,-0L0.548,-0L0.548,-0.032C0.563,-0.036 0.573,-0.04 0.578,-0.042C0.584,-0.045 0.588,-0.049 0.591,-0.054C0.594,-0.059 0.596,-0.066 0.598,-0.075C0.599,-0.085 0.6,-0.101 0.6,-0.123L0.6,-0.362C0.6,-0.389 0.601,-0.42 0.602,-0.456C0.603,-0.491 0.604,-0.517 0.604,-0.532L0.594,-0.532C0.59,-0.519 0.586,-0.506 0.582,-0.493C0.577,-0.481 0.569,-0.458 0.557,-0.426L0.426,-0.074L0.34,-0.074L0.203,-0.47C0.194,-0.492 0.187,-0.514 0.181,-0.537L0.172,-0.537C0.176,-0.483 0.177,-0.419 0.177,-0.346L0.177,-0.122C0.177,-0.097 0.178,-0.081 0.181,-0.071C0.183,-0.062 0.188,-0.054 0.194,-0.048C0.201,-0.042 0.213,-0.036 0.23,-0.032L0.23,-0L0.045,-0L0.045,-0.032C0.057,-0.035 0.067,-0.039 0.074,-0.043C0.081,-0.047 0.086,-0.052 0.09,-0.059C0.093,-0.065 0.096,-0.073 0.096,-0.083C0.097,-0.094 0.098,-0.106 0.098,-0.122L0.098,-0.544C0.098,-0.569 0.097,-0.586 0.094,-0.595C0.092,-0.604 0.088,-0.612 0.082,-0.618C0.076,-0.624 0.064,-0.629 0.045,-0.634L0.045,-0.667L0.288,-0.667L0.423,-0.266L0.57,-0.667L0.799,-0.667L0.799,-0.634Z" style="fill:rgb(109,109,109);fill-rule:nonzero;"/>
                    </g>
                    <g transform="matrix(64,0,0,64,1864.71,714.419)">
                        <path d="M0.331,-0.064L0.323,-0.066C0.297,-0.04 0.271,-0.021 0.245,-0.01C0.22,0.002 0.193,0.008 0.165,0.008C0.137,0.008 0.113,0.003 0.092,-0.007C0.071,-0.018 0.056,-0.032 0.045,-0.05C0.035,-0.069 0.029,-0.09 0.029,-0.113C0.029,-0.161 0.053,-0.199 0.1,-0.226C0.147,-0.254 0.218,-0.271 0.314,-0.278L0.314,-0.325C0.314,-0.355 0.311,-0.378 0.304,-0.395C0.297,-0.411 0.288,-0.423 0.277,-0.429C0.267,-0.436 0.254,-0.439 0.239,-0.439C0.224,-0.439 0.211,-0.437 0.2,-0.432C0.189,-0.426 0.179,-0.417 0.17,-0.402C0.162,-0.388 0.155,-0.368 0.151,-0.342L0.059,-0.342L0.059,-0.431C0.089,-0.444 0.113,-0.454 0.133,-0.461C0.153,-0.469 0.173,-0.474 0.192,-0.479C0.211,-0.484 0.229,-0.487 0.244,-0.489C0.259,-0.491 0.275,-0.492 0.29,-0.492C0.329,-0.492 0.361,-0.487 0.384,-0.477C0.408,-0.466 0.426,-0.449 0.438,-0.426C0.449,-0.402 0.455,-0.37 0.455,-0.329L0.455,-0.138C0.455,-0.117 0.456,-0.1 0.457,-0.088C0.458,-0.077 0.459,-0.068 0.461,-0.062C0.463,-0.056 0.466,-0.052 0.469,-0.048C0.472,-0.045 0.476,-0.042 0.481,-0.04C0.486,-0.038 0.495,-0.035 0.508,-0.032L0.508,-0L0.326,-0L0.331,-0.064ZM0.314,-0.23C0.264,-0.229 0.227,-0.22 0.202,-0.202C0.178,-0.185 0.166,-0.159 0.166,-0.125C0.166,-0.105 0.172,-0.089 0.183,-0.079C0.194,-0.068 0.209,-0.063 0.229,-0.063C0.243,-0.063 0.258,-0.067 0.271,-0.075C0.284,-0.083 0.295,-0.094 0.303,-0.107C0.311,-0.12 0.314,-0.134 0.314,-0.149L0.314,-0.23Z" style="fill:rgb(109,109,109);fill-rule:nonzero;"/>
                    </g>
                    <g transform="matrix(64,0,0,64,1898.96,714.419)">
                        <path d="M0.224,-0.415L0.23,-0.413C0.254,-0.441 0.279,-0.461 0.304,-0.474C0.329,-0.486 0.356,-0.492 0.385,-0.492C0.405,-0.492 0.426,-0.49 0.448,-0.486L0.448,-0.351L0.359,-0.351C0.354,-0.37 0.347,-0.384 0.337,-0.395C0.329,-0.405 0.317,-0.41 0.302,-0.41C0.295,-0.41 0.287,-0.407 0.278,-0.403C0.269,-0.399 0.261,-0.392 0.254,-0.384C0.247,-0.376 0.242,-0.368 0.238,-0.36C0.235,-0.352 0.233,-0.343 0.232,-0.335C0.231,-0.326 0.231,-0.314 0.231,-0.297L0.231,-0.141C0.231,-0.11 0.232,-0.089 0.234,-0.076C0.237,-0.064 0.241,-0.054 0.248,-0.047C0.255,-0.04 0.266,-0.035 0.283,-0.032L0.283,-0L0.042,-0L0.042,-0.032C0.058,-0.036 0.068,-0.042 0.074,-0.049C0.08,-0.056 0.084,-0.065 0.086,-0.077C0.089,-0.088 0.09,-0.11 0.09,-0.141L0.09,-0.341C0.09,-0.365 0.089,-0.383 0.088,-0.395C0.088,-0.406 0.086,-0.416 0.083,-0.422C0.08,-0.43 0.075,-0.435 0.068,-0.439C0.062,-0.444 0.051,-0.448 0.036,-0.451L0.036,-0.484L0.169,-0.488L0.231,-0.488L0.224,-0.415Z" style="fill:rgb(109,109,109);fill-rule:nonzero;"/>
                    </g>
                    <g transform="matrix(64,0,0,64,1927.55,714.419)">
                        <path d="M0.414,-0.125L0.452,-0.08C0.42,-0.048 0.389,-0.026 0.359,-0.012C0.329,0.001 0.297,0.008 0.262,0.008C0.191,0.008 0.137,-0.013 0.1,-0.054C0.063,-0.096 0.044,-0.156 0.044,-0.235C0.044,-0.289 0.055,-0.335 0.075,-0.374C0.095,-0.413 0.125,-0.442 0.163,-0.462C0.201,-0.482 0.244,-0.492 0.293,-0.492C0.32,-0.492 0.346,-0.49 0.372,-0.486C0.398,-0.483 0.422,-0.478 0.444,-0.471L0.444,-0.354L0.347,-0.354C0.342,-0.384 0.335,-0.406 0.325,-0.42C0.315,-0.434 0.301,-0.441 0.283,-0.441C0.271,-0.441 0.26,-0.438 0.249,-0.432C0.238,-0.426 0.228,-0.416 0.22,-0.401C0.212,-0.386 0.205,-0.366 0.2,-0.341C0.195,-0.317 0.193,-0.285 0.193,-0.247C0.193,-0.209 0.196,-0.177 0.204,-0.15C0.211,-0.124 0.222,-0.104 0.238,-0.09C0.254,-0.076 0.275,-0.069 0.301,-0.069C0.32,-0.069 0.338,-0.073 0.354,-0.081C0.371,-0.089 0.391,-0.104 0.414,-0.125Z" style="fill:rgb(109,109,109);fill-rule:nonzero;"/>
                    </g>
                    <g transform="matrix(64,0,0,64,1957.55,714.419)">
                        <path d="M0.227,-0.679L0.227,-0.56L0.093,-0.56L0.093,-0.679L0.227,-0.679ZM0.042,-0.032C0.057,-0.036 0.068,-0.042 0.074,-0.049C0.08,-0.056 0.084,-0.065 0.086,-0.077C0.089,-0.088 0.09,-0.11 0.09,-0.141L0.09,-0.368C0.09,-0.384 0.089,-0.396 0.087,-0.406C0.086,-0.416 0.083,-0.424 0.079,-0.43C0.075,-0.436 0.07,-0.44 0.063,-0.443C0.056,-0.446 0.047,-0.449 0.036,-0.451L0.036,-0.484L0.17,-0.488L0.231,-0.488L0.231,-0.141C0.231,-0.123 0.231,-0.109 0.231,-0.099C0.232,-0.089 0.233,-0.081 0.234,-0.076C0.235,-0.07 0.236,-0.066 0.238,-0.062C0.24,-0.057 0.242,-0.053 0.245,-0.05C0.248,-0.046 0.252,-0.043 0.258,-0.04C0.263,-0.037 0.271,-0.035 0.28,-0.032L0.28,-0L0.042,-0L0.042,-0.032Z" style="fill:rgb(109,109,109);fill-rule:nonzero;"/>
                    </g>
                    <g transform="matrix(64,0,0,64,1977.67,714.419)">
                        <path d="M0.573,-0L0.336,-0L0.336,-0.032C0.351,-0.036 0.361,-0.041 0.367,-0.048C0.373,-0.055 0.377,-0.064 0.379,-0.076C0.381,-0.088 0.382,-0.11 0.382,-0.141L0.382,-0.271C0.382,-0.294 0.382,-0.313 0.381,-0.328C0.38,-0.343 0.378,-0.355 0.376,-0.364C0.374,-0.374 0.371,-0.382 0.367,-0.388C0.364,-0.394 0.36,-0.399 0.355,-0.403C0.35,-0.408 0.345,-0.411 0.339,-0.413C0.333,-0.415 0.326,-0.416 0.317,-0.416C0.305,-0.416 0.292,-0.412 0.278,-0.404C0.265,-0.396 0.254,-0.386 0.245,-0.372C0.236,-0.359 0.231,-0.344 0.231,-0.329L0.231,-0.141C0.231,-0.11 0.232,-0.089 0.234,-0.077C0.236,-0.065 0.24,-0.055 0.246,-0.048C0.252,-0.041 0.263,-0.036 0.278,-0.032L0.278,-0L0.042,-0L0.042,-0.032C0.058,-0.036 0.068,-0.042 0.074,-0.049C0.08,-0.056 0.084,-0.065 0.086,-0.077C0.089,-0.088 0.09,-0.11 0.09,-0.141L0.09,-0.341C0.09,-0.365 0.089,-0.383 0.088,-0.395C0.088,-0.406 0.086,-0.416 0.083,-0.422C0.08,-0.43 0.075,-0.435 0.068,-0.439C0.062,-0.444 0.051,-0.448 0.036,-0.451L0.036,-0.484L0.169,-0.488L0.231,-0.488L0.224,-0.418L0.229,-0.417C0.25,-0.434 0.267,-0.448 0.283,-0.458C0.298,-0.469 0.314,-0.477 0.331,-0.483C0.347,-0.489 0.365,-0.492 0.384,-0.492C0.41,-0.492 0.433,-0.488 0.45,-0.48C0.468,-0.473 0.482,-0.462 0.493,-0.447C0.504,-0.433 0.512,-0.415 0.516,-0.394C0.521,-0.372 0.523,-0.348 0.523,-0.32L0.523,-0.141C0.523,-0.127 0.524,-0.113 0.524,-0.101C0.525,-0.088 0.526,-0.078 0.528,-0.071C0.53,-0.063 0.532,-0.057 0.536,-0.052C0.539,-0.048 0.544,-0.044 0.55,-0.041C0.556,-0.037 0.564,-0.035 0.573,-0.032L0.573,-0Z" style="fill:rgb(109,109,109);fill-rule:nonzero;"/>
                    </g>
                    <g transform="matrix(64,0,0,64,2016.3,714.419)">
                        <path d="M0.387,-0.308L0.513,-0.122C0.532,-0.094 0.545,-0.075 0.554,-0.064C0.563,-0.054 0.571,-0.047 0.577,-0.042C0.584,-0.038 0.592,-0.035 0.602,-0.032L0.602,-0L0.363,-0L0.363,-0.032C0.377,-0.035 0.385,-0.043 0.385,-0.055C0.385,-0.064 0.382,-0.074 0.376,-0.085C0.37,-0.097 0.359,-0.115 0.343,-0.139L0.305,-0.196C0.297,-0.208 0.29,-0.218 0.285,-0.223C0.279,-0.229 0.274,-0.233 0.269,-0.236C0.264,-0.239 0.257,-0.241 0.248,-0.241L0.225,-0.241L0.225,-0.141C0.225,-0.11 0.226,-0.089 0.228,-0.077C0.229,-0.065 0.233,-0.056 0.239,-0.049C0.245,-0.042 0.257,-0.036 0.273,-0.032L0.273,-0L0.034,-0L0.034,-0.032C0.044,-0.035 0.052,-0.037 0.057,-0.04C0.063,-0.043 0.067,-0.047 0.07,-0.051C0.073,-0.055 0.076,-0.06 0.078,-0.066C0.08,-0.073 0.082,-0.082 0.083,-0.093C0.083,-0.104 0.083,-0.12 0.083,-0.141L0.083,-0.522C0.083,-0.55 0.083,-0.57 0.083,-0.583C0.082,-0.597 0.081,-0.608 0.08,-0.617C0.078,-0.626 0.076,-0.633 0.072,-0.638C0.069,-0.644 0.064,-0.648 0.058,-0.651C0.052,-0.655 0.042,-0.658 0.028,-0.66L0.028,-0.692L0.164,-0.699L0.225,-0.699L0.225,-0.288L0.241,-0.288C0.252,-0.288 0.261,-0.289 0.268,-0.291C0.274,-0.293 0.281,-0.297 0.288,-0.302C0.295,-0.307 0.306,-0.316 0.32,-0.329C0.335,-0.342 0.346,-0.354 0.354,-0.364C0.361,-0.375 0.366,-0.384 0.369,-0.391C0.371,-0.399 0.373,-0.406 0.373,-0.414C0.373,-0.436 0.358,-0.449 0.33,-0.453L0.33,-0.484L0.574,-0.484L0.574,-0.453C0.562,-0.451 0.547,-0.445 0.532,-0.436C0.516,-0.426 0.492,-0.405 0.458,-0.374L0.387,-0.308Z" style="fill:rgb(109,109,109);fill-rule:nonzero;"/>
                    </g>
                    <g transform="matrix(64,0,0,64,2053.08,714.419)">
                        <path d="M0.279,0.008C0.231,0.008 0.19,-0 0.155,-0.017C0.12,-0.034 0.093,-0.061 0.074,-0.098C0.054,-0.135 0.044,-0.182 0.044,-0.239C0.044,-0.282 0.05,-0.32 0.063,-0.352C0.075,-0.384 0.091,-0.41 0.113,-0.431C0.134,-0.452 0.16,-0.467 0.189,-0.477C0.219,-0.487 0.252,-0.492 0.287,-0.492C0.365,-0.492 0.425,-0.471 0.465,-0.43C0.505,-0.388 0.525,-0.328 0.525,-0.248C0.525,-0.191 0.515,-0.143 0.495,-0.105C0.475,-0.067 0.447,-0.039 0.41,-0.02C0.373,-0.001 0.33,0.008 0.279,0.008ZM0.193,-0.25C0.193,-0.181 0.201,-0.129 0.216,-0.094C0.231,-0.06 0.255,-0.043 0.286,-0.043C0.303,-0.043 0.318,-0.047 0.329,-0.056C0.341,-0.065 0.35,-0.078 0.357,-0.094C0.364,-0.111 0.369,-0.131 0.372,-0.154C0.375,-0.177 0.376,-0.203 0.376,-0.232C0.376,-0.302 0.369,-0.355 0.353,-0.389C0.338,-0.424 0.315,-0.441 0.285,-0.441C0.263,-0.441 0.245,-0.434 0.231,-0.42C0.218,-0.406 0.208,-0.385 0.202,-0.357C0.196,-0.329 0.193,-0.293 0.193,-0.25Z" style="fill:rgb(109,109,109);fill-rule:nonzero;"/>
                    </g>
                    <g transform="matrix(64,0,0,64,2088.17,714.419)">
                        <path d="M0.489,0.005L0.397,-0.31L0.29,0.005L0.191,0.005L0.073,-0.367C0.066,-0.389 0.06,-0.406 0.055,-0.416C0.05,-0.426 0.044,-0.434 0.038,-0.44C0.032,-0.446 0.024,-0.45 0.013,-0.452L0.013,-0.484L0.252,-0.484L0.252,-0.452C0.237,-0.45 0.225,-0.445 0.217,-0.438C0.21,-0.431 0.206,-0.422 0.206,-0.41C0.206,-0.402 0.207,-0.393 0.21,-0.383C0.213,-0.373 0.215,-0.363 0.219,-0.352L0.28,-0.149L0.392,-0.484L0.483,-0.484L0.578,-0.149L0.642,-0.325C0.648,-0.343 0.653,-0.358 0.655,-0.37C0.657,-0.382 0.659,-0.392 0.659,-0.401C0.659,-0.415 0.655,-0.426 0.647,-0.435C0.639,-0.444 0.628,-0.45 0.614,-0.452L0.614,-0.484L0.798,-0.484L0.798,-0.452C0.788,-0.449 0.78,-0.445 0.775,-0.441C0.77,-0.438 0.765,-0.432 0.76,-0.425C0.755,-0.418 0.75,-0.409 0.744,-0.396C0.738,-0.382 0.729,-0.361 0.718,-0.333L0.586,0.005L0.489,0.005Z" style="fill:rgb(109,109,109);fill-rule:nonzero;"/>
                    </g>
                    <g transform="matrix(64,0,0,64,2138.42,714.419)">
                        <path d="M0.105,-0.132C0.113,-0.102 0.125,-0.08 0.142,-0.065C0.159,-0.05 0.182,-0.043 0.21,-0.043C0.234,-0.043 0.253,-0.049 0.265,-0.06C0.278,-0.071 0.284,-0.087 0.284,-0.108C0.284,-0.121 0.281,-0.133 0.275,-0.142C0.27,-0.152 0.26,-0.16 0.247,-0.169C0.234,-0.178 0.212,-0.189 0.18,-0.203C0.162,-0.211 0.145,-0.22 0.129,-0.229C0.113,-0.238 0.1,-0.249 0.088,-0.261C0.076,-0.273 0.067,-0.286 0.06,-0.301C0.053,-0.315 0.05,-0.332 0.05,-0.35C0.05,-0.379 0.058,-0.404 0.075,-0.426C0.092,-0.447 0.116,-0.464 0.147,-0.475C0.179,-0.486 0.215,-0.492 0.255,-0.492C0.279,-0.492 0.302,-0.491 0.325,-0.489C0.348,-0.487 0.377,-0.483 0.414,-0.477L0.414,-0.363L0.349,-0.363C0.342,-0.384 0.333,-0.4 0.324,-0.411C0.315,-0.423 0.306,-0.43 0.295,-0.435C0.284,-0.439 0.271,-0.441 0.256,-0.441C0.235,-0.441 0.218,-0.437 0.205,-0.427C0.192,-0.417 0.186,-0.403 0.186,-0.386C0.186,-0.373 0.188,-0.363 0.193,-0.354C0.197,-0.345 0.206,-0.337 0.217,-0.328C0.229,-0.32 0.252,-0.309 0.285,-0.295C0.316,-0.282 0.341,-0.269 0.36,-0.255C0.379,-0.241 0.394,-0.225 0.404,-0.207C0.414,-0.189 0.419,-0.168 0.419,-0.144C0.419,-0.118 0.414,-0.095 0.404,-0.076C0.395,-0.057 0.381,-0.041 0.363,-0.029C0.346,-0.016 0.325,-0.007 0.3,-0.001C0.275,0.005 0.248,0.008 0.219,0.008C0.165,0.008 0.105,0 0.04,-0.015L0.04,-0.132L0.105,-0.132Z" style="fill:rgb(109,109,109);fill-rule:nonzero;"/>
                    </g>
                    <g transform="matrix(64,0,0,64,2167.8,714.419)">
                        <path d="M0.387,-0.308L0.513,-0.122C0.532,-0.094 0.545,-0.075 0.554,-0.064C0.563,-0.054 0.571,-0.047 0.577,-0.042C0.584,-0.038 0.592,-0.035 0.602,-0.032L0.602,-0L0.363,-0L0.363,-0.032C0.377,-0.035 0.385,-0.043 0.385,-0.055C0.385,-0.064 0.382,-0.074 0.376,-0.085C0.37,-0.097 0.359,-0.115 0.343,-0.139L0.305,-0.196C0.297,-0.208 0.29,-0.218 0.285,-0.223C0.279,-0.229 0.274,-0.233 0.269,-0.236C0.264,-0.239 0.257,-0.241 0.248,-0.241L0.225,-0.241L0.225,-0.141C0.225,-0.11 0.226,-0.089 0.228,-0.077C0.229,-0.065 0.233,-0.056 0.239,-0.049C0.245,-0.042 0.257,-0.036 0.273,-0.032L0.273,-0L0.034,-0L0.034,-0.032C0.044,-0.035 0.052,-0.037 0.057,-0.04C0.063,-0.043 0.067,-0.047 0.07,-0.051C0.073,-0.055 0.076,-0.06 0.078,-0.066C0.08,-0.073 0.082,-0.082 0.083,-0.093C0.083,-0.104 0.083,-0.12 0.083,-0.141L0.083,-0.522C0.083,-0.55 0.083,-0.57 0.083,-0.583C0.082,-0.597 0.081,-0.608 0.08,-0.617C0.078,-0.626 0.076,-0.633 0.072,-0.638C0.069,-0.644 0.064,-0.648 0.058,-0.651C0.052,-0.655 0.042,-0.658 0.028,-0.66L0.028,-0.692L0.164,-0.699L0.225,-0.699L0.225,-0.288L0.241,-0.288C0.252,-0.288 0.261,-0.289 0.268,-0.291C0.274,-0.293 0.281,-0.297 0.288,-0.302C0.295,-0.307 0.306,-0.316 0.32,-0.329C0.335,-0.342 0.346,-0.354 0.354,-0.364C0.361,-0.375 0.366,-0.384 0.369,-0.391C0.371,-0.399 0.373,-0.406 0.373,-0.414C0.373,-0.436 0.358,-0.449 0.33,-0.453L0.33,-0.484L0.574,-0.484L0.574,-0.453C0.562,-0.451 0.547,-0.445 0.532,-0.436C0.516,-0.426 0.492,-0.405 0.458,-0.374L0.387,-0.308Z" style="fill:rgb(109,109,109);fill-rule:nonzero;"/>
                    </g>
                    <g transform="matrix(64,0,0,64,2205.67,714.419)">
                        <path d="M0.227,-0.679L0.227,-0.56L0.093,-0.56L0.093,-0.679L0.227,-0.679ZM0.042,-0.032C0.057,-0.036 0.068,-0.042 0.074,-0.049C0.08,-0.056 0.084,-0.065 0.086,-0.077C0.089,-0.088 0.09,-0.11 0.09,-0.141L0.09,-0.368C0.09,-0.384 0.089,-0.396 0.087,-0.406C0.086,-0.416 0.083,-0.424 0.079,-0.43C0.075,-0.436 0.07,-0.44 0.063,-0.443C0.056,-0.446 0.047,-0.449 0.036,-0.451L0.036,-0.484L0.17,-0.488L0.231,-0.488L0.231,-0.141C0.231,-0.123 0.231,-0.109 0.231,-0.099C0.232,-0.089 0.233,-0.081 0.234,-0.076C0.235,-0.07 0.236,-0.066 0.238,-0.062C0.24,-0.057 0.242,-0.053 0.245,-0.05C0.248,-0.046 0.252,-0.043 0.258,-0.04C0.263,-0.037 0.271,-0.035 0.28,-0.032L0.28,-0L0.042,-0L0.042,-0.032Z" style="fill:rgb(109,109,109);fill-rule:nonzero;"/>
                    </g>
                    <g transform="matrix(64,0,0,64,2225.8,714.419)">
                        <path d="M0.484,-0.089C0.451,-0.054 0.418,-0.029 0.385,-0.014C0.353,0 0.315,0.008 0.273,0.008C0.197,0.008 0.14,-0.013 0.102,-0.054C0.063,-0.096 0.044,-0.158 0.044,-0.239C0.044,-0.292 0.054,-0.337 0.074,-0.375C0.094,-0.414 0.122,-0.443 0.158,-0.462C0.194,-0.482 0.236,-0.492 0.284,-0.492C0.313,-0.492 0.339,-0.489 0.361,-0.482C0.384,-0.475 0.403,-0.465 0.419,-0.453C0.435,-0.441 0.448,-0.426 0.458,-0.409C0.471,-0.389 0.48,-0.365 0.486,-0.339C0.493,-0.312 0.496,-0.279 0.497,-0.241L0.187,-0.241C0.187,-0.182 0.198,-0.138 0.218,-0.11C0.239,-0.083 0.271,-0.069 0.313,-0.069C0.338,-0.069 0.36,-0.073 0.38,-0.083C0.4,-0.092 0.421,-0.108 0.444,-0.132L0.484,-0.089ZM0.352,-0.293C0.351,-0.343 0.344,-0.38 0.333,-0.405C0.321,-0.429 0.302,-0.441 0.276,-0.441C0.251,-0.441 0.231,-0.429 0.216,-0.403C0.201,-0.378 0.192,-0.341 0.189,-0.293L0.352,-0.293Z" style="fill:rgb(109,109,109);fill-rule:nonzero;"/>
                    </g>
                    <g transform="matrix(64,0,0,64,2259.77,714.419)">
                        <path d="M0.514,-0.419L0.431,-0.428L0.429,-0.423C0.438,-0.414 0.445,-0.401 0.451,-0.385C0.457,-0.37 0.46,-0.351 0.46,-0.329C0.46,-0.272 0.443,-0.229 0.409,-0.2C0.375,-0.17 0.324,-0.156 0.257,-0.156C0.225,-0.156 0.199,-0.159 0.178,-0.165C0.162,-0.15 0.154,-0.134 0.154,-0.117C0.154,-0.107 0.156,-0.1 0.16,-0.095C0.164,-0.09 0.171,-0.085 0.181,-0.083C0.19,-0.08 0.204,-0.079 0.222,-0.079L0.343,-0.079C0.398,-0.079 0.438,-0.068 0.465,-0.047C0.492,-0.026 0.506,0.007 0.506,0.052C0.506,0.087 0.496,0.117 0.476,0.142C0.457,0.167 0.428,0.186 0.392,0.199C0.355,0.212 0.311,0.219 0.261,0.219C0.224,0.219 0.191,0.217 0.161,0.214C0.131,0.211 0.105,0.205 0.084,0.196C0.063,0.187 0.046,0.176 0.035,0.161C0.023,0.146 0.018,0.127 0.018,0.104C0.018,0.085 0.023,0.068 0.035,0.052C0.047,0.037 0.063,0.023 0.084,0.012C0.071,0.002 0.061,-0.009 0.055,-0.021C0.049,-0.034 0.045,-0.05 0.045,-0.068C0.045,-0.084 0.049,-0.098 0.055,-0.111C0.061,-0.125 0.07,-0.137 0.08,-0.147C0.091,-0.159 0.105,-0.171 0.122,-0.184C0.096,-0.198 0.077,-0.217 0.064,-0.24C0.051,-0.263 0.044,-0.291 0.044,-0.322C0.044,-0.352 0.05,-0.378 0.061,-0.399C0.072,-0.421 0.087,-0.439 0.105,-0.453C0.125,-0.466 0.147,-0.476 0.173,-0.482C0.199,-0.489 0.227,-0.492 0.257,-0.492C0.273,-0.492 0.288,-0.491 0.301,-0.49C0.313,-0.488 0.326,-0.486 0.338,-0.484L0.514,-0.484L0.514,-0.419ZM0.185,-0.328C0.185,-0.287 0.19,-0.256 0.202,-0.236C0.213,-0.216 0.232,-0.206 0.256,-0.206C0.279,-0.206 0.296,-0.215 0.308,-0.234C0.32,-0.252 0.326,-0.281 0.326,-0.319C0.326,-0.359 0.32,-0.389 0.308,-0.41C0.297,-0.431 0.279,-0.442 0.255,-0.442C0.231,-0.442 0.213,-0.432 0.202,-0.414C0.19,-0.395 0.185,-0.366 0.185,-0.328ZM0.167,0.031C0.155,0.04 0.146,0.05 0.14,0.061C0.134,0.072 0.131,0.084 0.131,0.098C0.131,0.122 0.141,0.139 0.162,0.15C0.182,0.161 0.214,0.167 0.258,0.167C0.299,0.167 0.33,0.16 0.352,0.146C0.373,0.133 0.384,0.114 0.384,0.089C0.384,0.078 0.382,0.068 0.378,0.061C0.374,0.053 0.366,0.046 0.355,0.041C0.344,0.036 0.327,0.033 0.307,0.033L0.223,0.033C0.199,0.033 0.18,0.033 0.167,0.031Z" style="fill:rgb(109,109,109);fill-rule:nonzero;"/>
                    </g>
                    <g transform="matrix(64,0,0,64,2293.05,714.419)">
                        <path d="M0.279,0.008C0.231,0.008 0.19,-0 0.155,-0.017C0.12,-0.034 0.093,-0.061 0.074,-0.098C0.054,-0.135 0.044,-0.182 0.044,-0.239C0.044,-0.282 0.05,-0.32 0.063,-0.352C0.075,-0.384 0.091,-0.41 0.113,-0.431C0.134,-0.452 0.16,-0.467 0.189,-0.477C0.219,-0.487 0.252,-0.492 0.287,-0.492C0.365,-0.492 0.425,-0.471 0.465,-0.43C0.505,-0.388 0.525,-0.328 0.525,-0.248C0.525,-0.191 0.515,-0.143 0.495,-0.105C0.475,-0.067 0.447,-0.039 0.41,-0.02C0.373,-0.001 0.33,0.008 0.279,0.008ZM0.193,-0.25C0.193,-0.181 0.201,-0.129 0.216,-0.094C0.231,-0.06 0.255,-0.043 0.286,-0.043C0.303,-0.043 0.318,-0.047 0.329,-0.056C0.341,-0.065 0.35,-0.078 0.357,-0.094C0.364,-0.111 0.369,-0.131 0.372,-0.154C0.375,-0.177 0.376,-0.203 0.376,-0.232C0.376,-0.302 0.369,-0.355 0.353,-0.389C0.338,-0.424 0.315,-0.441 0.285,-0.441C0.263,-0.441 0.245,-0.434 0.231,-0.42C0.218,-0.406 0.208,-0.385 0.202,-0.357C0.196,-0.329 0.193,-0.293 0.193,-0.25Z" style="fill:rgb(109,109,109);fill-rule:nonzero;"/>
                    </g>
                    <g transform="matrix(64,0,0,64,1405.16,778.419)">
                        <path d="M0.489,0.005L0.397,-0.31L0.29,0.005L0.191,0.005L0.073,-0.367C0.066,-0.389 0.06,-0.406 0.055,-0.416C0.05,-0.426 0.044,-0.434 0.038,-0.44C0.032,-0.446 0.024,-0.45 0.013,-0.452L0.013,-0.484L0.252,-0.484L0.252,-0.452C0.237,-0.45 0.225,-0.445 0.217,-0.438C0.21,-0.431 0.206,-0.422 0.206,-0.41C0.206,-0.402 0.207,-0.393 0.21,-0.383C0.213,-0.373 0.215,-0.363 0.219,-0.352L0.28,-0.149L0.392,-0.484L0.483,-0.484L0.578,-0.149L0.642,-0.325C0.648,-0.343 0.653,-0.358 0.655,-0.37C0.657,-0.382 0.659,-0.392 0.659,-0.401C0.659,-0.415 0.655,-0.426 0.647,-0.435C0.639,-0.444 0.628,-0.45 0.614,-0.452L0.614,-0.484L0.798,-0.484L0.798,-0.452C0.788,-0.449 0.78,-0.445 0.775,-0.441C0.77,-0.438 0.765,-0.432 0.76,-0.425C0.755,-0.418 0.75,-0.409 0.744,-0.396C0.738,-0.382 0.729,-0.361 0.718,-0.333L0.586,0.005L0.489,0.005Z" style="fill:rgb(109,109,109);fill-rule:nonzero;"/>
                    </g>
                    <g transform="matrix(64,0,0,64,1470.35,778.419)">
                        <path d="M0.25,-0.122C0.25,-0.101 0.251,-0.085 0.253,-0.076C0.255,-0.067 0.257,-0.06 0.261,-0.055C0.265,-0.049 0.27,-0.045 0.277,-0.042C0.284,-0.038 0.295,-0.035 0.31,-0.032L0.31,-0L0.047,-0L0.047,-0.032C0.059,-0.035 0.068,-0.039 0.075,-0.042C0.082,-0.046 0.088,-0.052 0.091,-0.058C0.094,-0.065 0.097,-0.073 0.098,-0.083C0.099,-0.094 0.099,-0.107 0.099,-0.123L0.099,-0.543C0.099,-0.559 0.099,-0.572 0.098,-0.582C0.097,-0.592 0.095,-0.601 0.091,-0.607C0.088,-0.614 0.083,-0.619 0.076,-0.623C0.069,-0.627 0.059,-0.631 0.047,-0.634L0.047,-0.667L0.331,-0.667C0.413,-0.667 0.475,-0.652 0.516,-0.622C0.557,-0.593 0.577,-0.548 0.577,-0.486C0.577,-0.443 0.568,-0.405 0.548,-0.374C0.529,-0.342 0.501,-0.317 0.465,-0.301C0.428,-0.285 0.383,-0.276 0.328,-0.276C0.297,-0.276 0.271,-0.277 0.25,-0.278L0.25,-0.122ZM0.25,-0.333L0.292,-0.333C0.325,-0.333 0.351,-0.338 0.37,-0.347C0.389,-0.357 0.403,-0.371 0.413,-0.392C0.422,-0.412 0.427,-0.439 0.427,-0.473C0.427,-0.507 0.422,-0.534 0.413,-0.554C0.403,-0.574 0.39,-0.588 0.372,-0.597C0.354,-0.605 0.331,-0.609 0.303,-0.609C0.28,-0.609 0.263,-0.609 0.25,-0.608L0.25,-0.333Z" style="fill:rgb(109,109,109);fill-rule:nonzero;"/>
                    </g>
                    <g transform="matrix(64,0,0,64,1508.03,778.419)">
                        <path d="M0.279,0.008C0.231,0.008 0.19,-0 0.155,-0.017C0.12,-0.034 0.093,-0.061 0.074,-0.098C0.054,-0.135 0.044,-0.182 0.044,-0.239C0.044,-0.282 0.05,-0.32 0.063,-0.352C0.075,-0.384 0.091,-0.41 0.113,-0.431C0.134,-0.452 0.16,-0.467 0.189,-0.477C0.219,-0.487 0.252,-0.492 0.287,-0.492C0.365,-0.492 0.425,-0.471 0.465,-0.43C0.505,-0.388 0.525,-0.328 0.525,-0.248C0.525,-0.191 0.515,-0.143 0.495,-0.105C0.475,-0.067 0.447,-0.039 0.41,-0.02C0.373,-0.001 0.33,0.008 0.279,0.008ZM0.193,-0.25C0.193,-0.181 0.201,-0.129 0.216,-0.094C0.231,-0.06 0.255,-0.043 0.286,-0.043C0.303,-0.043 0.318,-0.047 0.329,-0.056C0.341,-0.065 0.35,-0.078 0.357,-0.094C0.364,-0.111 0.369,-0.131 0.372,-0.154C0.375,-0.177 0.376,-0.203 0.376,-0.232C0.376,-0.302 0.369,-0.355 0.353,-0.389C0.338,-0.424 0.315,-0.441 0.285,-0.441C0.263,-0.441 0.245,-0.434 0.231,-0.42C0.218,-0.406 0.208,-0.385 0.202,-0.357C0.196,-0.329 0.193,-0.293 0.193,-0.25Z" style="fill:rgb(109,109,109);fill-rule:nonzero;"/>
                    </g>
                    <g transform="matrix(64,0,0,64,1544.47,778.419)">
                        <path d="M0.197,-0.052L0.3,-0.052C0.314,-0.052 0.327,-0.055 0.337,-0.061C0.347,-0.067 0.357,-0.078 0.365,-0.093C0.373,-0.109 0.381,-0.13 0.388,-0.157L0.447,-0.157L0.447,-0L0.032,-0L0.032,-0.032L0.282,-0.433L0.185,-0.433C0.169,-0.433 0.157,-0.43 0.147,-0.425C0.138,-0.42 0.129,-0.411 0.122,-0.398C0.114,-0.386 0.105,-0.365 0.095,-0.336L0.036,-0.336L0.036,-0.484L0.447,-0.484L0.447,-0.452L0.197,-0.052Z" style="fill:rgb(109,109,109);fill-rule:nonzero;"/>
                    </g>
                    <g transform="matrix(64,0,0,64,1575.13,778.419)">
                        <path d="M0.573,-0L0.336,-0L0.336,-0.032C0.351,-0.036 0.361,-0.041 0.367,-0.048C0.373,-0.055 0.377,-0.064 0.379,-0.076C0.381,-0.088 0.382,-0.11 0.382,-0.141L0.382,-0.271C0.382,-0.294 0.382,-0.313 0.381,-0.328C0.38,-0.343 0.378,-0.355 0.376,-0.364C0.374,-0.374 0.371,-0.382 0.367,-0.388C0.364,-0.394 0.36,-0.399 0.355,-0.403C0.35,-0.408 0.345,-0.411 0.339,-0.413C0.333,-0.415 0.326,-0.416 0.317,-0.416C0.305,-0.416 0.292,-0.412 0.278,-0.404C0.265,-0.396 0.254,-0.386 0.245,-0.372C0.236,-0.359 0.231,-0.344 0.231,-0.329L0.231,-0.141C0.231,-0.11 0.232,-0.089 0.234,-0.077C0.236,-0.065 0.24,-0.055 0.246,-0.048C0.252,-0.041 0.263,-0.036 0.278,-0.032L0.278,-0L0.042,-0L0.042,-0.032C0.058,-0.036 0.068,-0.042 0.074,-0.049C0.08,-0.056 0.084,-0.065 0.086,-0.077C0.089,-0.088 0.09,-0.11 0.09,-0.141L0.09,-0.341C0.09,-0.365 0.089,-0.383 0.088,-0.395C0.088,-0.406 0.086,-0.416 0.083,-0.422C0.08,-0.43 0.075,-0.435 0.068,-0.439C0.062,-0.444 0.051,-0.448 0.036,-0.451L0.036,-0.484L0.169,-0.488L0.231,-0.488L0.224,-0.418L0.229,-0.417C0.25,-0.434 0.267,-0.448 0.283,-0.458C0.298,-0.469 0.314,-0.477 0.331,-0.483C0.347,-0.489 0.365,-0.492 0.384,-0.492C0.41,-0.492 0.433,-0.488 0.45,-0.48C0.468,-0.473 0.482,-0.462 0.493,-0.447C0.504,-0.433 0.512,-0.415 0.516,-0.394C0.521,-0.372 0.523,-0.348 0.523,-0.32L0.523,-0.141C0.523,-0.127 0.524,-0.113 0.524,-0.101C0.525,-0.088 0.526,-0.078 0.528,-0.071C0.53,-0.063 0.532,-0.057 0.536,-0.052C0.539,-0.048 0.544,-0.044 0.55,-0.041C0.556,-0.037 0.564,-0.035 0.573,-0.032L0.573,-0Z" style="fill:rgb(109,109,109);fill-rule:nonzero;"/>
                    </g>
                    <g transform="matrix(64,0,0,64,1613.75,778.419)">
                        <path d="M0.331,-0.064L0.323,-0.066C0.297,-0.04 0.271,-0.021 0.245,-0.01C0.22,0.002 0.193,0.008 0.165,0.008C0.137,0.008 0.113,0.003 0.092,-0.007C0.071,-0.018 0.056,-0.032 0.045,-0.05C0.035,-0.069 0.029,-0.09 0.029,-0.113C0.029,-0.161 0.053,-0.199 0.1,-0.226C0.147,-0.254 0.218,-0.271 0.314,-0.278L0.314,-0.325C0.314,-0.355 0.311,-0.378 0.304,-0.395C0.297,-0.411 0.288,-0.423 0.277,-0.429C0.267,-0.436 0.254,-0.439 0.239,-0.439C0.224,-0.439 0.211,-0.437 0.2,-0.432C0.189,-0.426 0.179,-0.417 0.17,-0.402C0.162,-0.388 0.155,-0.368 0.151,-0.342L0.059,-0.342L0.059,-0.431C0.089,-0.444 0.113,-0.454 0.133,-0.461C0.153,-0.469 0.173,-0.474 0.192,-0.479C0.211,-0.484 0.229,-0.487 0.244,-0.489C0.259,-0.491 0.275,-0.492 0.29,-0.492C0.329,-0.492 0.361,-0.487 0.384,-0.477C0.408,-0.466 0.426,-0.449 0.438,-0.426C0.449,-0.402 0.455,-0.37 0.455,-0.329L0.455,-0.138C0.455,-0.117 0.456,-0.1 0.457,-0.088C0.458,-0.077 0.459,-0.068 0.461,-0.062C0.463,-0.056 0.466,-0.052 0.469,-0.048C0.472,-0.045 0.476,-0.042 0.481,-0.04C0.486,-0.038 0.495,-0.035 0.508,-0.032L0.508,-0L0.326,-0L0.331,-0.064ZM0.314,-0.23C0.264,-0.229 0.227,-0.22 0.202,-0.202C0.178,-0.185 0.166,-0.159 0.166,-0.125C0.166,-0.105 0.172,-0.089 0.183,-0.079C0.194,-0.068 0.209,-0.063 0.229,-0.063C0.243,-0.063 0.258,-0.067 0.271,-0.075C0.284,-0.083 0.295,-0.094 0.303,-0.107C0.311,-0.12 0.314,-0.134 0.314,-0.149L0.314,-0.23Z" style="fill:rgb(109,109,109);fill-rule:nonzero;"/>
                    </g>
                    <g transform="matrix(64,0,0,64,1648,778.419)">
                        <path d="M0.573,-0L0.336,-0L0.336,-0.032C0.351,-0.036 0.361,-0.041 0.367,-0.048C0.373,-0.055 0.377,-0.064 0.379,-0.076C0.381,-0.088 0.382,-0.11 0.382,-0.141L0.382,-0.271C0.382,-0.294 0.382,-0.313 0.381,-0.328C0.38,-0.343 0.378,-0.355 0.376,-0.364C0.374,-0.374 0.371,-0.382 0.367,-0.388C0.364,-0.394 0.36,-0.399 0.355,-0.403C0.35,-0.408 0.345,-0.411 0.339,-0.413C0.333,-0.415 0.326,-0.416 0.317,-0.416C0.305,-0.416 0.292,-0.412 0.278,-0.404C0.265,-0.396 0.254,-0.386 0.245,-0.372C0.236,-0.359 0.231,-0.344 0.231,-0.329L0.231,-0.141C0.231,-0.11 0.232,-0.089 0.234,-0.077C0.236,-0.065 0.24,-0.055 0.246,-0.048C0.252,-0.041 0.263,-0.036 0.278,-0.032L0.278,-0L0.042,-0L0.042,-0.032C0.058,-0.036 0.068,-0.042 0.074,-0.049C0.08,-0.056 0.084,-0.065 0.086,-0.077C0.089,-0.088 0.09,-0.11 0.09,-0.141L0.09,-0.341C0.09,-0.365 0.089,-0.383 0.088,-0.395C0.088,-0.406 0.086,-0.416 0.083,-0.422C0.08,-0.43 0.075,-0.435 0.068,-0.439C0.062,-0.444 0.051,-0.448 0.036,-0.451L0.036,-0.484L0.169,-0.488L0.231,-0.488L0.224,-0.418L0.229,-0.417C0.25,-0.434 0.267,-0.448 0.283,-0.458C0.298,-0.469 0.314,-0.477 0.331,-0.483C0.347,-0.489 0.365,-0.492 0.384,-0.492C0.41,-0.492 0.433,-0.488 0.45,-0.48C0.468,-0.473 0.482,-0.462 0.493,-0.447C0.504,-0.433 0.512,-0.415 0.516,-0.394C0.521,-0.372 0.523,-0.348 0.523,-0.32L0.523,-0.141C0.523,-0.127 0.524,-0.113 0.524,-0.101C0.525,-0.088 0.526,-0.078 0.528,-0.071C0.53,-0.063 0.532,-0.057 0.536,-0.052C0.539,-0.048 0.544,-0.044 0.55,-0.041C0.556,-0.037 0.564,-0.035 0.573,-0.032L0.573,-0Z" style="fill:rgb(109,109,109);fill-rule:nonzero;"/>
                    </g>
                    <g transform="matrix(64,0,0,64,1686.63,778.419)">
                        <path d="M0.227,-0.679L0.227,-0.56L0.093,-0.56L0.093,-0.679L0.227,-0.679ZM0.042,-0.032C0.057,-0.036 0.068,-0.042 0.074,-0.049C0.08,-0.056 0.084,-0.065 0.086,-0.077C0.089,-0.088 0.09,-0.11 0.09,-0.141L0.09,-0.368C0.09,-0.384 0.089,-0.396 0.087,-0.406C0.086,-0.416 0.083,-0.424 0.079,-0.43C0.075,-0.436 0.07,-0.44 0.063,-0.443C0.056,-0.446 0.047,-0.449 0.036,-0.451L0.036,-0.484L0.17,-0.488L0.231,-0.488L0.231,-0.141C0.231,-0.123 0.231,-0.109 0.231,-0.099C0.232,-0.089 0.233,-0.081 0.234,-0.076C0.235,-0.07 0.236,-0.066 0.238,-0.062C0.24,-0.057 0.242,-0.053 0.245,-0.05C0.248,-0.046 0.252,-0.043 0.258,-0.04C0.263,-0.037 0.271,-0.035 0.28,-0.032L0.28,-0L0.042,-0L0.042,-0.032Z" style="fill:rgb(109,109,109);fill-rule:nonzero;"/>
                    </g>
                    <g transform="matrix(64,0,0,64,1706.75,778.419)">
                        <path d="M0.031,-0.484L0.221,-0.484L0.221,-0.213C0.221,-0.182 0.222,-0.158 0.224,-0.14C0.226,-0.123 0.23,-0.109 0.235,-0.098C0.241,-0.088 0.248,-0.081 0.255,-0.076C0.264,-0.071 0.274,-0.069 0.286,-0.069C0.298,-0.069 0.311,-0.073 0.324,-0.08C0.338,-0.088 0.349,-0.098 0.358,-0.111C0.367,-0.125 0.372,-0.139 0.372,-0.155L0.372,-0.343C0.372,-0.367 0.372,-0.385 0.371,-0.396C0.37,-0.408 0.368,-0.417 0.365,-0.423C0.362,-0.43 0.358,-0.435 0.352,-0.439C0.346,-0.444 0.337,-0.448 0.323,-0.452L0.323,-0.484L0.514,-0.484L0.514,-0.143C0.514,-0.118 0.514,-0.1 0.515,-0.088C0.516,-0.077 0.518,-0.068 0.521,-0.061C0.523,-0.054 0.528,-0.049 0.535,-0.044C0.541,-0.04 0.552,-0.036 0.567,-0.033L0.567,-0L0.435,0.004L0.375,0.004L0.38,-0.066L0.374,-0.067C0.344,-0.039 0.317,-0.02 0.293,-0.009C0.269,0.002 0.245,0.008 0.221,0.008C0.187,0.008 0.159,0.001 0.138,-0.011C0.118,-0.024 0.103,-0.043 0.094,-0.068C0.085,-0.093 0.08,-0.125 0.08,-0.165L0.08,-0.343C0.08,-0.361 0.08,-0.375 0.079,-0.385C0.079,-0.395 0.078,-0.403 0.077,-0.408C0.076,-0.413 0.075,-0.418 0.073,-0.422C0.071,-0.427 0.069,-0.431 0.065,-0.435C0.063,-0.438 0.058,-0.441 0.053,-0.444C0.048,-0.447 0.04,-0.45 0.031,-0.452L0.031,-0.484Z" style="fill:rgb(109,109,109);fill-rule:nonzero;"/>
                    </g>
                </g>
            </g>
        </g>
    </g>
    <defs>
        <linearGradient id="_Linear1" x1="0" y1="0" x2="1" y2="0" gradientUnits="userSpaceOnUse" gradientTransform="matrix(261.132,517.734,-534.353,253.01,96.3447,99.6494)"><stop offset="0" style="stop-color:rgb(55,198,244);stop-opacity:1"/><stop offset="0.43" style="stop-color:rgb(38,155,195);stop-opacity:1"/><stop offset="1" style="stop-color:rgb(0,56,84);stop-opacity:1"/></linearGradient>
    </defs>
</svg>
